<?xml version="1.0" encoding="UTF-8"?>
<svg id="Layer_2" data-name="Layer 2" xmlns="http://www.w3.org/2000/svg" xmlns:xlink="http://www.w3.org/1999/xlink" viewBox="0 0 1190 1190">
  <defs>
    <clipPath id="clippath">
      <rect width="1190" height="1190" fill="none"/>
    </clipPath>
  </defs>
  <g id="Camada_1" data-name="Camada 1">
    <rect width="1190" height="1190" fill="#f2dac0"/>
    <g clip-path="url(#clippath)">
      <g>
        <path d="M914.1453,202.8331c-10.8136,28.7962-17.0637,62.7597-17.0637,99.1398s6.2502,70.3437,17.0637,99.1399l51.3082-18.8933c-8.9159-23.8173-13.9928-51.1604-13.9928-80.2466s5.0768-56.4293,13.9928-80.2465l-51.3082-18.8933Z" fill="#993920"/>
        <path d="M914.1453,4.4019c-10.8136,28.7962-17.0637,62.7597-17.0637,99.1398s6.2502,70.3437,17.0637,99.1399l51.3082-18.8933c-8.9159-23.8173-13.9928-51.1604-13.9928-80.2466s5.0768-56.4293,13.9928-80.2465l-51.3082-18.8933Z" fill="#993920"/>
        <path d="M914.1453-194.0292c-10.8136,28.7962-17.0637,62.7597-17.0637,99.1398s6.2502,70.3437,17.0637,99.1399l51.3082-18.8933c-8.9159-23.8173-13.9928-51.1604-13.9928-80.2466s5.0768-56.4293,13.9928-80.2465l-51.3082-18.8933Z" fill="#993920"/>
        <path d="M1021.9217,4.2504c10.8136-28.7962,17.0637-62.7597,17.0637-99.1398s-6.2502-70.3437-17.0637-99.1399l-51.3082,18.8933c8.9159,23.8173,13.9928,51.1604,13.9928,80.2466s-5.0768,56.4293-13.9928,80.2465l51.3082,18.8933Z" fill="#993920"/>
        <path d="M1021.9217,202.6816c10.8136-28.7962,17.0637-62.7597,17.0637-99.1398s-6.2502-70.3437-17.0637-99.1399l-51.3082,18.8933c8.9159,23.8173,13.9928,51.1604,13.9928,80.2466s-5.0768,56.4293-13.9928,80.2465l51.3082,18.8933Z" fill="#993920"/>
        <path d="M1021.9217,401.1128c10.8136-28.7962,17.0637-62.7597,17.0637-99.1398s-6.2502-70.3437-17.0637-99.1399l-51.3082,18.8933c8.9159,23.8173,13.9928,51.1604,13.9928,80.2466s-5.0768,56.4293-13.9928,80.2465l51.3082,18.8933Z" fill="#993920"/>
        <path d="M1062.8713,202.8331c-10.8136,28.7962-17.0637,62.7597-17.0637,99.1398s6.2502,70.3437,17.0637,99.1399l51.3082-18.8933c-8.9159-23.8173-13.9928-51.1604-13.9928-80.2466s5.0768-56.4293,13.9928-80.2465l-51.3082-18.8933Z" fill="#993920"/>
        <path d="M1062.2847,203.9634l-.3496-.9302c-11.2051-29.8403-17.1279-64.2437-17.1279-99.4917s5.9229-69.6509,17.1279-99.4912l.3496-.9302,53.1836,19.5845-.3525.9414c-9.1123,24.3408-13.9287,51.9683-13.9287,79.8955s4.8164,55.5547,13.9287,79.896l.3525.9414-53.1836,19.5845ZM1063.4605,5.6846c-10.8975,29.4019-16.6533,63.2124-16.6533,97.8569s5.7559,68.4556,16.6533,97.8574l49.4326-18.2026c-8.9688-24.3325-13.7061-51.8496-13.7061-79.6548s4.7373-55.3218,13.7061-79.6543l-49.4326-18.2026Z" fill="#993920"/>
        <path d="M1062.8713-194.0292c-10.8136,28.7962-17.0637,62.7597-17.0637,99.1398s6.2502,70.3437,17.0637,99.1399l51.3082-18.8933c-8.9159-23.8173-13.9928-51.1604-13.9928-80.2466s5.0768-56.4293,13.9928-80.2465l-51.3082-18.8933Z" fill="#993920"/>
        <path d="M1170.6477,4.2504c10.8136-28.7962,17.0637-62.7597,17.0637-99.1398s-6.2502-70.3437-17.0637-99.1399l-51.3082,18.8933c8.9159,23.8173,13.9928,51.1604,13.9928,80.2466s-5.0768,56.4293-13.9928,80.2465l51.3082,18.8933Z" fill="#993920"/>
        <path d="M1170.6477,202.6816c10.8136-28.7962,17.0637-62.7597,17.0637-99.1398s-6.2502-70.3437-17.0637-99.1399l-51.3082,18.8933c8.9159,23.8173,13.9928,51.1604,13.9928,80.2466s-5.0768,56.4293-13.9928,80.2465l51.3082,18.8933Z" fill="#993920"/>
        <path d="M1171.2349,402.3945l-53.1846-19.584.3525-.9414c9.1133-24.3433,13.9297-51.9707,13.9297-79.896s-4.8164-55.5532-13.9297-79.896l-.3525-.9414,53.1846-19.5845.3496.9302c11.2041,29.8384,17.127,64.2422,17.127,99.4917s-5.9229,69.6528-17.127,99.4912l-.3496.9302ZM1120.6255,381.6279l49.4336,18.2021c10.8965-29.4004,16.6523-63.2104,16.6523-97.8569s-5.7559-68.457-16.6523-97.8574l-49.4336,18.2026c8.9697,24.334,13.707,51.8516,13.707,79.6548s-4.7373,55.3203-13.707,79.6548Z" fill="#993920"/>
        <path d="M914.1453,798.1087c-10.8136,28.7962-17.0637,62.7597-17.0637,99.1398s6.2502,70.3437,17.0637,99.1399l51.3082-18.8933c-8.9159-23.8173-13.9928-51.1604-13.9928-80.2466s5.0768-56.4293,13.9928-80.2465l-51.3082-18.8933Z" fill="#993920"/>
        <path d="M914.1453,599.6775c-10.8136,28.7962-17.0637,62.7597-17.0637,99.1398s6.2502,70.3437,17.0637,99.1399l51.3082-18.8933c-8.9159-23.8173-13.9928-51.1604-13.9928-80.2466s5.0768-56.4293,13.9928-80.2465l-51.3082-18.8933Z" fill="#993920"/>
        <path d="M914.1453,401.2463c-10.8136,28.7962-17.0637,62.7597-17.0637,99.1398s6.2502,70.3437,17.0637,99.1399l51.3082-18.8933c-8.9159-23.8173-13.9928-51.1604-13.9928-80.2466s5.0768-56.4293,13.9928-80.2465l-51.3082-18.8933Z" fill="#993920"/>
        <path d="M914.1453,202.8152c-10.8136,28.7962-17.0637,62.7597-17.0637,99.1398s6.2502,70.3437,17.0637,99.1399l51.3082-18.8933c-8.9159-23.8173-13.9928-51.1604-13.9928-80.2466s5.0768-56.4293,13.9928-80.2465l-51.3082-18.8933Z" fill="#993920"/>
        <path d="M1021.9217,401.0948c10.8136-28.7962,17.0637-62.7597,17.0637-99.1398s-6.2502-70.3437-17.0637-99.1399l-51.3082,18.8933c8.9159,23.8173,13.9928,51.1604,13.9928,80.2466s-5.0768,56.4293-13.9928,80.2465l51.3082,18.8933Z" fill="#993920"/>
        <path d="M1021.9217,599.526c10.8136-28.7962,17.0637-62.7597,17.0637-99.1398s-6.2502-70.3437-17.0637-99.1399l-51.3082,18.8933c8.9159,23.8173,13.9928,51.1604,13.9928,80.2466s-5.0768,56.4293-13.9928,80.2465l51.3082,18.8933Z" fill="#993920"/>
        <path d="M1021.9217,797.9572c10.8136-28.7962,17.0637-62.7597,17.0637-99.1398s-6.2502-70.3437-17.0637-99.1399l-51.3082,18.8933c8.9159,23.8173,13.9928,51.1604,13.9928,80.2466s-5.0768,56.4293-13.9928,80.2465l51.3082,18.8933Z" fill="#993920"/>
        <path d="M1021.9217,996.3884c10.8136-28.7962,17.0637-62.7597,17.0637-99.1398s-6.2502-70.3437-17.0637-99.1399l-51.3082,18.8933c8.9159,23.8173,13.9928,51.1604,13.9928,80.2466s-5.0768,56.4293-13.9928,80.2465l51.3082,18.8933Z" fill="#993920"/>
        <path d="M1062.8713,798.1087c-10.8136,28.7962-17.0637,62.7597-17.0637,99.1398s6.2502,70.3437,17.0637,99.1399l51.3082-18.8933c-8.9159-23.8173-13.9928-51.1604-13.9928-80.2466s5.0768-56.4293,13.9928-80.2465l-51.3082-18.8933Z" fill="#993920"/>
        <path d="M1062.2847,799.2398l-.3496-.9307c-11.2051-29.8408-17.1279-64.2441-17.1279-99.4922s5.9229-69.6504,17.1279-99.4912l.3496-.9307,53.1836,19.585-.3525.9414c-9.1123,24.3418-13.9287,51.9688-13.9287,79.8955s4.8164,55.5547,13.9287,79.8965l.3525.9414-53.1836,19.585ZM1063.4605,600.9595c-10.8975,29.4023-16.6533,63.2129-16.6533,97.8574s5.7559,68.4561,16.6533,97.8584l49.4326-18.2031c-8.9688-24.333-13.7061-51.8506-13.7061-79.6553s4.7373-55.3213,13.7061-79.6543l-49.4326-18.2031Z" fill="#993920"/>
        <path d="M1062.8713,401.2463c-10.8136,28.7962-17.0637,62.7597-17.0637,99.1398s6.2502,70.3437,17.0637,99.1399l51.3082-18.8933c-8.9159-23.8173-13.9928-51.1604-13.9928-80.2466s5.0768-56.4293,13.9928-80.2465l-51.3082-18.8933Z" fill="#993920"/>
        <path d="M1062.8713,202.8152c-10.8136,28.7962-17.0637,62.7597-17.0637,99.1398s6.2502,70.3437,17.0637,99.1399l51.3082-18.8933c-8.9159-23.8173-13.9928-51.1604-13.9928-80.2466s5.0768-56.4293,13.9928-80.2465l-51.3082-18.8933Z" fill="#993920"/>
        <path d="M1171.2349,402.3765l-53.1846-19.584.3525-.9414c9.1133-24.3433,13.9297-51.9707,13.9297-79.896s-4.8164-55.5527-13.9297-79.896l-.3525-.9414,53.1846-19.5845.3496.9302c11.2041,29.8384,17.127,64.2422,17.127,99.4917s-5.9229,69.6533-17.127,99.4912l-.3496.9302ZM1120.6255,381.6099l49.4336,18.2021c10.8965-29.3999,16.6523-63.21,16.6523-97.8569s-5.7559-68.457-16.6523-97.8574l-49.4336,18.2026c8.9697,24.3345,13.707,51.8521,13.707,79.6548s-4.7373,55.3203-13.707,79.6548Z" fill="#993920"/>
        <path d="M1170.6477,599.526c10.8136-28.7962,17.0637-62.7597,17.0637-99.1398s-6.2502-70.3437-17.0637-99.1399l-51.3082,18.8933c8.9159,23.8173,13.9928,51.1604,13.9928,80.2466s-5.0768,56.4293-13.9928,80.2465l51.3082,18.8933Z" fill="#993920"/>
        <path d="M1170.6477,797.9572c10.8136-28.7962,17.0637-62.7597,17.0637-99.1398s-6.2502-70.3437-17.0637-99.1399l-51.3082,18.8933c8.9159,23.8173,13.9928,51.1604,13.9928,80.2466s-5.0768,56.4293-13.9928,80.2465l51.3082,18.8933Z" fill="#993920"/>
        <path d="M1171.2349,997.6704l-53.1846-19.585.3525-.9414c9.1133-24.3428,13.9297-51.9697,13.9297-79.8955s-4.8164-55.5527-13.9297-79.8965l-.3525-.9414,53.1846-19.584.3496.9307c11.2041,29.8379,17.127,64.2412,17.127,99.4912s-5.9229,69.6533-17.127,99.4912l-.3496.9307ZM1120.6265,976.9028l49.4326,18.2031c10.8965-29.4004,16.6523-63.2109,16.6523-97.8574s-5.7559-68.457-16.6523-97.8574l-49.4336,18.2021c8.9697,24.335,13.707,51.8525,13.707,79.6553s-4.7373,55.3203-13.7061,79.6543Z" fill="#993920"/>
        <path d="M914.1453,996.5219c-10.8136,28.7962-17.0637,62.7597-17.0637,99.1398s6.2502,70.3437,17.0637,99.1399l51.3082-18.8933c-8.9159-23.8173-13.9928-51.1604-13.9928-80.2466s5.0768-56.4293,13.9928-80.2465l-51.3082-18.8933Z" fill="#993920"/>
        <path d="M914.1453,798.0908c-10.8136,28.7962-17.0637,62.7597-17.0637,99.1398s6.2502,70.3437,17.0637,99.1399l51.3082-18.8933c-8.9159-23.8173-13.9928-51.1604-13.9928-80.2466s5.0768-56.4293,13.9928-80.2465l-51.3082-18.8933Z" fill="#993920"/>
        <path d="M1021.9217,996.3704c10.8136-28.7962,17.0637-62.7597,17.0637-99.1398s-6.2502-70.3437-17.0637-99.1399l-51.3082,18.8933c8.9159,23.8173,13.9928,51.1604,13.9928,80.2466s-5.0768,56.4293-13.9928,80.2465l51.3082,18.8933Z" fill="#993920"/>
        <path d="M1021.9217,1194.8016c10.8136-28.7962,17.0637-62.7597,17.0637-99.1398s-6.2502-70.3437-17.0637-99.1399l-51.3082,18.8933c8.9159,23.8173,13.9928,51.1604,13.9928,80.2466s-5.0768,56.4293-13.9928,80.2465l51.3082,18.8933Z" fill="#993920"/>
        <path d="M1062.8713,996.5219c-10.8136,28.7962-17.0637,62.7597-17.0637,99.1398s6.2502,70.3437,17.0637,99.1399l51.3082-18.8933c-8.9159-23.8173-13.9928-51.1604-13.9928-80.2466s5.0768-56.4293,13.9928-80.2465l-51.3082-18.8933Z" fill="#993920"/>
        <path d="M1062.8713,798.0908c-10.8136,28.7962-17.0637,62.7597-17.0637,99.1398s6.2502,70.3437,17.0637,99.1399l51.3082-18.8933c-8.9159-23.8173-13.9928-51.1604-13.9928-80.2466s5.0768-56.4293,13.9928-80.2465l-51.3082-18.8933Z" fill="#993920"/>
        <path d="M1171.2349,997.6528l-53.1846-19.585.3525-.9414c9.1133-24.3438,13.9297-51.9707,13.9297-79.8955s-4.8164-55.5527-13.9297-79.8965l-.3525-.9414,53.1846-19.584.3496.9297c11.2041,29.8389,17.127,64.2432,17.127,99.4922s-5.9229,69.6523-17.127,99.4912l-.3496.9307ZM1120.6255,976.8853l49.4336,18.2031c10.8965-29.4014,16.6523-63.2119,16.6523-97.8574s-5.7559-68.457-16.6523-97.8584l-49.4336,18.2031c8.9697,24.335,13.707,51.8525,13.707,79.6553s-4.7373,55.3193-13.707,79.6543Z" fill="#993920"/>
        <path d="M1170.6477,1194.8016c10.8136-28.7962,17.0637-62.7597,17.0637-99.1398s-6.2502-70.3437-17.0637-99.1399l-51.3082,18.8933c8.9159,23.8173,13.9928,51.1604,13.9928,80.2466s-5.0768,56.4293-13.9928,80.2465l51.3082,18.8933Z" fill="#993920"/>
        <path d="M318.8697,202.8331c-10.8136,28.7962-17.0637,62.7597-17.0637,99.1398s6.2502,70.3437,17.0637,99.1399l51.3082-18.8933c-8.9159-23.8173-13.9928-51.1604-13.9928-80.2466s5.0768-56.4293,13.9928-80.2465l-51.3082-18.8933Z" fill="#993920"/>
        <path d="M318.8697,4.4019c-10.8136,28.7962-17.0637,62.7597-17.0637,99.1398s6.2502,70.3437,17.0637,99.1399l51.3082-18.8933c-8.9159-23.8173-13.9928-51.1604-13.9928-80.2466s5.0768-56.4293,13.9928-80.2465l-51.3082-18.8933Z" fill="#993920"/>
        <path d="M318.8697-194.0292c-10.8136,28.7962-17.0637,62.7597-17.0637,99.1398s6.2502,70.3437,17.0637,99.1399l51.3082-18.8933c-8.9159-23.8173-13.9928-51.1604-13.9928-80.2466s5.0768-56.4293,13.9928-80.2465l-51.3082-18.8933Z" fill="#993920"/>
        <path d="M426.6461,4.2504c10.8136-28.7962,17.0637-62.7597,17.0637-99.1398s-6.2502-70.3437-17.0637-99.1399l-51.3082,18.8933c8.9159,23.8173,13.9928,51.1604,13.9928,80.2466s-5.0768,56.4293-13.9928,80.2465l51.3082,18.8933Z" fill="#993920"/>
        <path d="M426.6461,202.6816c10.8136-28.7962,17.0637-62.7597,17.0637-99.1398s-6.2502-70.3437-17.0637-99.1399l-51.3082,18.8933c8.9159,23.8173,13.9928,51.1604,13.9928,80.2466s-5.0768,56.4293-13.9928,80.2465l51.3082,18.8933Z" fill="#993920"/>
        <path d="M426.6461,401.1128c10.8136-28.7962,17.0637-62.7597,17.0637-99.1398s-6.2502-70.3437-17.0637-99.1399l-51.3082,18.8933c8.9159,23.8173,13.9928,51.1604,13.9928,80.2466s-5.0768,56.4293-13.9928,80.2465l51.3082,18.8933Z" fill="#993920"/>
        <path d="M467.5957,202.8331c-10.8136,28.7962-17.0637,62.7597-17.0637,99.1398s6.2502,70.3437,17.0637,99.1399l51.3082-18.8933c-8.9159-23.8173-13.9928-51.1604-13.9928-80.2466s5.0768-56.4293,13.9928-80.2465l-51.3082-18.8933Z" fill="#993920"/>
        <path d="M467.0088,203.9634l-.3491-.9302c-11.2051-29.8394-17.1279-64.2432-17.1279-99.4917s5.9229-69.6519,17.1279-99.4912l.3491-.9302,53.1841,19.5845-.3525.9414c-9.1128,24.3418-13.9292,51.9692-13.9292,79.8955s4.8164,55.5542,13.9292,79.896l.3525.9414-53.1841,19.5845ZM468.1846,5.6846c-10.897,29.4009-16.6528,63.2114-16.6528,97.8569s5.7559,68.4565,16.6528,97.8574l49.4326-18.2026c-8.9692-24.3335-13.7061-51.8506-13.7061-79.6548s4.7368-55.3208,13.7061-79.6543l-49.4326-18.2026Z" fill="#993920"/>
        <path d="M467.5957-194.0292c-10.8136,28.7962-17.0637,62.7597-17.0637,99.1398s6.2502,70.3437,17.0637,99.1399l51.3082-18.8933c-8.9159-23.8173-13.9928-51.1604-13.9928-80.2466s5.0768-56.4293,13.9928-80.2465l-51.3082-18.8933Z" fill="#993920"/>
        <path d="M575.3721,4.2504c10.8136-28.7962,17.0637-62.7597,17.0637-99.1398s-6.2502-70.3437-17.0637-99.1399l-51.3082,18.8933c8.9159,23.8173,13.9928,51.1604,13.9928,80.2466s-5.0768,56.4293-13.9928,80.2465l51.3082,18.8933Z" fill="#993920"/>
        <path d="M575.3721,202.6816c10.8136-28.7962,17.0637-62.7597,17.0637-99.1398s-6.2502-70.3437-17.0637-99.1399l-51.3082,18.8933c8.9159,23.8173,13.9928,51.1604,13.9928,80.2466s-5.0768,56.4293-13.9928,80.2465l51.3082,18.8933Z" fill="#993920"/>
        <path d="M575.959,402.3945l-53.1841-19.584.3525-.9414c9.1128-24.3423,13.9292-51.9702,13.9292-79.896s-4.8164-55.5542-13.9292-79.896l-.3525-.9414,53.1841-19.5845.3491.9302c11.2051,29.8394,17.1279,64.2432,17.1279,99.4917s-5.9229,69.6519-17.1279,99.4912l-.3491.9302ZM525.3506,381.6279l49.4326,18.2021c10.897-29.4009,16.6528-63.2114,16.6528-97.8569s-5.7559-68.4565-16.6528-97.8574l-49.4326,18.2026c8.9692,24.3335,13.7061,51.8506,13.7061,79.6548s-4.7368,55.3208-13.7061,79.6548Z" fill="#993920"/>
        <path d="M615.5744,202.8331c-10.8136,28.7962-17.0637,62.7597-17.0637,99.1398s6.2502,70.3437,17.0637,99.1399l51.3082-18.8933c-8.9159-23.8173-13.9928-51.1604-13.9928-80.2466s5.0768-56.4293,13.9928-80.2465l-51.3082-18.8933Z" fill="#993920"/>
        <path d="M615.5744,4.4019c-10.8136,28.7962-17.0637,62.7597-17.0637,99.1398s6.2502,70.3437,17.0637,99.1399l51.3082-18.8933c-8.9159-23.8173-13.9928-51.1604-13.9928-80.2466s5.0768-56.4293,13.9928-80.2465l-51.3082-18.8933Z" fill="#993920"/>
        <path d="M615.5744-194.0292c-10.8136,28.7962-17.0637,62.7597-17.0637,99.1398s6.2502,70.3437,17.0637,99.1399l51.3082-18.8933c-8.9159-23.8173-13.9928-51.1604-13.9928-80.2466s5.0768-56.4293,13.9928-80.2465l-51.3082-18.8933Z" fill="#993920"/>
        <path d="M723.938,5.5322l-53.1846-19.5845.3525-.9414c9.1133-24.3428,13.9297-51.9702,13.9297-79.8955s-4.8164-55.5532-13.9297-79.8965l-.3525-.9414,53.1846-19.584.3496.9302c11.2041,29.8384,17.127,64.2422,17.127,99.4917s-5.9229,69.6528-17.127,99.4912l-.3496.9302ZM673.3286-15.2348l49.4336,18.2026c10.8965-29.4004,16.6523-63.2104,16.6523-97.8569s-5.7559-68.457-16.6523-97.8574l-49.4336,18.2021c8.9697,24.3345,13.707,51.8521,13.707,79.6553s-4.7373,55.3203-13.707,79.6543Z" fill="#993920"/>
        <path d="M723.3508,202.6816c10.8136-28.7962,17.0637-62.7597,17.0637-99.1398s-6.2502-70.3437-17.0637-99.1399l-51.3082,18.8933c8.9159,23.8173,13.9928,51.1604,13.9928,80.2466s-5.0768,56.4293-13.9928,80.2465l51.3082,18.8933Z" fill="#993920"/>
        <path d="M723.3508,401.1128c10.8136-28.7962,17.0637-62.7597,17.0637-99.1398s-6.2502-70.3437-17.0637-99.1399l-51.3082,18.8933c8.9159,23.8173,13.9928,51.1604,13.9928,80.2466s-5.0768,56.4293-13.9928,80.2465l51.3082,18.8933Z" fill="#993920"/>
        <path d="M764.8723,202.8331c-10.8136,28.7962-17.0637,62.7597-17.0637,99.1398s6.2502,70.3437,17.0637,99.1399l51.3082-18.8933c-8.9159-23.8173-13.9928-51.1604-13.9928-80.2466s5.0768-56.4293,13.9928-80.2465l-51.3082-18.8933Z" fill="#993920"/>
        <path d="M764.8723,4.4019c-10.8136,28.7962-17.0637,62.7597-17.0637,99.1398s6.2502,70.3437,17.0637,99.1399l51.3082-18.8933c-8.9159-23.8173-13.9928-51.1604-13.9928-80.2466s5.0768-56.4293,13.9928-80.2465l-51.3082-18.8933Z" fill="#993920"/>
        <path d="M764.8723-194.0292c-10.8136,28.7962-17.0637,62.7597-17.0637,99.1398s6.2502,70.3437,17.0637,99.1399l51.3082-18.8933c-8.9159-23.8173-13.9928-51.1604-13.9928-80.2466s5.0768-56.4293,13.9928-80.2465l-51.3082-18.8933Z" fill="#993920"/>
        <path d="M872.6487,4.2504c10.8136-28.7962,17.0637-62.7597,17.0637-99.1398s-6.2502-70.3437-17.0637-99.1399l-51.3082,18.8933c8.9159,23.8173,13.9928,51.1604,13.9928,80.2466s-5.0768,56.4293-13.9928,80.2465l51.3082,18.8933Z" fill="#993920"/>
        <path d="M872.6487,202.6816c10.8136-28.7962,17.0637-62.7597,17.0637-99.1398s-6.2502-70.3437-17.0637-99.1399l-51.3082,18.8933c8.9159,23.8173,13.9928,51.1604,13.9928,80.2466s-5.0768,56.4293-13.9928,80.2465l51.3082,18.8933Z" fill="#993920"/>
        <path d="M873.2358,402.3945l-53.1846-19.584.3525-.9414c9.1133-24.3433,13.9297-51.9707,13.9297-79.896s-4.8164-55.5532-13.9297-79.896l-.3525-.9414,53.1846-19.5845.3496.9302c11.2041,29.8384,17.127,64.2422,17.127,99.4917s-5.9229,69.6528-17.127,99.4912l-.3496.9302ZM822.6265,381.6279l49.4336,18.2026c10.8965-29.4009,16.6523-63.2109,16.6523-97.8574s-5.7559-68.457-16.6523-97.8574l-49.4336,18.2026c8.9697,24.334,13.707,51.8516,13.707,79.6548s-4.7373,55.3203-13.707,79.6548Z" fill="#993920"/>
        <path d="M318.8697,798.1087c-10.8136,28.7962-17.0637,62.7597-17.0637,99.1398s6.2502,70.3437,17.0637,99.1399l51.3082-18.8933c-8.9159-23.8173-13.9928-51.1604-13.9928-80.2466s5.0768-56.4293,13.9928-80.2465l-51.3082-18.8933Z" fill="#993920"/>
        <path d="M318.8697,599.6775c-10.8136,28.7962-17.0637,62.7597-17.0637,99.1398s6.2502,70.3437,17.0637,99.1399l51.3082-18.8933c-8.9159-23.8173-13.9928-51.1604-13.9928-80.2466s5.0768-56.4293,13.9928-80.2465l-51.3082-18.8933Z" fill="#993920"/>
        <path d="M318.8697,401.2463c-10.8136,28.7962-17.0637,62.7597-17.0637,99.1398s6.2502,70.3437,17.0637,99.1399l51.3082-18.8933c-8.9159-23.8173-13.9928-51.1604-13.9928-80.2466s5.0768-56.4293,13.9928-80.2465l-51.3082-18.8933Z" fill="#993920"/>
        <path d="M318.8697,202.8152c-10.8136,28.7962-17.0637,62.7597-17.0637,99.1398s6.2502,70.3437,17.0637,99.1399l51.3082-18.8933c-8.9159-23.8173-13.9928-51.1604-13.9928-80.2466s5.0768-56.4293,13.9928-80.2465l-51.3082-18.8933Z" fill="#993920"/>
        <path d="M426.6461,401.0948c10.8136-28.7962,17.0637-62.7597,17.0637-99.1398s-6.2502-70.3437-17.0637-99.1399l-51.3082,18.8933c8.9159,23.8173,13.9928,51.1604,13.9928,80.2466s-5.0768,56.4293-13.9928,80.2465l51.3082,18.8933Z" fill="#993920"/>
        <path d="M426.6461,599.526c10.8136-28.7962,17.0637-62.7597,17.0637-99.1398s-6.2502-70.3437-17.0637-99.1399l-51.3082,18.8933c8.9159,23.8173,13.9928,51.1604,13.9928,80.2466s-5.0768,56.4293-13.9928,80.2465l51.3082,18.8933Z" fill="#993920"/>
        <path d="M426.6461,797.9572c10.8136-28.7962,17.0637-62.7597,17.0637-99.1398s-6.2502-70.3437-17.0637-99.1399l-51.3082,18.8933c8.9159,23.8173,13.9928,51.1604,13.9928,80.2466s-5.0768,56.4293-13.9928,80.2465l51.3082,18.8933Z" fill="#993920"/>
        <path d="M426.6461,996.3884c10.8136-28.7962,17.0637-62.7597,17.0637-99.1398s-6.2502-70.3437-17.0637-99.1399l-51.3082,18.8933c8.9159,23.8173,13.9928,51.1604,13.9928,80.2466s-5.0768,56.4293-13.9928,80.2465l51.3082,18.8933Z" fill="#993920"/>
        <path d="M467.5957,798.1087c-10.8136,28.7962-17.0637,62.7597-17.0637,99.1398s6.2502,70.3437,17.0637,99.1399l51.3082-18.8933c-8.9159-23.8173-13.9928-51.1604-13.9928-80.2466s5.0768-56.4293,13.9928-80.2465l-51.3082-18.8933Z" fill="#993920"/>
        <path d="M467.0088,799.2398l-.3491-.9307c-11.2051-29.8398-17.1279-64.2432-17.1279-99.4922s5.9229-69.6514,17.1279-99.4912l.3491-.9307,53.1841,19.585-.3525.9414c-9.1128,24.3428-13.9292,51.9697-13.9292,79.8955s4.8164,55.5537,13.9292,79.8965l.3525.9414-53.1841,19.585ZM468.1846,600.9595c-10.897,29.4023-16.6528,63.2129-16.6528,97.8574s5.7559,68.4561,16.6528,97.8584l49.4326-18.2031c-8.9692-24.334-13.7061-51.8516-13.7061-79.6553s4.7368-55.3203,13.7061-79.6543l-49.4326-18.2031Z" fill="#993920"/>
        <path d="M467.5957,401.2463c-10.8136,28.7962-17.0637,62.7597-17.0637,99.1398s6.2502,70.3437,17.0637,99.1399l51.3082-18.8933c-8.9159-23.8173-13.9928-51.1604-13.9928-80.2466s5.0768-56.4293,13.9928-80.2465l-51.3082-18.8933Z" fill="#993920"/>
        <path d="M467.5957,202.8152c-10.8136,28.7962-17.0637,62.7597-17.0637,99.1398s6.2502,70.3437,17.0637,99.1399l51.3082-18.8933c-8.9159-23.8173-13.9928-51.1604-13.9928-80.2466s5.0768-56.4293,13.9928-80.2465l-51.3082-18.8933Z" fill="#993920"/>
        <path d="M575.959,402.3765l-53.1841-19.584.3525-.9414c9.1128-24.3423,13.9292-51.9702,13.9292-79.896s-4.8164-55.5537-13.9292-79.896l-.3525-.9414,53.1841-19.5845.3491.9302c11.2051,29.8394,17.1279,64.2432,17.1279,99.4917s-5.9229,69.6523-17.1279,99.4912l-.3491.9302ZM525.3506,381.6099l49.4326,18.2021c10.897-29.4004,16.6528-63.2109,16.6528-97.8569s-5.7559-68.4565-16.6528-97.8574l-49.4326,18.2026c8.9692,24.334,13.7061,51.8511,13.7061,79.6548s-4.7368,55.3208-13.7061,79.6548Z" fill="#993920"/>
        <path d="M575.3721,599.526c10.8136-28.7962,17.0637-62.7597,17.0637-99.1398s-6.2502-70.3437-17.0637-99.1399l-51.3082,18.8933c8.9159,23.8173,13.9928,51.1604,13.9928,80.2466s-5.0768,56.4293-13.9928,80.2465l51.3082,18.8933Z" fill="#993920"/>
        <path d="M575.3721,797.9572c10.8136-28.7962,17.0637-62.7597,17.0637-99.1398s-6.2502-70.3437-17.0637-99.1399l-51.3082,18.8933c8.9159,23.8173,13.9928,51.1604,13.9928,80.2466s-5.0768,56.4293-13.9928,80.2465l51.3082,18.8933Z" fill="#993920"/>
        <path d="M575.959,997.6704l-53.1841-19.585.3525-.9414c9.1128-24.3418,13.9292-51.9688,13.9292-79.8955s-4.8164-55.5537-13.9292-79.8965l-.3525-.9414,53.1841-19.584.3491.9307c11.2051,29.8389,17.1279,64.2422,17.1279,99.4912s-5.9229,69.6523-17.1279,99.4912l-.3491.9307ZM525.3506,976.9028l49.4326,18.2031c10.897-29.4014,16.6528-63.2119,16.6528-97.8574s-5.7559-68.4561-16.6528-97.8574l-49.4326,18.2021c8.9692,24.334,13.7061,51.8516,13.7061,79.6553s-4.7368,55.3213-13.7061,79.6543Z" fill="#993920"/>
        <path d="M615.5744,798.1087c-10.8136,28.7962-17.0637,62.7597-17.0637,99.1398s6.2502,70.3437,17.0637,99.1399l51.3082-18.8933c-8.9159-23.8173-13.9928-51.1604-13.9928-80.2466s5.0768-56.4293,13.9928-80.2465l-51.3082-18.8933Z" fill="#993920"/>
        <path d="M615.5744,599.6775c-10.8136,28.7962-17.0637,62.7597-17.0637,99.1398s6.2502,70.3437,17.0637,99.1399l51.3082-18.8933c-8.9159-23.8173-13.9928-51.1604-13.9928-80.2466s5.0768-56.4293,13.9928-80.2465l-51.3082-18.8933Z" fill="#993920"/>
        <path d="M615.5744,401.2463c-10.8136,28.7962-17.0637,62.7597-17.0637,99.1398s6.2502,70.3437,17.0637,99.1399l51.3082-18.8933c-8.9159-23.8173-13.9928-51.1604-13.9928-80.2466s5.0768-56.4293,13.9928-80.2465l-51.3082-18.8933Z" fill="#993920"/>
        <path d="M615.5744,202.8152c-10.8136,28.7962-17.0637,62.7597-17.0637,99.1398s6.2502,70.3437,17.0637,99.1399l51.3082-18.8933c-8.9159-23.8173-13.9928-51.1604-13.9928-80.2466s5.0768-56.4293,13.9928-80.2465l-51.3082-18.8933Z" fill="#993920"/>
        <path d="M723.3508,401.0948c10.8136-28.7962,17.0637-62.7597,17.0637-99.1398s-6.2502-70.3437-17.0637-99.1399l-51.3082,18.8933c8.9159,23.8173,13.9928,51.1604,13.9928,80.2466s-5.0768,56.4293-13.9928,80.2465l51.3082,18.8933Z" fill="#993920"/>
        <path d="M723.938,600.8081l-53.1846-19.5845.3525-.9414c9.1133-24.3433,13.9297-51.9707,13.9297-79.896s-4.8164-55.5527-13.9297-79.896l-.3525-.9414,53.1846-19.5845.3496.9302c11.2041,29.8384,17.127,64.2422,17.127,99.4917s-5.9229,69.6533-17.127,99.4912l-.3496.9307ZM673.3286,580.041l49.4336,18.2026c10.8965-29.3999,16.6523-63.2104,16.6523-97.8574s-5.7559-68.457-16.6523-97.8574l-49.4336,18.2026c8.9697,24.3345,13.707,51.8521,13.707,79.6548s-4.7373,55.3203-13.707,79.6548Z" fill="#993920"/>
        <path d="M723.3508,797.9572c10.8136-28.7962,17.0637-62.7597,17.0637-99.1398s-6.2502-70.3437-17.0637-99.1399l-51.3082,18.8933c8.9159,23.8173,13.9928,51.1604,13.9928,80.2466s-5.0768,56.4293-13.9928,80.2465l51.3082,18.8933Z" fill="#993920"/>
        <path d="M723.3508,996.3884c10.8136-28.7962,17.0637-62.7597,17.0637-99.1398s-6.2502-70.3437-17.0637-99.1399l-51.3082,18.8933c8.9159,23.8173,13.9928,51.1604,13.9928,80.2466s-5.0768,56.4293-13.9928,80.2465l51.3082,18.8933Z" fill="#993920"/>
        <path d="M764.8723,798.1087c-10.8136,28.7962-17.0637,62.7597-17.0637,99.1398s6.2502,70.3437,17.0637,99.1399l51.3082-18.8933c-8.9159-23.8173-13.9928-51.1604-13.9928-80.2466s5.0768-56.4293,13.9928-80.2465l-51.3082-18.8933Z" fill="#993920"/>
        <path d="M764.8723,599.6775c-10.8136,28.7962-17.0637,62.7597-17.0637,99.1398s6.2502,70.3437,17.0637,99.1399l51.3082-18.8933c-8.9159-23.8173-13.9928-51.1604-13.9928-80.2466s5.0768-56.4293,13.9928-80.2465l-51.3082-18.8933Z" fill="#993920"/>
        <path d="M764.8723,401.2463c-10.8136,28.7962-17.0637,62.7597-17.0637,99.1398s6.2502,70.3437,17.0637,99.1399l51.3082-18.8933c-8.9159-23.8173-13.9928-51.1604-13.9928-80.2466s5.0768-56.4293,13.9928-80.2465l-51.3082-18.8933Z" fill="#993920"/>
        <path d="M764.8723,202.8152c-10.8136,28.7962-17.0637,62.7597-17.0637,99.1398s6.2502,70.3437,17.0637,99.1399l51.3082-18.8933c-8.9159-23.8173-13.9928-51.1604-13.9928-80.2466s5.0768-56.4293,13.9928-80.2465l-51.3082-18.8933Z" fill="#993920"/>
        <path d="M873.2358,402.3765l-53.1846-19.584.3525-.9414c9.1133-24.3433,13.9297-51.9707,13.9297-79.896s-4.8164-55.5527-13.9297-79.896l-.3525-.9414,53.1846-19.5845.3496.9302c11.2041,29.8384,17.127,64.2422,17.127,99.4917s-5.9229,69.6533-17.127,99.4912l-.3496.9302ZM822.6265,381.6099l49.4336,18.2021c10.8965-29.3999,16.6523-63.21,16.6523-97.8569s-5.7559-68.457-16.6523-97.8574l-49.4336,18.2026c8.9697,24.3345,13.707,51.8521,13.707,79.6548s-4.7373,55.3203-13.707,79.6548Z" fill="#993920"/>
        <path d="M872.6487,599.526c10.8136-28.7962,17.0637-62.7597,17.0637-99.1398s-6.2502-70.3437-17.0637-99.1399l-51.3082,18.8933c8.9159,23.8173,13.9928,51.1604,13.9928,80.2466s-5.0768,56.4293-13.9928,80.2465l51.3082,18.8933Z" fill="#993920"/>
        <path d="M872.6487,797.9572c10.8136-28.7962,17.0637-62.7597,17.0637-99.1398s-6.2502-70.3437-17.0637-99.1399l-51.3082,18.8933c8.9159,23.8173,13.9928,51.1604,13.9928,80.2466s-5.0768,56.4293-13.9928,80.2465l51.3082,18.8933Z" fill="#993920"/>
        <path d="M873.2358,997.6704l-53.1846-19.585.3525-.9414c9.1133-24.3428,13.9297-51.9697,13.9297-79.8955s-4.8164-55.5527-13.9297-79.8965l-.3525-.9414,53.1846-19.584.3496.9307c11.2041,29.8379,17.127,64.2412,17.127,99.4912s-5.9229,69.6533-17.127,99.4912l-.3496.9307ZM822.6265,976.9028l49.4336,18.2031c10.8965-29.4004,16.6523-63.2109,16.6523-97.8574s-5.7559-68.457-16.6523-97.8574l-49.4336,18.2021c8.9697,24.335,13.707,51.8525,13.707,79.6553s-4.7373,55.3203-13.707,79.6543Z" fill="#993920"/>
        <path d="M318.8697,996.5219c-10.8136,28.7962-17.0637,62.7597-17.0637,99.1398s6.2502,70.3437,17.0637,99.1399l51.3082-18.8933c-8.9159-23.8173-13.9928-51.1604-13.9928-80.2466s5.0768-56.4293,13.9928-80.2465l-51.3082-18.8933Z" fill="#993920"/>
        <path d="M318.8697,798.0908c-10.8136,28.7962-17.0637,62.7597-17.0637,99.1398s6.2502,70.3437,17.0637,99.1399l51.3082-18.8933c-8.9159-23.8173-13.9928-51.1604-13.9928-80.2466s5.0768-56.4293,13.9928-80.2465l-51.3082-18.8933Z" fill="#993920"/>
        <path d="M426.6461,996.3704c10.8136-28.7962,17.0637-62.7597,17.0637-99.1398s-6.2502-70.3437-17.0637-99.1399l-51.3082,18.8933c8.9159,23.8173,13.9928,51.1604,13.9928,80.2466s-5.0768,56.4293-13.9928,80.2465l51.3082,18.8933Z" fill="#993920"/>
        <path d="M426.6461,1194.8016c10.8136-28.7962,17.0637-62.7597,17.0637-99.1398s-6.2502-70.3437-17.0637-99.1399l-51.3082,18.8933c8.9159,23.8173,13.9928,51.1604,13.9928,80.2466s-5.0768,56.4293-13.9928,80.2465l51.3082,18.8933Z" fill="#993920"/>
        <path d="M467.5957,996.5219c-10.8136,28.7962-17.0637,62.7597-17.0637,99.1398s6.2502,70.3437,17.0637,99.1399l51.3082-18.8933c-8.9159-23.8173-13.9928-51.1604-13.9928-80.2466s5.0768-56.4293,13.9928-80.2465l-51.3082-18.8933Z" fill="#993920"/>
        <path d="M467.5957,798.0908c-10.8136,28.7962-17.0637,62.7597-17.0637,99.1398s6.2502,70.3437,17.0637,99.1399l51.3082-18.8933c-8.9159-23.8173-13.9928-51.1604-13.9928-80.2466s5.0768-56.4293,13.9928-80.2465l-51.3082-18.8933Z" fill="#993920"/>
        <path d="M575.959,997.6528l-53.1841-19.585.3525-.9414c9.1128-24.3428,13.9292-51.9697,13.9292-79.8955s-4.8164-55.5537-13.9292-79.8965l-.3525-.9414,53.1841-19.585.3491.9307c11.2051,29.8398,17.1279,64.2432,17.1279,99.4922s-5.9229,69.6514-17.1279,99.4912l-.3491.9307ZM525.3506,976.8853l49.4326,18.2031c10.897-29.4023,16.6528-63.2129,16.6528-97.8574s-5.7559-68.4561-16.6528-97.8584l-49.4326,18.2031c8.9692,24.334,13.7061,51.8516,13.7061,79.6553s-4.7368,55.3203-13.7061,79.6543Z" fill="#993920"/>
        <path d="M575.3721,1194.8016c10.8136-28.7962,17.0637-62.7597,17.0637-99.1398s-6.2502-70.3437-17.0637-99.1399l-51.3082,18.8933c8.9159,23.8173,13.9928,51.1604,13.9928,80.2466s-5.0768,56.4293-13.9928,80.2465l51.3082,18.8933Z" fill="#993920"/>
        <path d="M615.5744,996.5219c-10.8136,28.7962-17.0637,62.7597-17.0637,99.1398s6.2502,70.3437,17.0637,99.1399l51.3082-18.8933c-8.9159-23.8173-13.9928-51.1604-13.9928-80.2466s5.0768-56.4293,13.9928-80.2465l-51.3082-18.8933Z" fill="#993920"/>
        <path d="M615.5744,798.0908c-10.8136,28.7962-17.0637,62.7597-17.0637,99.1398s6.2502,70.3437,17.0637,99.1399l51.3082-18.8933c-8.9159-23.8173-13.9928-51.1604-13.9928-80.2466s5.0768-56.4293,13.9928-80.2465l-51.3082-18.8933Z" fill="#993920"/>
        <path d="M723.3508,996.3704c10.8136-28.7962,17.0637-62.7597,17.0637-99.1398s-6.2502-70.3437-17.0637-99.1399l-51.3082,18.8933c8.9159,23.8173,13.9928,51.1604,13.9928,80.2466s-5.0768,56.4293-13.9928,80.2465l51.3082,18.8933Z" fill="#993920"/>
        <path d="M723.938,1196.0835l-53.1846-19.584.3525-.9414c9.1133-24.3438,13.9297-51.9707,13.9297-79.8965s-4.8164-55.5518-13.9297-79.8955l-.3525-.9414,53.1846-19.585.3496.9307c11.2041,29.8379,17.127,64.2412,17.127,99.4912s-5.9229,69.6533-17.127,99.4912l-.3496.9307ZM673.3286,1175.3169l49.4336,18.2021c10.8965-29.4004,16.6523-63.2109,16.6523-97.8574s-5.7559-68.457-16.6523-97.8574l-49.4336,18.2031c8.9697,24.335,13.707,51.8516,13.707,79.6543s-4.7373,55.3203-13.707,79.6553Z" fill="#993920"/>
        <path d="M764.8723,996.5219c-10.8136,28.7962-17.0637,62.7597-17.0637,99.1398s6.2502,70.3437,17.0637,99.1399l51.3082-18.8933c-8.9159-23.8173-13.9928-51.1604-13.9928-80.2466s5.0768-56.4293,13.9928-80.2465l-51.3082-18.8933Z" fill="#993920"/>
        <path d="M764.8723,798.0908c-10.8136,28.7962-17.0637,62.7597-17.0637,99.1398s6.2502,70.3437,17.0637,99.1399l51.3082-18.8933c-8.9159-23.8173-13.9928-51.1604-13.9928-80.2466s5.0768-56.4293,13.9928-80.2465l-51.3082-18.8933Z" fill="#993920"/>
        <path d="M873.2358,997.6528l-53.1846-19.585.3525-.9414c9.1133-24.3438,13.9297-51.9707,13.9297-79.8955s-4.8164-55.5527-13.9297-79.8965l-.3525-.9414,53.1846-19.584.3496.9297c11.2041,29.8389,17.127,64.2432,17.127,99.4922s-5.9229,69.6523-17.127,99.4912l-.3496.9307ZM822.6265,976.8853l49.4336,18.2031c10.8965-29.4014,16.6523-63.2119,16.6523-97.8574s-5.7559-68.457-16.6523-97.8584l-49.4336,18.2031c8.9697,24.335,13.707,51.8525,13.707,79.6553s-4.7373,55.3193-13.707,79.6543Z" fill="#993920"/>
        <path d="M872.6487,1194.8016c10.8136-28.7962,17.0637-62.7597,17.0637-99.1398s-6.2502-70.3437-17.0637-99.1399l-51.3082,18.8933c8.9159,23.8173,13.9928,51.1604,13.9928,80.2466s-5.0768,56.4293-13.9928,80.2465l51.3082,18.8933Z" fill="#993920"/>
        <path d="M20.2988,202.8331c-10.8136,28.7962-17.0637,62.7597-17.0637,99.1398s6.2502,70.3437,17.0637,99.1399l51.3082-18.8933c-8.9159-23.8173-13.9928-51.1604-13.9928-80.2466s5.0768-56.4293,13.9928-80.2465l-51.3082-18.8933Z" fill="#993920"/>
        <path d="M20.2988,4.4019C9.4853,33.1981,3.2351,67.1616,3.2351,103.5417s6.2502,70.3437,17.0637,99.1399l51.3082-18.8933c-8.9159-23.8173-13.9928-51.1604-13.9928-80.2466s5.0768-56.4293,13.9928-80.2465L20.2988,4.4019Z" fill="#993920"/>
        <path d="M20.2988-194.0292C9.4853-165.233,3.2351-131.2696,3.2351-94.8894S9.4853-24.5458,20.2988,4.2504l51.3082-18.8933c-8.9159-23.8173-13.9928-51.1604-13.9928-80.2466s5.0768-56.4293,13.9928-80.2465l-51.3082-18.8933Z" fill="#993920"/>
        <path d="M128.6621,5.5322l-53.1841-19.5845.3525-.9414c9.1128-24.3418,13.9292-51.9692,13.9292-79.8955s-4.8164-55.5542-13.9292-79.8965l-.3525-.9414,53.1841-19.584.3491.9302c11.2051,29.8394,17.1279,64.2432,17.1279,99.4917s-5.9229,69.6519-17.1279,99.4912l-.3491.9302ZM78.0537-15.2348L127.4863,2.9678c10.897-29.4009,16.6528-63.2114,16.6528-97.8569s-5.7559-68.4565-16.6528-97.8574l-49.4326,18.2021c8.9692,24.334,13.7061,51.8516,13.7061,79.6553s-4.7368,55.3208-13.7061,79.6543Z" fill="#993920"/>
        <path d="M128.0752,202.6816c10.8136-28.7962,17.0637-62.7597,17.0637-99.1398s-6.2502-70.3437-17.0637-99.1399l-51.3082,18.8933c8.9159,23.8173,13.9928,51.1604,13.9928,80.2466s-5.0768,56.4293-13.9928,80.2465l51.3082,18.8933Z" fill="#993920"/>
        <path d="M128.0752,401.1128c10.8136-28.7962,17.0637-62.7597,17.0637-99.1398s-6.2502-70.3437-17.0637-99.1399l-51.3082,18.8933c8.9159,23.8173,13.9928,51.1604,13.9928,80.2466s-5.0768,56.4293-13.9928,80.2465l51.3082,18.8933Z" fill="#993920"/>
        <path d="M169.5967,202.8331c-10.8136,28.7962-17.0637,62.7597-17.0637,99.1398s6.2502,70.3437,17.0637,99.1399l51.3082-18.8933c-8.9159-23.8173-13.9928-51.1604-13.9928-80.2466s5.0768-56.4293,13.9928-80.2465l-51.3082-18.8933Z" fill="#993920"/>
        <path d="M169.5967,4.4019c-10.8136,28.7962-17.0637,62.7597-17.0637,99.1398s6.2502,70.3437,17.0637,99.1399l51.3082-18.8933c-8.9159-23.8173-13.9928-51.1604-13.9928-80.2466s5.0768-56.4293,13.9928-80.2465l-51.3082-18.8933Z" fill="#993920"/>
        <path d="M169.5967-194.0292c-10.8136,28.7962-17.0637,62.7597-17.0637,99.1398s6.2502,70.3437,17.0637,99.1399l51.3082-18.8933c-8.9159-23.8173-13.9928-51.1604-13.9928-80.2466s5.0768-56.4293,13.9928-80.2465l-51.3082-18.8933Z" fill="#993920"/>
        <path d="M277.3731,4.2504c10.8136-28.7962,17.0637-62.7597,17.0637-99.1398s-6.2502-70.3437-17.0637-99.1399l-51.3082,18.8933c8.9159,23.8173,13.9928,51.1604,13.9928,80.2466s-5.0768,56.4293-13.9928,80.2465l51.3082,18.8933Z" fill="#993920"/>
        <path d="M277.3731,202.6816c10.8136-28.7962,17.0637-62.7597,17.0637-99.1398s-6.2502-70.3437-17.0637-99.1399l-51.3082,18.8933c8.9159,23.8173,13.9928,51.1604,13.9928,80.2466s-5.0768,56.4293-13.9928,80.2465l51.3082,18.8933Z" fill="#993920"/>
        <path d="M277.96,402.3945l-53.1841-19.584.3525-.9414c9.1128-24.3423,13.9292-51.9702,13.9292-79.896s-4.8164-55.5542-13.9292-79.896l-.3525-.9414,53.1841-19.5845.3491.9302c11.2051,29.8394,17.1279,64.2432,17.1279,99.4917s-5.9229,69.6519-17.1279,99.4912l-.3491.9302ZM227.3516,381.6279l49.4326,18.2021c10.897-29.4009,16.6528-63.2114,16.6528-97.8569s-5.7559-68.4565-16.6528-97.8574l-49.4326,18.2026c8.9692,24.3335,13.7061,51.8506,13.7061,79.6548s-4.7368,55.3208-13.7061,79.6548Z" fill="#993920"/>
        <path d="M20.2988,798.1087c-10.8136,28.7962-17.0637,62.7597-17.0637,99.1398s6.2502,70.3437,17.0637,99.1399l51.3082-18.8933c-8.9159-23.8173-13.9928-51.1604-13.9928-80.2466s5.0768-56.4293,13.9928-80.2465l-51.3082-18.8933Z" fill="#993920"/>
        <path d="M20.2988,599.6775c-10.8136,28.7962-17.0637,62.7597-17.0637,99.1398s6.2502,70.3437,17.0637,99.1399l51.3082-18.8933c-8.9159-23.8173-13.9928-51.1604-13.9928-80.2466s5.0768-56.4293,13.9928-80.2465l-51.3082-18.8933Z" fill="#993920"/>
        <path d="M20.2988,401.2463c-10.8136,28.7962-17.0637,62.7597-17.0637,99.1398s6.2502,70.3437,17.0637,99.1399l51.3082-18.8933c-8.9159-23.8173-13.9928-51.1604-13.9928-80.2466s5.0768-56.4293,13.9928-80.2465l-51.3082-18.8933Z" fill="#993920"/>
        <path d="M20.2988,202.8152c-10.8136,28.7962-17.0637,62.7597-17.0637,99.1398s6.2502,70.3437,17.0637,99.1399l51.3082-18.8933c-8.9159-23.8173-13.9928-51.1604-13.9928-80.2466s5.0768-56.4293,13.9928-80.2465l-51.3082-18.8933Z" fill="#993920"/>
        <path d="M128.0752,401.0948c10.8136-28.7962,17.0637-62.7597,17.0637-99.1398s-6.2502-70.3437-17.0637-99.1399l-51.3082,18.8933c8.9159,23.8173,13.9928,51.1604,13.9928,80.2466s-5.0768,56.4293-13.9928,80.2465l51.3082,18.8933Z" fill="#993920"/>
        <path d="M128.6621,600.8081l-53.1841-19.5845.3525-.9414c9.1128-24.3423,13.9292-51.9702,13.9292-79.896s-4.8164-55.5537-13.9292-79.896l-.3525-.9414,53.1841-19.5845.3491.9302c11.2051,29.8394,17.1279,64.2432,17.1279,99.4917s-5.9229,69.6523-17.1279,99.4912l-.3491.9307ZM78.0537,580.041l49.4326,18.2026c10.897-29.4009,16.6528-63.2114,16.6528-97.8574s-5.7559-68.4565-16.6528-97.8574l-49.4326,18.2026c8.9692,24.334,13.7061,51.8511,13.7061,79.6548s-4.7368,55.3208-13.7061,79.6548Z" fill="#993920"/>
        <path d="M128.0752,797.9572c10.8136-28.7962,17.0637-62.7597,17.0637-99.1398s-6.2502-70.3437-17.0637-99.1399l-51.3082,18.8933c8.9159,23.8173,13.9928,51.1604,13.9928,80.2466s-5.0768,56.4293-13.9928,80.2465l51.3082,18.8933Z" fill="#993920"/>
        <path d="M128.0752,996.3884c10.8136-28.7962,17.0637-62.7597,17.0637-99.1398s-6.2502-70.3437-17.0637-99.1399l-51.3082,18.8933c8.9159,23.8173,13.9928,51.1604,13.9928,80.2466s-5.0768,56.4293-13.9928,80.2465l51.3082,18.8933Z" fill="#993920"/>
        <path d="M169.5967,798.1087c-10.8136,28.7962-17.0637,62.7597-17.0637,99.1398s6.2502,70.3437,17.0637,99.1399l51.3082-18.8933c-8.9159-23.8173-13.9928-51.1604-13.9928-80.2466s5.0768-56.4293,13.9928-80.2465l-51.3082-18.8933Z" fill="#993920"/>
        <path d="M169.5967,599.6775c-10.8136,28.7962-17.0637,62.7597-17.0637,99.1398s6.2502,70.3437,17.0637,99.1399l51.3082-18.8933c-8.9159-23.8173-13.9928-51.1604-13.9928-80.2466s5.0768-56.4293,13.9928-80.2465l-51.3082-18.8933Z" fill="#993920"/>
        <path d="M169.5967,401.2463c-10.8136,28.7962-17.0637,62.7597-17.0637,99.1398s6.2502,70.3437,17.0637,99.1399l51.3082-18.8933c-8.9159-23.8173-13.9928-51.1604-13.9928-80.2466s5.0768-56.4293,13.9928-80.2465l-51.3082-18.8933Z" fill="#993920"/>
        <path d="M169.5967,202.8152c-10.8136,28.7962-17.0637,62.7597-17.0637,99.1398s6.2502,70.3437,17.0637,99.1399l51.3082-18.8933c-8.9159-23.8173-13.9928-51.1604-13.9928-80.2466s5.0768-56.4293,13.9928-80.2465l-51.3082-18.8933Z" fill="#993920"/>
        <path d="M277.96,402.3765l-53.1841-19.584.3525-.9414c9.1128-24.3423,13.9292-51.9702,13.9292-79.896s-4.8164-55.5537-13.9292-79.896l-.3525-.9414,53.1841-19.5845.3491.9302c11.2051,29.8394,17.1279,64.2432,17.1279,99.4917s-5.9229,69.6523-17.1279,99.4912l-.3491.9302ZM227.3516,381.6099l49.4326,18.2021c10.897-29.4004,16.6528-63.2109,16.6528-97.8569s-5.7559-68.4565-16.6528-97.8574l-49.4326,18.2026c8.9692,24.334,13.7061,51.8511,13.7061,79.6548s-4.7368,55.3208-13.7061,79.6548Z" fill="#993920"/>
        <path d="M277.3731,599.526c10.8136-28.7962,17.0637-62.7597,17.0637-99.1398s-6.2502-70.3437-17.0637-99.1399l-51.3082,18.8933c8.9159,23.8173,13.9928,51.1604,13.9928,80.2466s-5.0768,56.4293-13.9928,80.2465l51.3082,18.8933Z" fill="#993920"/>
        <path d="M277.3731,797.9572c10.8136-28.7962,17.0637-62.7597,17.0637-99.1398s-6.2502-70.3437-17.0637-99.1399l-51.3082,18.8933c8.9159,23.8173,13.9928,51.1604,13.9928,80.2466s-5.0768,56.4293-13.9928,80.2465l51.3082,18.8933Z" fill="#993920"/>
        <path d="M277.96,997.6704l-53.1841-19.585.3525-.9414c9.1128-24.3418,13.9292-51.9688,13.9292-79.8955s-4.8164-55.5537-13.9292-79.8965l-.3525-.9414,53.1841-19.584.3491.9307c11.2051,29.8389,17.1279,64.2422,17.1279,99.4912s-5.9229,69.6523-17.1279,99.4912l-.3491.9307ZM227.3516,976.9028l49.4326,18.2031c10.897-29.4014,16.6528-63.2119,16.6528-97.8574s-5.7559-68.4561-16.6528-97.8574l-49.4326,18.2021c8.9692,24.334,13.7061,51.8516,13.7061,79.6553s-4.7368,55.3213-13.7061,79.6543Z" fill="#993920"/>
        <path d="M20.2988,996.5219c-10.8136,28.7962-17.0637,62.7597-17.0637,99.1398s6.2502,70.3437,17.0637,99.1399l51.3082-18.8933c-8.9159-23.8173-13.9928-51.1604-13.9928-80.2466s5.0768-56.4293,13.9928-80.2465l-51.3082-18.8933Z" fill="#993920"/>
        <path d="M20.2988,798.0908c-10.8136,28.7962-17.0637,62.7597-17.0637,99.1398s6.2502,70.3437,17.0637,99.1399l51.3082-18.8933c-8.9159-23.8173-13.9928-51.1604-13.9928-80.2466s5.0768-56.4293,13.9928-80.2465l-51.3082-18.8933Z" fill="#993920"/>
        <path d="M128.0752,996.3704c10.8136-28.7962,17.0637-62.7597,17.0637-99.1398s-6.2502-70.3437-17.0637-99.1399l-51.3082,18.8933c8.9159,23.8173,13.9928,51.1604,13.9928,80.2466s-5.0768,56.4293-13.9928,80.2465l51.3082,18.8933Z" fill="#993920"/>
        <path d="M128.6621,1196.0835l-53.1841-19.584.3525-.9414c9.1128-24.3428,13.9292-51.9697,13.9292-79.8965s-4.8164-55.5527-13.9292-79.8955l-.3525-.9414,53.1841-19.585.3491.9307c11.2051,29.8389,17.1279,64.2422,17.1279,99.4912s-5.9229,69.6523-17.1279,99.4912l-.3491.9307ZM78.0537,1175.3169l49.4326,18.2021c10.897-29.4014,16.6528-63.2119,16.6528-97.8574s-5.7559-68.4561-16.6528-97.8574l-49.4326,18.2031c8.9692,24.334,13.7061,51.8506,13.7061,79.6543s-4.7368,55.3213-13.7061,79.6553Z" fill="#993920"/>
        <path d="M169.5967,996.5219c-10.8136,28.7962-17.0637,62.7597-17.0637,99.1398s6.2502,70.3437,17.0637,99.1399l51.3082-18.8933c-8.9159-23.8173-13.9928-51.1604-13.9928-80.2466s5.0768-56.4293,13.9928-80.2465l-51.3082-18.8933Z" fill="#993920"/>
        <path d="M169.5967,798.0908c-10.8136,28.7962-17.0637,62.7597-17.0637,99.1398s6.2502,70.3437,17.0637,99.1399l51.3082-18.8933c-8.9159-23.8173-13.9928-51.1604-13.9928-80.2466s5.0768-56.4293,13.9928-80.2465l-51.3082-18.8933Z" fill="#993920"/>
        <path d="M277.96,997.6528l-53.1841-19.585.3525-.9414c9.1128-24.3428,13.9292-51.9697,13.9292-79.8955s-4.8164-55.5537-13.9292-79.8965l-.3525-.9414,53.1841-19.585.3491.9307c11.2051,29.8398,17.1279,64.2432,17.1279,99.4922s-5.9229,69.6514-17.1279,99.4912l-.3491.9307ZM227.3516,976.8853l49.4326,18.2031c10.897-29.4023,16.6528-63.2129,16.6528-97.8574s-5.7559-68.4561-16.6528-97.8584l-49.4326,18.2031c8.9692,24.334,13.7061,51.8516,13.7061,79.6553s-4.7368,55.3203-13.7061,79.6543Z" fill="#993920"/>
        <path d="M277.3731,1194.8016c10.8136-28.7962,17.0637-62.7597,17.0637-99.1398s-6.2502-70.3437-17.0637-99.1399l-51.3082,18.8933c8.9159,23.8173,13.9928,51.1604,13.9928,80.2466s-5.0768,56.4293-13.9928,80.2465l51.3082,18.8933Z" fill="#993920"/>
      </g>
    </g>
  </g>
</svg>