<?xml version="1.0" encoding="UTF-8"?>
<svg id="Layer_2" data-name="Layer 2" xmlns="http://www.w3.org/2000/svg" xmlns:xlink="http://www.w3.org/1999/xlink" viewBox="0 0 1190 1190">
  <defs>
    <clipPath id="clippath">
      <rect width="1190" height="1190" fill="none"/>
    </clipPath>
  </defs>
  <g id="Camada_1" data-name="Camada 1">
    <g>
      <rect width="1190" height="1190" fill="#f2dac0"/>
      <g clip-path="url(#clippath)">
        <g>
          <path d="M870.83,1130.4033l125.6342-181.1609c-25.1206-22.7732-53.6682-39.8029-83.9776-50.4346l-65.3446,219.1063c8.6316,1.8301,16.7977,6.1091,23.688,12.4892Z" fill="#e9526f"/>
          <path d="M1121.4107,1132.6782l-127.3682-183.6631.9746-.8838c25.1934-22.8398,53.6191-39.9102,84.4893-50.7383l1.4844-.5215.4492,1.5078,65.8096,220.665-1.5908.3379c-8.3916,1.7783-16.3379,5.9707-22.9805,12.1221l-1.2676,1.1738ZM998.0093,949.4722l123.9131,178.6797c6.3438-5.5195,13.7295-9.4102,21.5303-11.3408l-64.4365-216.0615c-29.5205,10.5762-56.7607,26.96-81.0068,48.7227Z" fill="#e9526f"/>
          <path d="M1168.3752,1130.4033l125.6342-181.1609c-25.1206-22.7732-53.6682-39.8029-83.9776-50.4346l-65.3446,219.1063c8.6316,1.8301,16.7977,6.1091,23.688,12.4892Z" fill="#e9526f"/>
          <path d="M871.0777,1327.4009l-1.2676-1.1738c-6.6426-6.1514-14.5889-10.3438-22.9795-12.1221l-1.5908-.3379,66.2588-222.1729,1.4844.5215c30.8662,10.8262,59.293,27.8975,84.4893,50.7383l.9746.8838-.75,1.082-126.6191,182.5811ZM849.0366,1311.5337c7.8008,1.9307,15.1846,5.8203,21.5293,11.3408l123.9141-178.6797c-24.25-21.7637-51.4893-38.1484-81.0068-48.7227l-64.4365,216.0615Z" fill="#e9526f"/>
          <path d="M1121.6591,1325.1267l-125.6342-181.1609c25.1206-22.7732,53.6682-39.8029,83.9776-50.4346l65.3446,219.1063c-8.6316,1.8301-16.7977,6.1091-23.688,12.4892Z" fill="#e9526f"/>
          <path d="M1168.3752,1325.1267l125.6342-181.1609c-25.1206-22.7732-53.6682-39.8029-83.9776-50.4346l-65.3446,219.1063c8.6316,1.8301,16.7977,6.1091,23.688,12.4892Z" fill="#e9526f"/>
          <path d="M870.83,1130.4033l125.6342-181.1609c-25.1206-22.7732-53.6682-39.8029-83.9776-50.4346l-65.3446,219.1063c8.6316,1.8301,16.7977,6.1091,23.688,12.4892Z" fill="#e9526f"/>
          <path d="M275.5545,1130.4033l125.6342-181.1609c-25.1206-22.7732-53.6682-39.8029-83.9776-50.4346l-65.3446,219.1063c8.6316,1.8301,16.7977,6.1091,23.688,12.4892Z" fill="#e9526f"/>
          <path d="M526.1353,1132.6782l-127.3691-183.6631.9756-.8838c25.1934-22.8398,53.6196-39.9102,84.4888-50.7383l1.4844-.5215,66.2588,222.1729-1.5913.3379c-8.3906,1.7783-16.3369,5.9707-22.98,12.1221l-1.2671,1.1738ZM402.7339,949.4722l123.9131,178.6797c6.3438-5.5195,13.729-9.4102,21.5298-11.3408l-64.436-216.0615c-29.52,10.5762-56.7603,26.96-81.0068,48.7227Z" fill="#e9526f"/>
          <path d="M573.0996,1130.4033l125.6342-181.1609c-25.1206-22.7732-53.6682-39.8029-83.9776-50.4346l-65.3446,219.1063c8.6316,1.8301,16.7977,6.1091,23.688,12.4892Z" fill="#e9526f"/>
          <path d="M823.9287,1130.4033l-125.6342-181.1609c25.1206-22.7732,53.6682-39.8029,83.9776-50.4346l65.3446,219.1063c-8.6316,1.8301-16.7977,6.1091-23.688,12.4892Z" fill="#e9526f"/>
          <path d="M870.8653,1130.4033l125.6342-181.1609c-25.1206-22.7732-53.6682-39.8029-83.9776-50.4346l-65.3446,219.1063c8.6316,1.8301,16.7977,6.1091,23.688,12.4892Z" fill="#e9526f"/>
          <path d="M1121.6943,1130.4033l-125.6342-181.1609c25.1206-22.7732,53.6682-39.8029,83.9776-50.4346l65.3446,219.1063c-8.6316,1.8301-16.7977,6.1091-23.688,12.4892Z" fill="#e9526f"/>
          <path d="M275.8023,1327.4009l-1.2671-1.1738c-6.644-6.1514-14.5903-10.3438-22.98-12.1221l-1.5913-.3379,66.2593-222.1729,1.4844.5215c30.8667,10.8271,59.293,27.8975,84.4883,50.7383l.9756.8838-127.3691,183.6631ZM253.7608,1311.5337c7.8008,1.9307,15.1851,5.8203,21.5298,11.3408l123.9131-178.6797c-24.2485-21.7637-51.4883-38.1475-81.0063-48.7227l-64.4365,216.0615Z" fill="#e9526f"/>
          <path d="M526.3835,1325.1267l-125.6342-181.1609c25.1206-22.7732,53.6682-39.8029,83.9776-50.4346l65.3446,219.1063c-8.6316,1.8301-16.7977,6.1091-23.688,12.4892Z" fill="#e9526f"/>
          <path d="M573.0996,1325.1267l125.6342-181.1609c-25.1206-22.7732-53.6682-39.8029-83.9776-50.4346l-65.3446,219.1063c8.6316,1.8301,16.7977,6.1091,23.688,12.4892Z" fill="#e9526f"/>
          <path d="M823.9287,1325.1267l-125.6342-181.1609c25.1206-22.7732,53.6682-39.8029,83.9776-50.4346l65.3446,219.1063c-8.6316,1.8301-16.7977,6.1091-23.688,12.4892Z" fill="#e9526f"/>
          <path d="M871.1138,1327.4009l-1.2676-1.1738c-6.6436-6.1514-14.5908-10.3438-22.9805-12.1221l-1.5908-.3379,66.2588-222.1729,1.4844.5215c30.8682,10.8271,59.2939,27.8984,84.4893,50.7383l.9746.8838-.75,1.082-126.6182,182.5811ZM849.0718,1311.5337c7.8008,1.9307,15.1846,5.8203,21.5303,11.3408l123.9131-178.6797c-24.248-21.7637-51.4883-38.1475-81.0068-48.7227l-64.4365,216.0615Z" fill="#e9526f"/>
          <path d="M1121.6943,1325.1267l-125.6342-181.1609c25.1206-22.7732,53.6682-39.8029,83.9776-50.4346l65.3446,219.1063c-8.6316,1.8301-16.7977,6.1091-23.688,12.4892Z" fill="#e9526f"/>
          <path d="M275.5545,1130.4033l125.6342-181.1609c-25.1206-22.7732-53.6682-39.8029-83.9776-50.4346l-65.3446,219.1063c8.6316,1.8301,16.7977,6.1091,23.688,12.4892Z" fill="#e9526f"/>
          <path d="M-22.1759,1130.4033l125.6342-181.1609c-25.1206-22.7732-53.6682-39.8029-83.9776-50.4346l-65.3446,219.1063c8.6316,1.8301,16.7977,6.1091,23.688,12.4892Z" fill="#e9526f"/>
          <path d="M228.6531,1130.4033l-125.6342-181.1609c25.1206-22.7732,53.6682-39.8029,83.9776-50.4346l65.3446,219.1063c-8.6316,1.8301-16.7977,6.1091-23.688,12.4892Z" fill="#e9526f"/>
          <path d="M275.5897,1130.4033l125.6342-181.1609c-25.1206-22.7732-53.6682-39.8029-83.9776-50.4346l-65.3446,219.1063c8.6316,1.8301,16.7977,6.1091,23.688,12.4892Z" fill="#e9526f"/>
          <path d="M526.4187,1130.4033l-125.6342-181.1609c25.1206-22.7732,53.6682-39.8029,83.9776-50.4346l65.3446,219.1063c-8.6316,1.8301-16.7977,6.1091-23.688,12.4892Z" fill="#e9526f"/>
          <path d="M-22.1759,1325.1267l125.6342-181.1609c-25.1206-22.7732-53.6682-39.8029-83.9776-50.4346l-65.3446,219.1063c8.6316,1.8301,16.7977,6.1091,23.688,12.4892Z" fill="#e9526f"/>
          <path d="M228.6531,1325.1267l-125.6342-181.1609c25.1206-22.7732,53.6682-39.8029,83.9776-50.4346l65.3446,219.1063c-8.6316,1.8301-16.7977,6.1091-23.688,12.4892Z" fill="#e9526f"/>
          <path d="M275.8384,1327.4009l-1.2676-1.1738c-6.6445-6.1514-14.5908-10.3438-22.98-12.1221l-1.5913-.3379,66.2588-222.1729,1.4844.5215c30.8672,10.8271,59.2935,27.8984,84.4888,50.7383l.9756.8838-127.3687,183.6631ZM253.7964,1311.5337c7.8003,1.9307,15.1846,5.8203,21.5298,11.3408l123.9131-178.6797c-24.248-21.7637-51.4883-38.1475-81.0068-48.7227l-64.436,216.0615Z" fill="#e9526f"/>
          <path d="M526.4187,1325.1267l-125.6342-181.1609c25.1206-22.7732,53.6682-39.8029,83.9776-50.4346l65.3446,219.1063c-8.6316,1.8301-16.7977,6.1091-23.688,12.4892Z" fill="#e9526f"/>
          <path d="M870.83,535.1277l125.6342-181.1609c-25.1206-22.7732-53.6682-39.8029-83.9776-50.4346l-65.3446,219.1063c8.6316,1.8301,16.7977,6.1091,23.688,12.4892Z" fill="#e9526f"/>
          <path d="M1121.4107,537.4023l-127.3682-183.6626.9746-.8843c25.1943-22.8398,53.6201-39.9106,84.4893-50.7388l1.4844-.5205,66.2588,222.1724-1.5908.3374c-8.3906,1.7788-16.3369,5.9707-22.9805,12.1226l-1.2676,1.1738ZM998.0093,354.1968l123.9131,178.6792c6.3447-5.5205,13.7295-9.4102,21.5303-11.3408l-64.4365-216.062c-29.5195,10.5762-56.7598,26.96-81.0068,48.7236Z" fill="#e9526f"/>
          <path d="M1168.3752,535.1277l125.6342-181.1609c-25.1206-22.7732-53.6682-39.8029-83.9776-50.4346l-65.3446,219.1063c8.6316,1.8301,16.7977,6.1091,23.688,12.4892Z" fill="#e9526f"/>
          <path d="M871.0777,732.1255l-1.2676-1.1738c-6.6426-6.1514-14.5889-10.3438-22.9795-12.1221l-1.5908-.3379,66.2588-222.1719,1.4844.5205c30.8672,10.8271,59.293,27.8979,84.4893,50.7388l.9746.8843-.75,1.082-126.6191,182.5801ZM849.0366,716.2583c7.8008,1.9307,15.1846,5.8203,21.5293,11.3408l123.9141-178.6787c-24.249-21.7646-51.4893-38.1484-81.0068-48.7236l-64.4365,216.0615Z" fill="#e9526f"/>
          <path d="M1121.6591,729.8511l-125.6342-181.1609c25.1206-22.7732,53.6682-39.8029,83.9776-50.4346l65.3446,219.1063c-8.6316,1.8301-16.7977,6.1091-23.688,12.4892Z" fill="#e9526f"/>
          <path d="M1168.3752,729.8511l125.6342-181.1609c-25.1206-22.7732-53.6682-39.8029-83.9776-50.4346l-65.3446,219.1063c8.6316,1.8301,16.7977,6.1091,23.688,12.4892Z" fill="#e9526f"/>
          <path d="M870.83,930.0639l125.6342-181.1609c-25.1206-22.7732-53.6682-39.8029-83.9776-50.4346l-65.3446,219.1063c8.6316,1.8301,16.7977,6.1091,23.688,12.4892Z" fill="#e9526f"/>
          <path d="M1121.6591,930.0639l-125.6342-181.1609c25.1206-22.7732,53.6682-39.8029,83.9776-50.4346l65.3446,219.1063c-8.6316,1.8301-16.7977,6.1091-23.688,12.4892Z" fill="#e9526f"/>
          <path d="M1168.6236,932.3384l-1.2676-1.1738c-6.6436-6.1514-14.5908-10.3438-22.9805-12.1221l-1.5908-.3379,66.2588-222.1729,1.4844.5215c30.8701,10.8281,59.2959,27.8984,84.4893,50.7383l.9746.8838-.75,1.082-126.6182,182.5811ZM1146.5816,916.4712c7.8008,1.9307,15.1846,5.8203,21.5303,11.3408l123.9131-178.6797c-24.2461-21.7627-51.4863-38.1465-81.0068-48.7227l-64.4365,216.0615Z" fill="#e9526f"/>
          <path d="M870.83,535.1277l125.6342-181.1609c-25.1206-22.7732-53.6682-39.8029-83.9776-50.4346l-65.3446,219.1063c8.6316,1.8301,16.7977,6.1091,23.688,12.4892Z" fill="#e9526f"/>
          <path d="M275.5545,535.1277l125.6342-181.1609c-25.1206-22.7732-53.6682-39.8029-83.9776-50.4346l-65.3446,219.1063c8.6316,1.8301,16.7977,6.1091,23.688,12.4892Z" fill="#e9526f"/>
          <path d="M526.1353,537.4023l-127.3691-183.6626.9756-.8843c25.1943-22.8398,53.6206-39.9106,84.4888-50.7388l1.4844-.5205,66.2588,222.1724-1.5913.3374c-8.3896,1.7788-16.3364,5.9707-22.98,12.1226l-1.2671,1.1738ZM402.7339,354.1968l123.9131,178.6792c6.3447-5.5205,13.729-9.4102,21.5298-11.3408l-64.436-216.062c-29.519,10.5757-56.7593,26.96-81.0068,48.7236Z" fill="#e9526f"/>
          <path d="M573.0996,535.1277l125.6342-181.1609c-25.1206-22.7732-53.6682-39.8029-83.9776-50.4346l-65.3446,219.1063c8.6316,1.8301,16.7977,6.1091,23.688,12.4892Z" fill="#e9526f"/>
          <path d="M823.9287,535.1277l-125.6342-181.1609c25.1206-22.7732,53.6682-39.8029,83.9776-50.4346l65.3446,219.1063c-8.6316,1.8301-16.7977,6.1091-23.688,12.4892Z" fill="#e9526f"/>
          <path d="M870.8653,535.1277l125.6342-181.1609c-25.1206-22.7732-53.6682-39.8029-83.9776-50.4346l-65.3446,219.1063c8.6316,1.8301,16.7977,6.1091,23.688,12.4892Z" fill="#e9526f"/>
          <path d="M1121.6943,535.1277l-125.6342-181.1609c25.1206-22.7732,53.6682-39.8029,83.9776-50.4346l65.3446,219.1063c-8.6316,1.8301-16.7977,6.1091-23.688,12.4892Z" fill="#e9526f"/>
          <path d="M275.8023,732.1255l-1.2671-1.1738c-6.644-6.1514-14.5903-10.3438-22.98-12.1221l-1.5913-.3379,66.2593-222.1719,1.4844.5205c30.8677,10.8271,59.2939,27.8979,84.4883,50.7388l.9756.8843-127.3691,183.6621ZM253.7608,716.2583c7.8008,1.9307,15.1851,5.8203,21.5298,11.3408l123.9131-178.6787c-24.2476-21.7646-51.4878-38.1484-81.0063-48.7236l-64.4365,216.0615Z" fill="#e9526f"/>
          <path d="M526.3835,729.8511l-125.6342-181.1609c25.1206-22.7732,53.6682-39.8029,83.9776-50.4346l65.3446,219.1063c-8.6316,1.8301-16.7977,6.1091-23.688,12.4892Z" fill="#e9526f"/>
          <path d="M573.0996,729.8511l125.6342-181.1609c-25.1206-22.7732-53.6682-39.8029-83.9776-50.4346l-65.3446,219.1063c8.6316,1.8301,16.7977,6.1091,23.688,12.4892Z" fill="#e9526f"/>
          <path d="M823.9287,729.8511l-125.6342-181.1609c25.1206-22.7732,53.6682-39.8029,83.9776-50.4346l65.3446,219.1063c-8.6316,1.8301-16.7977,6.1091-23.688,12.4892Z" fill="#e9526f"/>
          <path d="M871.1138,732.1255l-1.2676-1.1738c-6.6436-6.1514-14.5908-10.3438-22.9805-12.1221l-1.5908-.3379,66.2588-222.1719,1.4844.5205c30.8691,10.8276,59.2949,27.8984,84.4893,50.7388l.9746.8843-.75,1.082-126.6182,182.5801ZM849.0718,716.2583c7.8008,1.9307,15.1846,5.8203,21.5303,11.3408l123.9131-178.6792c-24.2471-21.7637-51.4873-38.1475-81.0068-48.7231l-64.4365,216.0615Z" fill="#e9526f"/>
          <path d="M1121.6943,729.8511l-125.6342-181.1609c25.1206-22.7732,53.6682-39.8029,83.9776-50.4346l65.3446,219.1063c-8.6316,1.8301-16.7977,6.1091-23.688,12.4892Z" fill="#e9526f"/>
          <path d="M275.5545,930.0639l125.6342-181.1609c-25.1206-22.7732-53.6682-39.8029-83.9776-50.4346l-65.3446,219.1063c8.6316,1.8301,16.7977,6.1091,23.688,12.4892Z" fill="#e9526f"/>
          <path d="M526.3835,930.0639l-125.6342-181.1609c25.1206-22.7732,53.6682-39.8029,83.9776-50.4346l65.3446,219.1063c-8.6316,1.8301-16.7977,6.1091-23.688,12.4892Z" fill="#e9526f"/>
          <path d="M573.3477,932.3384l-1.2671-1.1738c-6.644-6.1514-14.5903-10.3438-22.98-12.1221l-1.5913-.3379,66.2588-222.1729,1.4844.5215c30.8682,10.8271,59.2939,27.8984,84.4893,50.7383l.9746.8838-.75,1.082-126.6187,182.5811ZM551.3062,916.4712c7.8008,1.9307,15.1851,5.8203,21.5298,11.3408l123.9136-178.6797c-24.248-21.7637-51.4883-38.1475-81.0068-48.7227l-64.4365,216.0615Z" fill="#e9526f"/>
          <path d="M823.9287,930.0639l-125.6342-181.1609c25.1206-22.7732,53.6682-39.8029,83.9776-50.4346l65.3446,219.1063c-8.6316,1.8301-16.7977,6.1091-23.688,12.4892Z" fill="#e9526f"/>
          <path d="M870.8653,930.0639l125.6342-181.1609c-25.1206-22.7732-53.6682-39.8029-83.9776-50.4346l-65.3446,219.1063c8.6316,1.8301,16.7977,6.1091,23.688,12.4892Z" fill="#e9526f"/>
          <path d="M1121.6943,930.0639l-125.6342-181.1609c25.1206-22.7732,53.6682-39.8029,83.9776-50.4346l65.3446,219.1063c-8.6316,1.8301-16.7977,6.1091-23.688,12.4892Z" fill="#e9526f"/>
          <path d="M275.5545,535.1277l125.6342-181.1609c-25.1206-22.7732-53.6682-39.8029-83.9776-50.4346l-65.3446,219.1063c8.6316,1.8301,16.7977,6.1091,23.688,12.4892Z" fill="#e9526f"/>
          <path d="M-22.1759,535.1277l125.6342-181.1609c-25.1206-22.7732-53.6682-39.8029-83.9776-50.4346l-65.3446,219.1063c8.6316,1.8301,16.7977,6.1091,23.688,12.4892Z" fill="#e9526f"/>
          <path d="M228.6531,535.1277l-125.6342-181.1609c25.1206-22.7732,53.6682-39.8029,83.9776-50.4346l65.3446,219.1063c-8.6316,1.8301-16.7977,6.1091-23.688,12.4892Z" fill="#e9526f"/>
          <path d="M275.5897,535.1277l125.6342-181.1609c-25.1206-22.7732-53.6682-39.8029-83.9776-50.4346l-65.3446,219.1063c8.6316,1.8301,16.7977,6.1091,23.688,12.4892Z" fill="#e9526f"/>
          <path d="M526.4187,535.1277l-125.6342-181.1609c25.1206-22.7732,53.6682-39.8029,83.9776-50.4346l65.3446,219.1063c-8.6316,1.8301-16.7977,6.1091-23.688,12.4892Z" fill="#e9526f"/>
          <path d="M-22.1759,729.8511l125.6342-181.1609c-25.1206-22.7732-53.6682-39.8029-83.9776-50.4346l-65.3446,219.1063c8.6316,1.8301,16.7977,6.1091,23.688,12.4892Z" fill="#e9526f"/>
          <path d="M228.6531,729.8511l-125.6342-181.1609c25.1206-22.7732,53.6682-39.8029,83.9776-50.4346l65.3446,219.1063c-8.6316,1.8301-16.7977,6.1091-23.688,12.4892Z" fill="#e9526f"/>
          <path d="M275.8384,732.1255l-1.2676-1.1738c-6.6445-6.1514-14.5908-10.3438-22.98-12.1221l-1.5913-.3379,66.2588-222.1719,1.4844.5205c30.8682,10.8276,59.2944,27.8984,84.4888,50.7388l.9756.8843-127.3687,183.6621ZM253.7964,716.2583c7.8003,1.9307,15.1846,5.8203,21.5298,11.3408l123.9131-178.6787c-24.2476-21.7642-51.4878-38.1484-81.0068-48.7236l-64.436,216.0615Z" fill="#e9526f"/>
          <path d="M526.4187,729.8511l-125.6342-181.1609c25.1206-22.7732,53.6682-39.8029,83.9776-50.4346l65.3446,219.1063c-8.6316,1.8301-16.7977,6.1091-23.688,12.4892Z" fill="#e9526f"/>
          <path d="M-21.9272,932.3384l-1.2676-1.1738c-6.6445-6.1514-14.5908-10.3438-22.98-12.1221l-1.5913-.3379,66.2588-222.1729,1.4844.5215c30.8691,10.8281,59.2954,27.8984,84.4883,50.7383l.9756.8838-127.3682,183.6631ZM-43.9692,916.4712c7.8003,1.9307,15.1846,5.8203,21.5298,11.3408l123.9126-178.6797c-24.2461-21.7627-51.4858-38.1465-81.0063-48.7227l-64.436,216.0615Z" fill="#e9526f"/>
          <path d="M228.6531,930.0639l-125.6342-181.1609c25.1206-22.7732,53.6682-39.8029,83.9776-50.4346l65.3446,219.1063c-8.6316,1.8301-16.7977,6.1091-23.688,12.4892Z" fill="#e9526f"/>
          <path d="M275.5897,930.0639l125.6342-181.1609c-25.1206-22.7732-53.6682-39.8029-83.9776-50.4346l-65.3446,219.1063c8.6316,1.8301,16.7977,6.1091,23.688,12.4892Z" fill="#e9526f"/>
          <path d="M526.4187,930.0639l-125.6342-181.1609c25.1206-22.7732,53.6682-39.8029,83.9776-50.4346l65.3446,219.1063c-8.6316,1.8301-16.7977,6.1091-23.688,12.4892Z" fill="#e9526f"/>
          <path d="M871.0777,136.8501l-1.2676-1.1738c-6.6426-6.1519-14.5889-10.3438-22.9795-12.1226l-1.5908-.3374,66.2588-222.1724,1.4844.5205c30.8672,10.8276,59.293,27.8984,84.4893,50.7388l.9746.8843-.75,1.082-126.6191,182.5806ZM849.0366,120.9829c7.8008,1.9307,15.1855,5.8208,21.5293,11.3408l123.9141-178.6792c-24.249-21.7642-51.4893-38.1479-81.0068-48.7236l-64.4365,216.062Z" fill="#e9526f"/>
          <path d="M1121.6591,134.5755l-125.6342-181.1609c25.1206-22.7732,53.6682-39.8029,83.9776-50.4346l65.3446,219.1063c-8.6316,1.8301-16.7977,6.1091-23.688,12.4892Z" fill="#e9526f"/>
          <path d="M1168.3752,134.5755l125.6342-181.1609c-25.1206-22.7732-53.6682-39.8029-83.9776-50.4346l-65.3446,219.1063c8.6316,1.8301,16.7977,6.1091,23.688,12.4892Z" fill="#e9526f"/>
          <path d="M870.83,334.7883l125.6342-181.1609c-25.1206-22.7732-53.6682-39.8029-83.9776-50.4346l-65.3446,219.1063c8.6316,1.8301,16.7977,6.1091,23.688,12.4892Z" fill="#e9526f"/>
          <path d="M1121.6591,334.7883l-125.6342-181.1609c25.1206-22.7732,53.6682-39.8029,83.9776-50.4346l65.3446,219.1063c-8.6316,1.8301-16.7977,6.1091-23.688,12.4892Z" fill="#e9526f"/>
          <path d="M1168.6236,337.062l-1.2676-1.1733c-6.6436-6.1514-14.5898-10.3433-22.9805-12.1221l-1.5908-.3374,66.2588-222.1724,1.4844.5205c30.8691,10.8276,59.2949,27.8984,84.4893,50.7388l.9746.8843-.75,1.082-126.6182,182.5796ZM1146.5816,321.1958c7.8008,1.9307,15.1855,5.8203,21.5303,11.3403l123.9131-178.6792c-24.2471-21.7637-51.4873-38.1475-81.0068-48.7231l-64.4365,216.062Z" fill="#e9526f"/>
          <path d="M275.8023,136.8501l-1.2671-1.1738c-6.6436-6.1519-14.5898-10.3438-22.98-12.1226l-1.5913-.3374,66.2593-222.1724,1.4844.5205c30.8677,10.8276,59.2939,27.8984,84.4883,50.7388l.9756.8843-127.3691,183.6626ZM253.7608,120.9829c7.8008,1.9307,15.186,5.8208,21.5298,11.3408l123.9131-178.6792c-24.2476-21.7642-51.4878-38.1479-81.0063-48.7236l-64.4365,216.062Z" fill="#e9526f"/>
          <path d="M526.3835,134.5755l-125.6342-181.1609c25.1206-22.7732,53.6682-39.8029,83.9776-50.4346l65.3446,219.1063c-8.6316,1.8301-16.7977,6.1091-23.688,12.4892Z" fill="#e9526f"/>
          <path d="M573.0996,134.5755l125.6342-181.1609c-25.1206-22.7732-53.6682-39.8029-83.9776-50.4346l-65.3446,219.1063c8.6316,1.8301,16.7977,6.1091,23.688,12.4892Z" fill="#e9526f"/>
          <path d="M823.9287,134.5755l-125.6342-181.1609c25.1206-22.7732,53.6682-39.8029,83.9776-50.4346l65.3446,219.1063c-8.6316,1.8301-16.7977,6.1091-23.688,12.4892Z" fill="#e9526f"/>
          <path d="M871.1138,136.8501l-1.2676-1.1738c-6.6436-6.1519-14.5898-10.3438-22.9805-12.1226l-1.5908-.3374,66.2588-222.1724,1.4844.5205c30.8691,10.8281,59.2949,27.8989,84.4893,50.7388l.9746.8843-.75,1.082-126.6182,182.5806ZM849.0718,120.9829c7.8008,1.9307,15.1855,5.8203,21.5303,11.3408l123.9131-178.6792c-24.2471-21.7637-51.4873-38.1475-81.0068-48.7236l-64.4365,216.062Z" fill="#e9526f"/>
          <path d="M1121.6943,134.5755l-125.6342-181.1609c25.1206-22.7732,53.6682-39.8029,83.9776-50.4346l65.3446,219.1063c-8.6316,1.8301-16.7977,6.1091-23.688,12.4892Z" fill="#e9526f"/>
          <path d="M275.5545,334.7883l125.6342-181.1609c-25.1206-22.7732-53.6682-39.8029-83.9776-50.4346l-65.3446,219.1063c8.6316,1.8301,16.7977,6.1091,23.688,12.4892Z" fill="#e9526f"/>
          <path d="M526.3835,334.7883l-125.6342-181.1609c25.1206-22.7732,53.6682-39.8029,83.9776-50.4346l65.3446,219.1063c-8.6316,1.8301-16.7977,6.1091-23.688,12.4892Z" fill="#e9526f"/>
          <path d="M573.3477,337.0625l-1.2671-1.1738c-6.6436-6.1514-14.5898-10.3433-22.98-12.1221l-1.5913-.3374,66.2588-222.1724,1.4844.5205c30.8672,10.8271,59.293,27.8979,84.4893,50.7388l.9746.8843-.75,1.082-126.6187,182.5801ZM551.3062,321.1958c7.8013,1.9307,15.1855,5.8203,21.5298,11.3403l123.9136-178.6787c-24.249-21.7646-51.4893-38.1484-81.0068-48.7236l-64.4365,216.062Z" fill="#e9526f"/>
          <path d="M823.9287,334.7883l-125.6342-181.1609c25.1206-22.7732,53.6682-39.8029,83.9776-50.4346l65.3446,219.1063c-8.6316,1.8301-16.7977,6.1091-23.688,12.4892Z" fill="#e9526f"/>
          <path d="M870.8653,334.7883l125.6342-181.1609c-25.1206-22.7732-53.6682-39.8029-83.9776-50.4346l-65.3446,219.1063c8.6316,1.8301,16.7977,6.1091,23.688,12.4892Z" fill="#e9526f"/>
          <path d="M1121.6943,334.7883l-125.6342-181.1609c25.1206-22.7732,53.6682-39.8029,83.9776-50.4346l65.3446,219.1063c-8.6316,1.8301-16.7977,6.1091-23.688,12.4892Z" fill="#e9526f"/>
          <path d="M-22.1759,134.5755L103.4583-46.5854c-25.1206-22.7732-53.6682-39.8029-83.9776-50.4346L-45.8639,122.0863c8.6316,1.8301,16.7977,6.1091,23.688,12.4892Z" fill="#e9526f"/>
          <path d="M228.6531,134.5755L103.0189-46.5854c25.1206-22.7732,53.6682-39.8029,83.9776-50.4346l65.3446,219.1063c-8.6316,1.8301-16.7977,6.1091-23.688,12.4892Z" fill="#e9526f"/>
          <path d="M275.8379,136.8501l-1.2671-1.1738c-6.6436-6.1519-14.5903-10.3438-22.98-12.1226l-1.5913-.3374,66.2588-222.1724,1.4844.5205c30.8682,10.8281,59.2944,27.8989,84.4888,50.7388l.9756.8843-127.3691,183.6626ZM253.7964,120.9829c7.8008,1.9307,15.1851,5.8203,21.5298,11.3408l123.9131-178.6792c-24.2476-21.7637-51.4878-38.1479-81.0068-48.7236l-64.436,216.062Z" fill="#e9526f"/>
          <path d="M526.4187,134.5755l-125.6342-181.1609c25.1206-22.7732,53.6682-39.8029,83.9776-50.4346l65.3446,219.1063c-8.6316,1.8301-16.7977,6.1091-23.688,12.4892Z" fill="#e9526f"/>
          <path d="M-21.9272,337.062l-1.2676-1.1733c-6.644-6.1514-14.5903-10.3433-22.98-12.1221l-1.5913-.3374L18.4927,101.2568l1.4844.5205c30.8687,10.8276,59.2944,27.8984,84.4883,50.7388l.9756.8843L-21.9272,337.062ZM-43.9692,321.1958c7.8008,1.9307,15.1851,5.8203,21.5298,11.3403l123.9126-178.6792c-24.2466-21.7637-51.4868-38.1475-81.0063-48.7231l-64.436,216.062Z" fill="#e9526f"/>
          <path d="M228.6531,334.7883l-125.6342-181.1609c25.1206-22.7732,53.6682-39.8029,83.9776-50.4346l65.3446,219.1063c-8.6316,1.8301-16.7977,6.1091-23.688,12.4892Z" fill="#e9526f"/>
          <path d="M275.5897,334.7883l125.6342-181.1609c-25.1206-22.7732-53.6682-39.8029-83.9776-50.4346l-65.3446,219.1063c8.6316,1.8301,16.7977,6.1091,23.688,12.4892Z" fill="#e9526f"/>
          <path d="M526.4187,334.7883l-125.6342-181.1609c25.1206-22.7732,53.6682-39.8029,83.9776-50.4346l65.3446,219.1063c-8.6316,1.8301-16.7977,6.1091-23.688,12.4892Z" fill="#e9526f"/>
        </g>
      </g>
    </g>
  </g>
</svg>