<?xml version="1.0" encoding="UTF-8"?>
<svg id="Layer_2" data-name="Layer 2" xmlns="http://www.w3.org/2000/svg" viewBox="0 0 366.6512 276.9778">
  <g id="Camada_1" data-name="Camada 1">
    <path d="M195.5631,226.7937l5.7145-3.4224-7.1249-4.1624c-.9063-.5295-1.1301-.7687-2.1425-.1636l-6.1783,3.6922-.9383.4396c-.4947,2.4233-.4061,7.0788-.2118,9.4997.0763.9504.1427,1.6245.0419,2.5793-.2783,2.6373-.2344,5.3906-.0366,8.0774.0377.5124-.0575.9964-.0593,1.5097l-.0841,24.9336,2.3945.0546c.2994.0068.5936.0484.7754.1224.1805.0734.0789.8229-.0519,1.0072-1.2202,1.7185-2.6184,3.8452-3.7173,5.7891-.1641.2902-.8968.3103-1.0686.0186-1.1462-1.9461-2.5479-4.1143-3.7226-5.8033-.1371-.1971-.2339-.9073-.0608-.9868,1.0254-.4711,1.6233.2715,3.1876-.2532l-.0596-25.3651c-.0074-3.1437.1281-5.4563-.0151-8.7961-.6852.2698-1.0213.4502-1.4954.7266l-3.1393,1.83-1.8946,1.1772,3.3944,1.9813c.829.4839,2.1554.6576,2.2558,2.0936l-10.5907-5.9659-8.854-5.1439-7.286-4.2174-49.7499-28.6725-2.4793-1.4421-6.3899-3.7436c-1.1424-.6693-2.2931-1.2161-3.5437-1.8287l-19.873,11.534c.8153.5413,1.4655.7339,1.7879,1.7871l-6.8907.8767c-.2308.0294-.8475-.0505-.9246-.2472s-.0455-.6825.0351-.8816l1.5248-3.766,2.7374,1.3207,14.9078-8.6518c1.6902-.9809,3.2182-1.8809,4.951-3.112l-15.5131-9.0145-8.4711-4.8494-27.1374-15.6975-34.7623-20.033L.0304,138.7952l-.0304-.6066,28.7697-16.662,29.5644-17.1956,15.6353-9.0934,10.3591-5.9911,5.7575-3.4029c-.636-.6289-1.2306-.9011-1.9673-1.3269l-17.8461-10.3162c-.8356.1528-1.6424.6665-2.424,1.1615-.4841-.0108-.985-.8171-1.1787-1.4269l-.9143-2.8787c-.0744-.2343.454-.6654.6639-.627,2.1147.3865,4.5447.6495,6.6114.7934.1579.011.5252.1949.643.2583.1174.0632-.252.4481-.3691.5491l-1.3828,1.1924,20.0472,11.5662,15.5677-9.0474,38.0966-22.1314,4.2751-2.4772,2.9564-1.7026,12.7775-7.4749,15.1324-8.7724c.2667-.1546.9091-.0967.8471-.0183-.0537.0679-.252.5576-.3859.6344l-6.5017,3.7289c.6229,1.0235,1.6673,1.3164,2.6237,1.8912l3.8133,2.2921c.1859.1118.4753.4306.577.5227.1364.1235.5211-.4478.5203-.6533l-.0321-7.9678-.5685-.5708c-.1376-.1381.5839-.64.5841-.9059l.0179-24.7254c-1.1812-.6911-2.1403.241-3.1618-.3355-.2097-.1184-.052-.8505.1002-1.0707,1.182-1.7099,2.3722-3.5327,3.441-5.333.1598-.2692.4469-.6439.6647-.6697.2722-.0322.6206.4066.8432.7727,1.0421,1.7139,2.4037,3.7545,3.5146,5.3802.0996.1458.2035.6824.1627.828-.0544.1941-.4688.271-.7205.2728l-2.5544.0175.0733,25.4989c.0018.6209.0745,1.0687.0299,1.7083-.1517,2.1725-.0982,4.6306-.0574,6.7759.5195.3363,5.1614-2.6603,6.3504-3.564l-5.9494-3.5002c.6203-1.0835,1.2432-.1393,1.8351.201l4.9166,2.8263,12.5356,7.2232,9.5877,5.518,6.4239,3.7423,38.7192,22.3148,6.2877,3.6366,7.5675,4.3807c1.022.5916,1.311.819,2.5706.0847l18.1355-10.5718c.2208-.1287.4858-.4849.4022-.5366l-.417-.2575c-.4688-.2895-.8379-.5886-1.0034-1.3304l6.9922-.9749c.1503-.021.7146.2143.7378.355.0234.1418.016.4675-.037.6028l-1.4732,3.7608c-1.3676.5432-2.0698-1.5038-3.3285-.7764l-6.9673,4.0265-12.4635,7.2795,6.2571,3.8041,1.8024,1.022,4.4395,2.5925,12.046,6.8831,1.5215.8852,30.2872,17.5008,5.7724,3.3044,5.4191,3.1495,3.7993,2.2029,8.7357,5.0459,2.6784,1.5194,7.1661,4.1359c.2048.1182.5611.4996.6697.6391.1361.1749-.2391.6527-.5005.8046l-30.6602,17.8189-6.973,4.0566-8.7069,5.0454-10.3567,6.0329-8.2582,4.7744-23.9457,13.9284-.4351.2517c-.0715.0414.0746.431.3178.5715l19.3686,11.1949c.9894-.2326,1.4324-.5218,2.1837-1.0092.3366-.2184,1.0826.1714,1.2036.5514l1.1844,3.7166c.1199.3764-.9792.5396-1.4056.453-2.496-.507-5.6152-.6108-6.4656-.9464-.1278-.0504.179-.5506.3033-.6465l1.4398-1.1122-4.664-2.7005-3.1349-1.8115-4.8047-2.7607-4.0411-2.3207c-1.2354-.7095-2.6711-1.7781-4.0901-1.9855-1.138,1.0128-2.3931,1.7551-3.7453,2.5275l-5.2703,3.0104-16.5851,9.6877-25.4904,14.7903-7.0915,4.1085-8.3616,4.8458-4.7708,2.7977-12.6961,7.3751-4.2742,2.5265c-.1123.0664-.7278.0372-.6764-.0336.0753-.1037.3221-.7035.4796-.7955l5.7214-3.3418c.1443-.0843.4469-.5262.3659-.6513-.1082-.167-.3674-.4129-.5936-.5444l-6.179-3.5934c.3437-.5283.7064-.4587,1.077-.2445l5.1191,2.9571c.5927.3424,1.4178.8765,2.0257,1.0141l3.6567-2.0895,4.4207-2.6442-8.2122-4.9071-6.9388,4.061c-.153.0895-.5649.1654-.677.0393-.1111-.1248.1222-.6557.2829-.7494l6.1623-3.5925c-.2823-.4158-.5345-.7082-1.0244-.9889l-5.2974-3.0345c-.1392-.0797-.1238-.9465.0062-.8807.1766.0895.4865.2545.75.4088l6.6337,3.8835,2.5646-1.4365ZM174.5448,48.3602l6.8023,3.9999c.1532.1609.3796.5031.5045.405.0934-.0734.3962-.4653.3955-.6727l-.0237-7.6762c-.0014-.4474-.3999-1.446-.4711-1.728-.8733-.3486-1.5573-.6842-2.3318-1.1308l-5.7638-3.3231-2.6493,1.5084-5.4991,3.2448c1.609,1.1223,2.954,1.8979,4.4823,2.7788l3.7673,2.1715,6.1028-3.5806c.5194-.3048.8578-1.1862,1.7079-.1776l-2.8057,1.725-4.2181,2.4555ZM191.1679,59.1054c-1.3977-1.5791-6.7624-3.2396-5.9247-4.4214,2.1492.802,5.6133,3.6529,7.1747,3.7387l7.8587-4.7344-7.1587-4.2666c-.6242-.372-1.2189-.5258-1.8791-.1383l-5.9349,3.4832c-.2573-.7764.1642-1.1768.6912-1.4234,1.7917-.8383,3.3139-1.6959,5.0043-2.9873l-3.6445-2.2713c-.8145-.5076-2.0079-.5503-2.1152-1.8759,1.0724.3891,1.9508,1.032,2.9215,1.5698l3.8854,2.1526,8.2098-4.8903-6.7492-3.9204c-.4411-.2563-1.4518-.883-1.9286-.7155l-5.6465,3.2937c-.4392.2562-1.1488.2849-1.2366.6648-.1176.5084-.0481,1.1538.1663,1.5616.1047.1992-.2258.7917-.2358,1.0386-.0864,2.149-.0976,4.5833.0546,6.7539.2574,3.671-.3888,6.0139.0131,10.6722.0408.4732.1176.9307.0912,1.4049l-.0611,1.0975c-.0124.2227.4894.3075.7956.4017l5.2328,3.091c.9051.5346,1.4777.7519,2.4124.19l7.1774-4.3141-6.9459-4.1375c-1.2266-.7306-1.7151-.5274-2.8558.2086-1.5565,1.0043-3.259,1.8776-5.1558,2.8906-.2929-.6175.3012-1.057.7799-1.3242l5.0035-2.7928ZM172.7085,48.4849c-.973-.8009-1.4041-1.0181-2.1599-1.4697l-3.9977-2.3889c-1.4753-.8816-2.1026-1.1832-3.6663-.2196l-6.4901,3.9993,8.0779,4.8813,8.2361-4.8023ZM208.8414,48.7715c.0106-.3341-.1206-.8654-.2976-.9666l-4.616-2.6404-2.8969-1.5462-8.0508,4.7811,8.2472,4.868,7.614-4.4959ZM155.4737,58.5514l8.1545-4.8705-7.8538-4.6615c-.9084.0547-1.9095.5062-2.6533,1.1307l-5.9583,3.5537,8.3109,4.8476ZM173.7683,58.5603l8.4202-4.9481c-1.1772-.5938-1.6576-.8224-2.391-1.2418l-4.6485-2.658c-.4783-.2735-1.1652-.8365-1.687-.716-.3844.0889-.9471.5497-1.3535.7847l-6.6058,3.8184c1.2969,1.0624,2.2955,1.5155,3.5215,2.223l4.7442,2.7378ZM218.5492,53.6475l-7.3705-4.3483c-.723-.3643-1.5968-.2858-2.1618.2852l-6.8714,4.0369c1.3361.9596,2.3177,1.5174,3.5306,2.2121l4.7353,2.7274,8.1378-4.9133ZM146.4459,63.8322l8.1342-4.8887-8.3504-4.8382-4.9656,2.9321-3.3308,1.9219,4.6095,2.7496c1.2435.7417,2.5964,1.4809,3.9032,2.1233ZM172.9356,58.9637l-3.7519-2.2238-4.7264-2.6014-5.7816,3.4105c-.7823.4614-1.5135.7347-2.0379,1.5537l7.3184,4.4006c.3125.1879,1.1355.1307,1.4301-.0447l7.5493-4.495ZM209.4491,58.9727l-8.3096-4.8841-8.1374,4.9052,8.1186,4.7835c.9873-.4934,2.1356-1.0314,3.0357-1.5799l5.2927-3.2247ZM227.6351,59.0815c-1.976-1.642-3.5836-2.337-5.455-3.3642l-2.6931-1.5579-7.7051,4.4586c-.122.0706-.3904.5291-.2633.5898.1277.061.4722.1988.6001.2737l7.468,4.3732,8.0485-4.7733ZM181.2641,62.8839l.6784.392c.1177.068.3082-.4334.3081-.5779l-.002-7.5344c0-.2111-.3893-.7552-.4931-.6375-1.5228,1.7276-7.1788,3.9233-6.8108,4.4692.0871.1292.3765.4566.5197.5393l5.7998,3.3494ZM135.9525,68.4731c.8553.4934,1.2963.6992,2.1503.1833l7.303-4.4113-8.3017-4.8227-8.0509,4.7205c.8795.7888,1.8487,1.4164,2.8642,2.0023l4.0352,2.3279ZM155.5804,69.1922l8.1245-4.9006-6.7353-3.9785c-.4491-.2653-1.4591-1.0012-1.9032-.7228-1.039.6511-1.8049,1.1823-2.771,1.707-1.699.9227-3.2359,1.7723-4.9383,3.0315l8.2234,4.8634ZM172.6463,68.461c.3933.4655,1.2792.6908,1.7607.4042l7.8153-4.6511-8.4379-4.7798-4.7401,2.7505c-1.2415.7204-2.3788,1.2618-3.4049,2.2395l7.007,4.0367ZM228.7891,69.1756l8.2255-4.9034-6.887-4.0117c-.3962-.2308-.9717-.6671-1.3762-.7854-.3539-.1035-.9274.5398-1.3413.7735l-6.2853,3.5487c-.0977.0551-.3473.3164-.4197.3942s.2892.4151.3857.4717l7.6984,4.5124ZM215.035,66.5088l3.6722-2.2398-6.6493-3.9054c-.465-.2731-1.4567-1.0687-2.0538-.7176l-7.8826,4.6344,7.2106,4.2487c.7014.4133,1.382.5434,2.1046.1147l3.5983-2.1349ZM129.6729,73.5567c2.17-1.3353,4.2642-2.3311,6.3917-4.083l-6.2825-3.7561c-.5871-.351-1.2865-.7479-1.9527-.9241l-8.0488,4.7758,6.7479,4.0266c1.177.7024,1.8451.7604,3.1445-.0392ZM146.4572,74.4423l7.9191-4.7478c-2.0242-1.7337-4.1528-2.6891-6.4053-4.0004-.4619-.2689-1.1538-.853-1.5978-.864-.4014-.0099-1.1126.487-1.5115.7231l-6.6689,3.9462c1.4165,1.0339,2.4905,1.6576,3.8052,2.4057l4.4591,2.5372ZM169.8626,71.438l3.0166-1.9044-6.87-4.1009c-1.2137-.7245-1.6327-.6635-2.7924.0392l-6.7245,4.0751c1.8223,1.211,3.3812,2.088,5.1009,3.0722l3.1338,1.7936,5.1356-2.9749ZM209.1415,69.4614l-.4564-.4906-7.4073-4.3-8.1908,4.8357,6.6612,3.9761c.328.3281,1.0558.8289,1.5304.8844.9705-.4331,8.2971-4.439,7.863-4.9056ZM219.6405,74.4624l8.2288-4.8718-8.3035-4.9027-8.137,4.8863c.8259.6854,1.6786,1.1065,2.5742,1.6249l5.6376,3.2633ZM239.2988,73.6302c2.3213-1.2142,4.4407-2.423,6.7287-4.1093l-8.2076-4.8089-7.9921,4.7354c.675.706,1.2059,1.0453,1.9169,1.4114l4.753,2.7426c.8762.8434,1.9371.9169,2.8011.0288ZM181.393,73.4837c.1572.091.4792.3489.5824.4192.1031.0702.2605-.3959.2613-.5454l.038-7.3935c.0006-.1243-.1804-.5386-.2406-.6389-.0595-.0991-.3605-.0276-.4576.0734-.579.6027-1.6387,1.0816-2.3609,1.5073l-4.5512,2.6828,6.7286,3.8952ZM185.7829,72.8426l5.3528-3.3417-6.5194-3.768-.0446,7.576c.4168-.0126.8164-.2092,1.2112-.4663ZM118.9847,79.7859l8.1765-4.9073-8.3014-4.7871-8.1741,4.8167,8.2989,4.8777ZM138.5765,79.041c2.3808-1.6125,4.3322-2.2661,6.6227-4.132-.5306-.4938-.9691-.9045-1.5317-1.2205l-6.5157-3.6592-5.8763,3.4588c-.786.4626-1.5421.9143-1.9665,1.5932l6.604,3.9408c1.0619.6337,1.4451.8443,2.6637.019ZM155.6444,79.8086l8.2186-5.021-8.4312-4.7509-8.1138,4.8566,8.3264,4.9152ZM197.0685,76.902c1.1567-.6813,2.1164-1.2794,3.2438-2.0955l-6.7707-3.9673c-1.0938-.6409-1.5123-.8826-2.7291-.0816-1.4947.9839-3.2263,1.9673-4.8628,2.8801-.6149.343-1.3853-.0014-1.3197.9772.047.7015.3343.9116.969,1.2863l6.5767,3.8828,4.893-2.8819ZM229.8145,79.2054l7.1612-4.3782-8.2529-4.7891-8.1041,4.8971,7.1854,4.2534c.8248.4882,1.1435.5469,2.0104.0168ZM248.4628,79.0445l6.7454-4.0891c-.6245-.541-1.021-.8252-1.6625-1.1887l-6.6245-3.7532-4.253,2.6128-3.659,2.2405c1.0866.7287,1.8014,1.2008,2.7558,1.7685l4.4161,2.6265c.8182.4866,1.4325.2976,2.2817-.2171ZM177.7922,77.4851l3.8542-2.2304c.1975-.1143.4963-.69.3007-.7754-.1562-.0682-.6599-.2117-.8149-.2985l-5.9619-3.339c-1.038-1.0535-2.0391-.4388-3.022.1492l-6.5182,3.8996,6.3611,3.7427c.5211.3066,1.6614,1.2043,2.1929.9341l3.6082-2.0824ZM214.1042,77.6682l4.4661-2.7228c-.5508-.4889-1.0613-.8992-1.6373-1.2206l-5.0043-2.7919c-1.0483-1.0181-1.9818-.6685-2.9935-.0593l-6.6731,4.0185,8.1917,4.8673,3.6504-2.0911ZM146.455,85.0693l7.5846-4.432c.2476-.1447.2762-.8167.0954-.8952-.1315-.0571-.4804-.187-.6439-.2823l-7.1332-4.1584-3.745,2.2668c-1.4666.8877-2.7806,1.547-4.4115,2.6257l8.2536,4.8753ZM202.8939,84.235l6.7391-4.0571-8.352-4.902-8.155,4.9213,6.8303,4.0215c.4103.2472,1.1066.7325,1.5024.6567.3575-.0684.9656-.3916,1.4352-.6404ZM245.689,80.6658c.1075-.061.3112-.425.2457-.5211l-.245-.3597-7.8036-4.5156-8.0839,4.9062,6.6111,3.9007c.8722,1.1337,1.8593.8008,2.8655.2294l6.4102-3.6399ZM111.1164,84.3955l6.99-4.2185-8.3032-4.8737-8.2648,4.8579,6.6852,3.9808c1.0455.6226,1.5901,1.0397,2.8928.2535ZM129.6864,84.1731l6.611-3.9717-3.4764-2.1196-4.5626-2.6129c-.6579.1043-1.5218.6326-2.0991.9784l-6.2157,3.7232,6.7662,4.1663c1.2212.752,1.8044.5406,2.9766-.1637ZM165.7451,84.4881l7.2447-4.309-8.3369-4.878-6.5123,3.8012c-.5118.2988-1.0367.799-1.4814,1.2276l6.9486,4.0521c.4995.6255,1.3907.5502,2.1374.106ZM224.8544,82.0601c1.0427-.6067,1.8898-.9895,2.9676-1.9438l-8.1225-4.8112-8.0966,4.7695c.7399.8888,1.3967,1.1705,2.2198,1.6344l5.9103,3.331,5.1214-2.9799ZM254.9971,84.3595c.9895.5888,1.6595.5555,2.5725.0052l6.9699-4.2011-7.7141-4.5252c-.6204-.3639-1.1668.0075-1.7333.3424l-7.0412,4.163c1.0904.8157,2.0627,1.31,3.1182,1.9381l3.828,2.2776ZM165.734,85.3876l3.6238,2.3497c3.8966,1.5362,3.192,3.5439,6.0302,1.8287l5.1391-3.1057c.3131-.1892,1.0528-.4203,1.2876-.5168.0987-.707.3701-1.5133.3781-2.1444l.0919-7.2162c.0026-.2058-.4939-.7724-.5485-.6478-.8291.6544-1.7791,1.2502-2.67,1.7319l-3.0826,1.6668c-.3509.1898-.8256.6898-1.0626,1.0192l6.1977,3.5387c.1856.106.5359.6689.3801.7301-.1155.0454-.5431.1421-.6663.0707l-4.0156-2.3276-2.9056-1.7539-8.1773,4.7765ZM191.1289,80.3966c-.1617-.4179-.5364-.7272-.9482-.9619l-4.4842-2.5556c-.2328-.1327-.9409-.667-1.0267-.4056-.0718.4607-.44,8.6221.4037,7.5664.0785-.0982.364-.4242.5301-.5181l5.5253-3.1252ZM108.8192,85.4501l-2.8401-1.7203c-1.8063-1.0941-3.7436-2.2062-5.6102-3.0737l-7.6691,4.5425,7.6728,4.4877c.735.4299,1.4324.3104,1.9959-.3278l6.4507-3.9084ZM126.6171,85.8975c.1059-.0626.3222-.4493.2379-.5157-.0561-.0442-.2973-.2554-.3658-.297l-3.3432-2.0305-4.2188-2.4169-8.0721,4.7777c2.2949,1.7876,4.1857,2.4801,6.8323,4.2629,1.1104.748,1.6102.5467,2.663-.0757l6.2668-3.7048ZM137.6303,90.186l7.6816-4.4751c-.6274-.6452-1.0563-1.0068-1.6449-1.3487l-5.9443-3.4529c-.5826-.3384-1.0484.0743-1.5605.3733l-7.098,4.1442,6.5842,4.0173c.422.2575,1.4543,1.0492,1.9819.7418ZM160.4814,87.5194l3.2444-1.9972c-1.4485-.9789-2.4573-1.6601-3.7406-2.3885l-4.3465-2.4673-8.3,4.8023,6.9156,4.1212c.3882.2314,1.3205.8106,1.7114.581l4.5156-2.6515ZM192.297,90.4263l8.1034-4.9531-4.4793-2.6871-3.7306-2.1373-5.0534,2.9935c-.677.401-1.3681.8611-2.1013.9554-.3032.0796-.4452.9716-.2814,1.3728.1172.287.6747.3921,1.0759.6295l6.4668,3.8263ZM210.9443,90.225l7.7109-4.5787-2.204-1.6053-5.9882-3.4071-8.1543,4.8695,6.5426,3.8177c.5611.5019,1.314.9178,2.093.9039ZM233.6669,87.5271c1.1751-.6265,2.2096-1.107,3.2766-2.1643l-8.1484-4.7049-8.1026,4.8393c2.6425,1.7702,5.5905,3.3596,8.4017,4.8782,1.6183-1.0995,2.9867-2.0028,4.5726-2.8484ZM247.7641,90.0634c1.7842-1.1011,3.2172-1.9225,4.9053-2.8348.912-.4928,1.7991-1.0703,2.7041-1.8317l-8.0318-4.6442c-.4953.1355-1.1012.4524-1.5287.7048l-6.8186,4.0252c2.8931,2.0344,4.3395,2.5402,7.4103,4.5045.296.1893,1.0317.2785,1.3595.0762ZM269.2214,87.7547c1.4202-.7806,2.6459-1.5416,4.0431-2.5895l-7.1774-4.1867c-.7193-.4196-1.11-.0562-1.7609.3225l-5.9334,3.4524c-.285.1658-.7574.4964-.8198.7511-.0519.2122.4637.541.6719.6553,2.3168,1.2724,4.2901,2.4408,6.6055,3.9971l4.3708-2.4023ZM122.8597,98.7785c1.5493-.9113,2.7638-1.6986,4.3561-2.7655l-8.2982-4.7637-6.6046,3.9295c-.2498.1486-1.015.049-1.302-.1533l6.9885-4.279-8.2187-4.8011-7.828,4.6024,7.7923,4.4829c.7359.4233,1.5524.64,2.1318,1.2576l2.6477,1.5685c1.6536.9796,3.4613,2.0184,5.1546,2.7923l3.1806-1.8707ZM126.6726,94.8522c1.2505.7341,1.7803.7932,2.9291.0752l6.7065-4.1919-8.2538-4.8193-2.8859,1.8015-5.3386,3.1175,6.8427,4.0171ZM147.5306,95.0756c2.4242-1.5446,4.8035-2.6,7.0823-4.3569l-8.2241-4.7913-8.131,4.8773,7.0652,4.2969c.7557.4596,1.3447.5238,2.2076-.026ZM97.8807,92.0012c.632-.3702,1.0416-.502,1.3943-1.048l-6.4407-3.721c-.5493-.3173-1.6766-1.1892-2.2204-.8518l-2.6311,1.6325-4.6455,2.8348,8.2917,4.8153,6.2516-3.6618ZM166.2535,94.7954l6.8512-3.9652-8.3068-4.8482-8.3239,4.8215,7.0154,4.1101c.9179.5378,1.7812.9796,2.7642-.1183ZM209.5793,90.9002c-.9221-.7675-1.2813-.9578-1.9542-1.3527l-6.2041-3.6404-4.4735,2.6067c-1.2734.742-2.3192,1.3076-3.6937,2.3521l7.3963,4.3586c.5157.3039,1.289.1599,1.7908-.1346l7.1384-4.1897ZM219.8579,95.6698l8.0675-4.9351-8.2522-4.7741-8.1357,4.7607c1.3363,1.0402,2.1945,1.5316,3.3618,2.1827l4.9587,2.7658ZM243.3734,92.6168c1.0377-.5834,1.9672-1.0873,2.8114-1.939l-8.32-4.7455c-1.4388.9825-2.5753,1.5218-3.8131,2.2756l-4.2943,2.615,8.2226,4.8264,5.3935-3.0324ZM255.9925,95.431l8.2422-4.8482-8.0072-4.6361-8.1391,4.8609,2.4125,1.5031,5.4916,3.1203ZM274.5831,95.5959l3.132-1.707c1.7672-.9632,3.1625-1.8118,5.0268-3.1151l-6.2315-3.8234c-1.3341-.8185-1.8319-.4947-3.1239.259l-4.7581,2.7757-1.8403,1.0736,3.8826,2.2451,3.9123,2.2921ZM179.2244,93.4113l2.9961,1.7159.0511-7.7003c.001-.1523-.1143-.5302-.1645-.6607s-.4714.013-.6042.0903l-2.3471,1.3645-3.5702,2.0751c-.1577.0917-.582.5344-.4451.6448.1028.0829.4165.3386.5453.4134l3.5387,2.0569ZM191.3315,90.7927l-2.9578-1.7778c-1.3075-.6545-2.3847-1.3396-3.7243-2.3006l-.0035,8.0657,6.6856-3.9872ZM90.5926,96.025l-3.7947-2.1803c-1.4022-.9214-2.9126-1.801-4.4774-2.5418l-8.0552,4.705c2.1256,1.5235,3.898,2.5053,5.9917,3.6318.5418.2915,1.6174,1.2302,2.2344,1.0914.8512-.1915,6.7244-3.6658,8.1013-4.7062ZM145.5828,96.047l-4.3692-2.5274-4.0373-2.3052-2.6444,1.6877-5.461,3.1642,6.9998,4.1751c.3312.1975.9021.6274,1.2298.6333.2291.0041,7.063-3.8265,8.2823-4.8277ZM154.1321,100.1102c1.2876.7724,1.8494.7267,3.003.0353l6.7714-4.0585-7.3577-4.3376c-.8722-.5142-1.3782-.424-2.1987.2141-.9737.7572-2.0565,1.2603-3.1625,1.863l-3.0918,1.6848c-.1722.0938-.4076.7286-.2396.8305l.567.3439,5.7089,3.4246ZM181.1986,96.8036l.8532-.396c.1302-.0604-.1188-.5674-.2602-.648l-2.8272-1.6111-5.1234-2.9199-8.1476,4.9025,8.1984,4.798c.8648-.3143,1.7574-.9475,2.5817-1.4196l4.7251-2.7059ZM185.338,96.9092l5.5357,3.2848c1.1731.6961,1.6154.7002,2.735.0353l6.6869-3.9712c-.492-.6267-.8893-.8635-1.5337-1.2411l-5.2464-3.0742c-.607-.3557-1.2143-.8457-1.8731-.4251-1.5736,1.0047-2.9819,1.8939-4.6042,2.7564l-2.3199,1.2334-.1114,2.9104c-.0901,2.3529-.057,4.573.057,6.9885l6.705-3.9266-3.078-1.9868c-1.0822-.6985-2.9517-.8228-2.9528-2.5838ZM214.4342,98.8045c1.6153-.8689,2.9029-1.6908,4.4542-2.7226l-8.3707-4.8511-8.2155,4.9049,6.9417,3.9786c.6026.8054,1.6013.9845,2.4067.1875l2.7837-1.4974ZM234.7215,97.6122l2.27-1.4324c-.5871-.5312-.8751-.7445-1.4024-1.0452l-6.8638-3.9141c-3.0297,2.2267-5.1575,2.6724-7.8591,4.98l6.6873,3.9954c1.1975.7154,1.641.5823,2.824-.0953l4.3441-2.4883ZM246.8611,100.6705l8.2129-4.8209-7.8637-4.622-7.4189,4.3157c-.1693.0884-.6463.6627-.4647.8053.1469.1154.489.3426.7086.4666l6.8258,3.8554ZM286.6395,99.284c1.9287-1.0631,3.5253-1.9185,5.4078-3.2783l-8.3211-4.8173-8.087,4.9152c2.9784,2.0717,4.98,2.7593,7.9822,4.8219.9786-.2982,2.0443-.9632,3.0181-1.6415ZM99.5078,100.2567c.273.3194,1.0637.7382,1.3676.5714,2.6131-1.4346,4.9517-2.7619,7.6256-4.5354l-7.6639-4.4823c-.6329-.3702-1.6776-.1477-2.0326.4885l-6.2565,3.7772,2.1738,1.3099,4.7861,2.8707ZM273.642,96.1881c-.7232-.6243-1.2197-.9134-1.9116-1.3157l-5.751-3.3441-8.082,4.7126c.5579.5093,1.0643.9549,1.5385,1.2252l4.6548,2.6534c.3758.2142,1.0015.6887,1.4197.7144.3803.0234,7.2313-3.9412,8.1316-4.6458ZM81.073,101.7158c.2081-.1332-.1848-.8104-.4018-.933l-7.4368-4.2002-8.2234,4.7557,8.2047,4.977,7.8573-4.5995ZM90.4871,105.6015c.6385.8865,1.5037.4625,2.2047.0462l7.1804-4.2643-8.345-4.8614c-3.1136,2.0104-5.0077,2.6888-8.1257,4.9395l7.0856,4.1401ZM146.5086,107.1325l-4.9589,2.9794c-.9204.553-1.767,1.3292-2.9862.9047l7.0833-4.3586-8.2853-4.8271-5.3092,3.1768c-.8158.4881-1.3818.9776-2.5954.9085.6299-.6578,1.1967-1.0231,1.8892-1.4362l5.1048-3.0454c-1.2375-.8295-2.4673-1.599-3.6954-2.2862l-4.6417-2.5972-5.2733,3.1651c-.8366.5021-1.8311.5989-2.4765,1.4881l8.2471,4.6423c.4422.2489.9954.4131,1.3579.6925,1.6805,1.2951,5.9309,3.7237,7.9029,4.5785.6396.2773.7978.3387,1.365.7734,2.0782,1.5927,4.5879,2.6791,6.7638,4.1392.8295.5566,1.2699.5306,2.0931.0274l6.7525-4.1279-8.3377-4.7973ZM154.6919,101.4774c-1.252-.9822-2.1184-1.5009-3.2394-2.0721l-4.9645-2.8599-8.2215,4.8555,8.259,4.8365,8.1663-4.76ZM165.7773,105.7659l7.3027-4.3274c-.9673-.708-1.9146-1.2235-2.8986-1.7902l-5.3934-3.1065-8.1506,4.8858,6.7309,3.9884c.7619.4515,1.4252,1.0471,2.4091.3499ZM209.6676,101.3171l-8.2962-4.782-8.2042,4.8993,8.1085,4.7722c2.6972-1.1888,5.7617-3.0645,8.392-4.8895ZM219.8698,106.2815l8.1487-4.8131c-1.5124-1.0642-2.8407-1.7378-4.2848-2.5801l-3.9554-2.3073-5.9141,3.3924c-.8036.461-1.6821,1.047-2.2444,1.5336l4.1573,2.4033,4.0927,2.3713ZM245.6883,101.3939c-.638-.8201-1.1488-1.1136-1.8548-1.514l-5.8381-3.311-8.1947,4.8537,7.8847,4.6156,8.0029-4.6443ZM277.6647,104.5079l5.3189-3.0196c-1.946-1.4309-3.6485-2.2064-5.519-3.2901l-2.8181-1.6328-8.1958,4.8772,6.7047,3.904c.4442.2587,1.4111,1.0442,1.8959.7496l2.6135-1.5883ZM293.5737,106.0142l7.5948-4.4671c-1.2707-1.0852-2.5379-1.8293-3.9132-2.5971l-4.3186-2.4109-8.0663,4.8903c.8687.5537,1.4028.9251,2.0585,1.2941l4.6943,2.6417c.456.2566,1.3082,1.0267,1.9505.6489ZM110.9488,105.6958l6.846-4.002-2.9765-1.7743-4.8386-2.7546c-.2582-.147-.7343-.3517-.9531-.2634.9907-.3999-7.274,4.2659-7.2693,4.5166l6.8677,4.1348c.8612.5185,1.4126.6754,2.3238.1428ZM182.2192,105.7101l.0565-7.8466c.0015-.2097-.1642-.829-.3065-.7358l-.6717.4397-6.4017,3.8431,4.2747,2.4958,3.0487,1.8038ZM264.6317,101.4577c-1.499-1.0421-2.8809-1.8865-4.366-2.7211l-1.9886-1.1175c-1.0603-.5958-1.6442-.6933-2.6526-.1008l-6.9392,4.0771,6.9909,4.3469c.5725.356,1.333.0568,1.8707-.2635l7.0848-4.2211ZM65.5945,110.7462l6.7782-4.106-8.2575-4.7736-7.4038,4.289c-.1799.1042-.5136.4582-.4027.6048.0827.1094.3584.4006.5187.4949l5.9961,3.5265c.9663.5683,1.839,1.0473,2.7711-.0355ZM83.5691,110.8984l7.0178-4.0131-1.4895-1.2575-6.6302-3.7474-8.2349,4.8078,6.5455,3.9154c.8727.5221,1.7031,1.3586,2.7913.2949ZM100.8341,111.5319l8.1579-4.892-6.7585-3.9881c-1.1174-.6594-1.6641-.783-2.8057-.0988l-6.8559,4.1096,8.2622,4.8692ZM117.9267,110.864c.9751,1.0303,1.8527.3532,2.6569-.1292l6.3626-3.8167-8.1615-4.7393c-.168-.0975-.6731-.108-.8554-.0576-.1366.0377-.2461.6224-.3808.6976l-2.6298,1.4695-3.5754,1.9958c-.2149.12-.0333.736.2002.8716l6.3831,3.7083ZM160.7356,108.6481l3.1789-1.9825-4.7424-2.7947c-1.0818-.6375-2.4053-1.4427-3.5105-1.9917l-3.9372,2.2816-3.1449,1.8228c-.227.1316-.8941.3328-.8197.5561.0595.1786.3577.5629.5479.6745l6.2088,3.6433c.3857.2263,1.0684.813,1.4203.685.3079-.112.8279-.5094,1.1808-.7213l3.6181-2.1731ZM180.9986,107.494c.3131-.1868.9884-.2698,1.0601-.5034.3624-1.1811-.4592-.6187-2.768-2.0285l-2.8007-1.7102c-.7829-.478-1.7691-.9371-2.6599-1.3491l-7.8429,4.702c.3858.4682.9794.8549,1.5381,1.1773l5.1244,2.9572c.6905.3985,1.3634.9223,2.2276.4067l6.1212-3.6521ZM186.0805,108.8885c-.5786-.3144-1.0425-.7816-.691-1.369l5.4988,3.1907c.2111.5048,1.311.9454,1.8677.6156l7.7994-4.6213-8.1962-4.8658-6.6379,3.8077-.9224.2748c-.2089.0622-.0779.7397.0158,1.0361.1423.4498-.1316,1.1019-.1627,1.575-.1623,2.4733-.1583,4.8103.0366,7.4402l6.3677-3.6384c.2013-.115.1335-.8775-.0149-.9098-.1471-.0321-.5476-.1375-.7094-.2255l-4.2515-2.3102ZM212.8949,110.3286l4.981-3.013c.2638-.1596.5481-.3245.6455-.4854s-.337-.6003-.5332-.7131l-7.4084-4.2568-8.1715,4.8506,3.6868,2.209,3.9351,2.3541c.7903.4728,2.1309-.5017,2.8647-.9455ZM232.4341,109.0825c1.5196-.8748,2.6959-1.5418,4.3023-2.7459l-7.8951-4.4744c-2.5108,1.5747-5.0838,3.0634-7.5965,4.4287-.2379.1293.0492.8064.3104.9597l6.8822,4.0403,3.9969-2.2085ZM273.0799,107.2361c.1497-.0861.3895-.321.4651-.4077.0754-.0865-.2463-.5198-.4101-.6142l-6.3798-3.6779c-.9005-.958-1.6246-.4328-2.4097.0272l-7.0833,4.1501,6.8602,4.0092c1.0716.6263,2.1375,1.1859,3.1089-.1216l5.8487-3.365ZM292.0152,106.7016c-2.0202-1.404-3.5295-2.257-5.3134-3.2268-.9014-.5524-1.8888-1.0919-2.9686-1.5974l-7.1373,4.232c-.2404.1426-.756.4796-.6344.6835.0973.1631.414.4071.6262.5305l7.2468,4.213,8.1807-4.8348ZM309.5366,107.3141c.2149-.1252.6543-.5921.5505-.7586s-.3584-.3469-.6188-.4962l-7.3163-4.1955-4.0152,2.339-4.1779,2.5226,7.099,4.2326c1.0902.65,1.5758.3794,2.5957-.215l5.8832-3.429ZM248.2608,111.0564l7.2394-4.3093-7.7855-4.5644-5.191,2.9651c-1.0166.5807-1.7954,1.0232-2.9467,1.8283l6.3173,3.7969c.7765.4667,1.4071.8545,2.3665.2834ZM55.0736,116.7916l8.25-4.7249-8.3103-4.9166-7.3406,4.2563c-.1908.0339-.721.4227-.6019.5899l.4324.6071,7.5704,4.1882ZM74.8914,116.0591l6.6819-4.0554-7.0927-4.2474c-.3792-.2271-1.2993-.542-1.6492-.3371l-7.6407,4.4751c1.0264.9629,2.1939,1.4851,3.2801,2.1276l3.7143,2.1971c1.1637.6883,1.6297.4935,2.7063-.1599ZM91.7784,116.8226l7.9662-4.6489c-.3597-.5464-.7364-.7984-1.2504-1.0936l-6.6465-3.8175c-.5789.2226-1.2766.5557-1.8355.8751l-3.9674,2.2678c-.9283.5306-1.7664.9392-2.6004,1.7374l8.334,4.6797ZM111.0161,116.3187c2.5035-1.4805,4.6602-2.7009,7.1836-4.3823l-8.3319-4.7756-8.113,4.7444c2.4627,1.7749,4.7291,2.8711,7.111,4.3108.7219.4364,1.281.6169,2.1503.1027ZM173.0459,112.1556c-.7177-.6997-1.1341-1.0085-1.7465-1.3516l-6.4661-3.623-8.1894,4.8115,6.9472,4.1216c.9602.5697,1.4235.7357,2.3885.1717l7.0663-4.1302ZM202.6217,116.2194l7.1111-4.2044-8.321-4.8676-8.158,4.8854,6.7226,3.905c.8531.4956,1.6277,1.174,2.6453.2816ZM219.5784,116.5954l8.1029-4.7893-7.6459-4.5672c-.6652.2112-1.3466.5621-1.9065.8927l-6.4113,3.7846c1.3764,1.0628,2.4657,1.7096,3.7799,2.4643l4.081,2.215ZM258.0713,115.9788l6.6974-3.9994-8.3234-4.8456-8.0144,4.7146c1.0645,1.1126,2.0563,1.6358,3.2259,2.2554,4.4854,2.376,4.1772,3.2111,6.4145,1.8751ZM281.4458,113.0496c.6248-.3617,1.0467-.6401,1.4323-1.2323l-8.1752-4.6777-8.1353,4.866,6.9737,4.1676c1.046.6251,1.6691.4855,2.7287-.1278l5.1757-2.9959ZM293.0483,116.8698l7.5278-4.3191c.184-.1056.6399-.5826.4796-.7137-.1823-.1491-.5525-.4047-.7833-.5375l-7.2336-4.1632-8.2112,4.7977,3.6384,2.2376,4.5822,2.6982ZM312.9724,116.0155c2.2786-1.3682,4.3715-2.4817,6.6787-4.0968l-8.3337-4.7676-8.1428,4.8832,6.9802,4.1485c1.0114.6011,1.679.5163,2.8176-.1673ZM129.7565,115.9911c2.1159-1.2359,4.1336-2.3084,6.2894-3.7716l-7.5161-4.4321c-.84-.4953-1.2943-.1526-1.9923.2722l-6.5457,3.9836,6.9397,4.0237c1.1939.6922,1.6819.5919,2.8251-.0758ZM239.5965,116.1501l6.7872-4.1857-7.6909-4.5162-8.2663,4.8326,6.4418,3.8401c1.1078.6604,1.5499.7559,2.7282.0292ZM175.9352,112.7162l6.2313,3.4904-.0163-8.5458-2.6944,1.6552-3.5862,2.1039c-.193.1132-.575.404-.5295.5869s.3939.5968.595.7095ZM45.5658,121.9188c.6858.3859,1.8647-.6285,2.4018-.9429l6.2028-3.6312-5.5238-3.2694-2.8881-1.637-4.1115,2.4951-3.963,2.4046,5.3325,3.1464,2.5492,1.4344ZM71.6315,117.9477c.2638-.147.5078-.304.5067-.4446-.0053-.6843-2.5798-2.0009-3.344-2.4194-5.0753-2.7797-3.9023-2.9718-6.1264-1.708l-5.6433,3.2067-.7126.4002c-.1292.0725.0667.7026.2582.8103l7.6352,4.2927,7.4262-4.1379ZM89.784,117.9503c.3055-.1818.5059-.3361.6118-.4399.1076-.1053-.186-.6454-.3666-.7482l-6.3344-3.6052c-.742-.4223-1.2945-.7211-1.9941-.2963l-7.4426,4.5194,7.21,4.1537c.6015.3465,1.1892.5182,1.894.2391l6.422-3.8227ZM104.0244,120.3788l5.0614-3.052-7.0004-4.1634c-1.1235-.6682-1.6024-.5255-2.6422.084l-6.9169,4.0545,6.4617,3.7918c1.93,1.1325,2.2343.9748,5.0363-.7148ZM119.8908,121.8057l7.4492-4.5457-7.1314-4.2521c-.9617-.5734-1.4865-.3839-2.3654.1376l-7.0307,4.1722,7.3126,4.2317c.5066.2931,1.0926.6672,1.7658.2564ZM136.4727,121.5579c.5033.2874,1.2548.5746,1.723.292l7.0605-4.262-7.3098-4.3876c-.725-.4352-1.6519-.505-2.1386.2243l-6.6789,3.8664,3.7709,2.2264,3.5729,2.0406ZM174.0448,123.1106l-7.3221,4.2539c-.2809-.1872-.4201-.3363-.5256-.575l7.0108-4.1831-6.7169-3.9287c-.6137-.359-1.4469-1.1045-2.1375-.6274.2214-.1529-7.7729,5.112-7.4575,3.6014l6.0874-3.6736c.2819-.1701.8296-.4685.7314-.6998-.0785-.1851-.3946-.5026-.5798-.6077l-7.3593-4.1748-5.8713,3.3554c-.6154.3517-1.0779.5947-1.9409.9561.1357.1612.7624.7781,1.1466.9958l7.0129,3.9738,1.6334.9537,7.4019,4.282,1.6186.9308,7.8284,4.5682,6.5125-3.7157c.5248-.2994,1.0683-.1388,1.0194-.9488-.0335-.554-.5113-.564-1.0428-.8565l-7.0497-3.8803ZM181.223,118.1109c.6079-.3066.8666-.3017.9253-.925.0497-.5281-.5514-.4974-1.0491-.6703l-2.2663-1.3076-4.7996-2.769-8.295,4.9239,7.0982,4.092c.5494.3167.9722.6101,1.656.4987,2.2649-1.3607,4.3255-2.6294,6.7306-3.8425ZM193.9345,121.3132l6.728-3.9868-7.1433-4.2625c-1.1124-.6638-1.5491-.3811-2.5156.1813l-5.2781,3.0713c-.4707.2739-1.2319.2397-1.1155.928.0769.4545.4231.7137.8695.9372,2.2573,1.1301,4.2018,2.3686,6.3721,3.7388.5735.3621,1.5084-.2668,2.0829-.6072ZM210.4679,121.9319l8.0717-4.8457-7.8172-4.6437-7.2373,4.2491c-.238.1006-.5435.1719-.5316.3282l.0565.7445,7.458,4.1676ZM236.5609,117.8438c.1718-.1933.5321-.7317.3731-.8245l-.5494-.3207-6.9716-3.9781-8.1355,4.875,7.6856,4.5653,7.5978-4.3168ZM239.0712,127.0825c2.3414-1.4682,4.7443-2.6174,6.7634-4.2723.6371-.5222.833-.58,1.8155-.9596,2.4022-.928,4.8705-2.806,7.2208-4.0079.1788-.0914.4407-.7054.2821-.8204l-.5154-.3736-7.3231-4.1502-8.2943,4.8094,7.1359,4.1491.2479.4674c.059.1112-.5775.1902-.7664.0837l-7.507-4.2304-8.2124,4.8291,6.8616,4.0141c.7126.4169,1.3236.9365,2.2913.4617ZM257.4814,117.629c1.9156.857,3.5565,1.7763,5.2244,2.7871l2.9412,1.7585,8.2462-4.8461-8.2644-4.8444-7.7319,4.4721-.5562.9112c-.1133.1856-.9935-.0113-1.2038.1125l-3.8074,2.24-3.9318,2.4261,6.9513,4.1515c.9582.5723,1.5781.561,2.5401-.0203l6.8528-4.1406c-.5328-.8341-8.2961-4.1581-7.2606-5.0075ZM285.2672,121.5318c2.3933-1.4714,4.5293-2.6474,6.8391-4.3185l-8.0879-4.757-8.3837,4.8649,7.4643,4.3381c.6576.3822,1.3385.3825,2.1681-.1275ZM309.7171,117.9059c.1604-.0923.4407-.5522.3608-.6814-.0805-.1302-.3162-.4018-.5023-.5119l-6.1477-3.6368c-.9093-.5379-1.4645-.4428-2.334.0601l-6.1131,3.5352c-.2176.1258-.6464.5724-.5423.7849.0832.17.3838.387.6299.5262l7.3213,4.1419,7.3275-4.2181ZM325.2452,119.4949l3.5461-2.1244c-1.9072-1.3722-3.4198-2.1604-5.2164-3.1544l-3.1426-1.7387-8.0952,4.8606,6.87,4.0609c1.0176.6015,1.436.7777,2.5428.1327l3.4954-2.0368ZM42.3638,124.2233c.8945-.5393,1.4697-.8922,2.5825-1.481-.8495-.6589-1.7351-1.3029-2.6475-1.8086l-5.628-3.1192-8.1556,4.7421,6.5605,4.0003c1.3531.825,2.0119.8477,3.4403-.0135l3.8479-2.32ZM56.626,126.6326l6.7111-4.073-8.2668-4.8189-8.1018,4.8037,6.8326,4.2617c1.1102.6925,1.7069.5052,2.8249-.1733ZM78.6245,124.4382l2.8358-1.686c-1.0944-1.2292-4.4445-2.9582-5.87-3.6984l-2.3386-1.2144-3.6605,2.1443-4.4162,2.5838,7.4326,4.4967c.4734.2864,1.3413.1298,1.8095-.1462l4.2075-2.4797ZM93.386,126.467l6.5592-3.943-8.2424-4.7642-8.0944,4.7969c2.6806,2.1096,4.1385,2.3943,6.8683,4.2337,1.0055.6775,1.9403.634,2.9092-.3235ZM116.0432,123.9855l2.1167-1.2935c-.5908-.5233-1.1642-.9654-1.8777-1.3622l-5.1898-2.8861c-.6634-.6955-1.3818-.5942-2.1248-.1488l-7.1813,4.3053,7.3082,4.3313c.8427.4994,1.806.4807,2.4776-.3247l4.4711-2.6214ZM136.588,122.6341l-8.2786-4.8438-8.2455,4.8224,6.5708,3.9479c1.0553.634,2.1969,1.2013,3.1802.0602l6.7731-3.9867ZM206.5245,124.1302c.9896-.5762,1.7697-.9459,2.7618-1.8787l-6.7417-3.9643c-.7755-.456-1.271-.4128-2.0325.0363l-7.2294,4.2632,6.6364,3.959c.9445.5635,1.6168.4888,2.5025-.0269l4.1027-2.3886ZM279.9791,124.5428l2.9675-1.8383c-.679-.5888-1.4265-1.0709-2.2084-1.5136l-6.0165-3.4062-8.1198,4.8454,6.8327,4.0309c.4872.2874,1.4165.7987,1.8935.5274l4.651-2.6456ZM294.5364,126.702l6.925-4.0682-4.8002-2.8365c-1.1504-.6798-2.4978-1.3804-3.7358-1.9883l-4.8106,2.9027c-1.0449.6305-2.0684,1.2769-3.1565,2.0202l2.2886,1.3094,5.4651,3.1282c.3782.2165,1.3622-.196,1.8244-.4676ZM319.6507,122.5357l-8.2879-4.742-8.1437,4.8935,6.5598,3.737c.8233,1.0368,1.9277,1.0531,2.9714.3652,2.7123-1.7877,4.2683-2.2125,6.9004-4.2537ZM331.5171,126.4648l6.4318-3.7271c-.754-.9013-1.8558-1.2532-2.8545-1.8438l-4.4097-2.6078c-1.3012-.7695-1.1412-.3919-3.7684,1.1549l-5.3355,3.1414,2.1151,1.3455,5.4396,3.1502c.9664.5597,1.5493-.1309,2.3817-.6132ZM146.8333,127.4555l7.6149-4.6134-7.5145-4.4408c-.6539-.3865-1.4687-.277-1.9231.3208l-6.5671,3.8242c1.0897.8,1.8329,1.2878,2.7825,1.8462l5.6073,3.063ZM221.322,126.7346l6.8114-4.136-7.8163-4.5855-8.0583,4.7495c2.1864,1.6933,4.1981,2.5815,6.2249,3.947.9965.6713,1.7355.6946,2.8382.025ZM182.2371,126.646l.0171-7.764c.0005-.2078-.4243-.55-.5098-.4551-.0805.0894-.371.3966-.5415.4989l-6.0811,3.6483c2.172,1.699,4.6286,2.912,7.1154,4.0719ZM191.5493,122.5992l-5.6609-3.296c-.3867-.2251-.6873-.6794-1.2881-.9163l-.0315,7.776c-.0008.188.4294.6295.5092.5242.0769-.1015.361-.4304.5284-.5306l5.9429-3.5573ZM47.0851,132.1671l6.3452-3.6717c.2252-.1303.7146-.6527.5056-.7738l-.7504-.4348-7.2051-4.2476-8.1987,4.8388c1.6008,1.1245,2.6424,1.6698,4.0009,2.4115l3.219,1.9674c.8127.4967,1.183.4314,2.0836-.0897ZM90.7354,128.0354l-2.0816-1.4597-6.1197-3.498-8.1731,4.8973,8.3231,4.7798,8.0512-4.7193ZM137.6619,132.8231l8.1074-4.9003-8.3284-4.8317-7.1484,4.1391c-.3127.1811-.8011.5968-.7172.8703.0699.2279.5758.4519.899.5371l7.1877,4.1855ZM273.5709,128.145c.2958-.175-.4893-.9089-.7156-1.033l-2.903-1.5917-3.0653-1.6838c-.6987-.869-1.4854-.6746-2.2856-.191l-7.138,4.3139,8.3028,4.8013,7.8048-4.6157ZM35.8469,127.7896l-8.1714-4.6902-8.1577,4.7543c1.3094,1.0135,7.8328,4.9288,8.2284,4.768.8262-.3359,6.6552-3.7251,8.1007-4.8321ZM65.6488,132.0341l4.8244-2.8595c.7004-.4152,1.4019-.6127,1.7968-1.4664l-6.7501-3.9495c-1.1054-.6467-1.7542-.4783-2.7464.1085l-5.7428,3.3967c-.2578.1525-.8099.3685-.7445.5871.0524.1753.3446.5023.5629.6281l7.0772,4.0756c.4037.2325,1.2531-.2423,1.7225-.5205ZM105.4567,130.1005c1.2106-.7398,2.5107-1.1263,3.5489-2.3512l-8.2192-4.6679-3.9459,2.295c-1.3899.8084-2.6262,1.5298-4.0672,2.6199l8.2033,4.8419,4.4801-2.7377ZM119.2249,132.6934l2.0004-1.0938,5.2912-3.0354c.2277-.1306.5942-.4355.5551-.6393-.0293-.1527-.2826-.4842-.4718-.5927l-7.4058-4.2449-7.2429,4.2438-.6884.1821c-.1469.0389-.0028.61.1316.6897l4.2472,2.5181,3.5835,1.9723ZM138.5031,133.198c2.5345,1.7193,4.5808,2.6704,6.8416,4.0353.5643.3407,1.0235,1.0255,1.8542.5449,2.4164-1.398,4.9335-2.6408,7.1315-4.3016.6045-.4568.9923-.6415,1.7645-1.0593l7.7251-4.18-7.4319-4.3539c-.3652-.2139-.8266-.4432-1.1785-.5689-.2825-.1009-.7687.5072-1.0471.6719l-6.6096,3.9093,7.5915,4.61c-1.931.4494-2.8365-1.0779-4.1219-1.721-1.025-.5128-2.0785-1.0532-3.0087-1.6614-.7299-.4773-1.2268-.7711-2.0349-.2984l-7.4759,4.3733ZM185.3594,129.0018c0-.1221.5143-.1561.6585-.0677l5.9543,3.652,7.0934-4.055c.3056-.1747.7406-.6622,1.0642-1.0179l-3.0651-1.7751-3.4138-2.0018c-.813-.4767-1.3068-.612-2.1387-.1238l-4.6375,2.7219c-.6244.3665-1.3639.6543-2.109.9381-.0659,1.0473-.1669,2.3377-.159,3.4002l.0448,6.0907,5.2208-2.9112c.3357-.1872.7654-.7008,1.1042-1.1132l-3.6112-1.9369c-.8395-.4503-2.0058-1.0385-2.006-1.8002ZM218.1197,128.4774l.6324-.3462c.084-.046-.0945-.4987-.1772-.547l-2.662-1.5568-4.6974-2.7469-8.2424,4.889,6.7435,3.9702c.2914.439.7971.5362,1.4066.492l6.9964-4.1542ZM236.3757,128.5534c.2991-.1744.7242-.4657.6366-.6349s-.3794-.4885-.5713-.5988l-6.1192-3.5168c-.9095-.5227-1.4634-.7194-2.4064-.1407l-7.0219,4.3087,7.8978,4.6216c.4504.2636,1.0634-.2365,1.4038-.435l6.1806-3.6041ZM247.6218,132.7204l8.0628-4.8238-7.6906-4.4937c-.5269-.3079-1.4233.0542-1.9417.4206l-2.9229,1.725c-1.3162.7768-2.4069,1.4138-3.8572,2.4191l4.6265,2.7408c1.1383.6743,2.4972,1.3936,3.723,2.0119ZM291.5999,128.4006c.1057-.0617.4575-.422.3949-.5173-.0626-.0954-.2928-.3737-.3924-.4312l-7.5788-4.3714-8.1234,4.8015c2.5089,1.6659,4.7276,2.9559,7.1051,4.3131.9015.5146,1.2954.4643,2.1052-.0082l6.4894-3.7865ZM303.2657,132.242l7.3522-4.317-7.1495-4.2234c-.9163-.5413-1.5063-.4764-2.401.0615l-6.9368,4.171,6.9918,4.0806c.8125.4742,1.0978.8411,2.1431.2273ZM328.7638,127.8195l-5.6011-3.32c-.7995-.5166-1.733-.9633-2.7449-1.3805l-6.9628,4.1643c-.1214.0726-.5434.1857-.6833.2296-.1351.0424-.0569.6301.1156.731l7.5836,4.4362c3.056-1.5005,5.6008-2.8904,8.2929-4.8606ZM347.1362,128.0011c-1.4743-1.1892-2.5144-1.643-3.8048-2.3803l-4.4665-2.552-8.1113,4.8466,7.1556,4.2372c.6747.5083,1.5766.512,2.2162-.0435l7.0107-4.108ZM18.9481,137.8155l7.7144-4.5139c-1.0936-1.0893-2.0844-1.2898-3.1115-1.9341l-3.8043-2.3864c-.9819-.6159-1.5352-.4371-2.4696.1069l-5.5387,3.224c-.4925.2867-.9057.6184-1.1653,1.1047l6.5495,3.8411c.5007.2936.9374,1.0774,1.8256.5577ZM44.6007,133.6016c.1979-.115.2753-.735.0821-.8062-.145-.0535-.5567-.1939-.716-.2852l-5.8956-3.3815c-.9365-.9699-1.6552-.5357-2.5399-.0198l-7.0052,4.0852,7.1418,4.2374c.6357.3772,1.2286.6447,1.9647.2218l6.9681-4.0518ZM55.2586,138.0891l8.1542-4.9034-8.007-4.6184c-.3729-.2151-1.1863.385-1.5365.5834l-3.3727,1.9107c-1.2318.6979-2.4133,1.2797-3.4189,2.2792l8.1809,4.7486ZM73.9838,137.8178l6.6678-3.9261c.2318-.1365.7006-.5508.6024-.7724-.0785-.1773-.3863-.4752-.5871-.5922l-5.9249-3.4511c-1.1021-.642-1.5217-.6491-2.5961.0292-1.9576,1.2359-4.0097,2.3805-6.074,3.5097-.2874.1572-.7899.4541-.6911.6824.0761.176.3992.3303.6635.4813l2.1911,1.2515,4.2144,2.3844c.2361.2906,1.0828.6691,1.534.4034ZM92.2125,137.8853l7.8597-4.7141-8.3351-4.7881-7.2504,4.2457c-.2616-.0122-.7943.5108-.645.7007.1194.1519.438.4087.6532.5323l5.6227,3.2303c.6547.3761,1.2655.8428,2.095.7931ZM118.1996,133.4481c-.3938-.669-.8241-.9927-1.3987-1.1765l-6.6522-3.8711-8.3771,4.7788,8.257,4.8466,2.3972-1.2521,5.7737-3.3257ZM135.8252,133.8029c.22-.1268.6943-.7326.488-.8529l-3.7125-2.1639c-.9263-.5399-1.985-1.082-2.7813-1.6136-1.1861-.7919-1.6532-.7081-2.8058-.0356l-6.9862,4.0756,7.3213,4.2895c.949.556,1.3998.3806,2.2921-.1338l6.1843-3.5653ZM165.1743,138.0457l7.6864-4.5586-8.599-5.0066c-1.9921,1.9087-4.8887,2.8288-7.5515,4.7457l8.4641,4.8195ZM221.2002,137.423l7.0538-4.1798-7.0803-4.2101c-.9216-.548-1.5304-.6954-2.5141-.0478-1.8944,1.2471-3.8183,2.4251-5.838,3.535-.3124.1717-.8111.3345-.8337.5778s.4053.5981.6846.754c2.0751,1.1583,4.0785,2.2946,6.0397,3.5333,1.0173.6425,1.4919.6278,2.4879.0376ZM239.4137,137.4669l6.2492-3.6936c.189-.1117.4584-.3121.5832-.4088.0913-.0707-.229-.5505-.3569-.6233l-7.6119-4.3323-7.0088,4.0629c-.3551.2059-.9887.2416-1.1314.8372l7.0045,4.1231c.9101.5357,1.359.5746,2.2722.0348ZM258.1086,137.1488c2.2549-1.2053,4.3155-2.327,6.7106-4.0093l-8.3013-4.7401-8.1084,4.7521,6.8024,4.1697c.9988.6122,1.9899.9014,2.8967-.1723ZM282.2439,133.843c.2045-.1189.6684-.6226.5276-.7572l-.5994-.5731-7.3163-4.1373-8.2153,4.8288,6.6409,3.949c1.0086,1.1282,2.0481.7104,3.0831.1085l5.8794-3.4187ZM291.9244,137.2948c.6875.9662,1.6598.572,2.5079.0904,2.3946-1.36,4.4537-2.5412,7.0572-4.2285l-6.8912-4.0089c-.6097-.3547-1.4557-.8086-2.0549-.454l-2.3416,1.3858-4.239,2.5075c-.2798.1655-.5622.3236-.6622.4998s.3089.5869.4981.6953l6.1257,3.5124ZM319.5677,133.3964c-.9-.9582-1.5696-1.3805-2.4669-1.7773l-5.5624-3.2241-8.2746,4.7968,6.9693,4.2102c.8122.4907,1.6299.8417,2.4698.0311l6.8647-4.0367ZM330.6383,137.6576l6.5647-3.801c.2871-.1663.5419-.3494.6946-.4831.1131-.099-.2266-.5562-.4109-.6504-2.0185-1.0324-4.5236-2.4788-6.4918-3.7091-1.0987-.6867-1.5188-.4989-2.5421.1098l-5.874,3.4939c-.1558.0926-.8885.0668-.8325.1659l.446.7884,6.252,3.7284c.854.5093,1.3152.866,2.194.3571ZM355.7988,133.6718c.1362-.0787.3509-.727.2202-.797l-.5725-.3068-6.0903-3.4824c-.9973-1.0306-1.8477-.3924-2.7392.1336l-6.7393,3.9761,6.7188,4.0038c1.1507.6857,1.4559.9489,2.8225.1592l6.3799-3.6866ZM209.2716,133.6676c.1715-.0997.5425-.7249.3669-.7948-.1319-.0525-.5204-.1864-.6803-.2796l-5.0433-2.9418c-.6179-.361-1.3143-.7011-1.9983-.9328l-8.056,4.7265c2.3465,1.5017,4.312,2.612,6.5201,3.8567.6535.3684,1.3553.8563,2.0282.3563l6.8626-3.9905ZM177.0173,133.9483l5.087,2.8537c.246-2.6368.1922-5.1315.1011-7.8507l-3.386,2.0253c-1.1155.6672-1.9874,1.1485-3.2455,1.7981.2939.3609.9156.8775,1.4435,1.1737ZM32.4026,140.6763c1.247-.7049,2.273-1.3437,3.3969-2.1393-1.0734-.7461-1.7871-1.2802-2.7376-1.8047l-5.5838-3.0808-5.968,3.5365c-.7346.4353-1.4492.7576-1.7863,1.5014l7.9617,4.6531,4.7171-2.6664ZM50.1861,140.9703l3.359-1.9728c.1928-.1132.5189-.5625.4545-.7506-.0645-.1885-.474-.2267-.7394-.3823l-6.3959-3.7491c-.8415-.4932-1.2772-.2202-1.9555.1748l-7.127,4.1495,3.8831,2.4,2.941,1.7675c.9299.5589,1.5847.7404,2.5497.1662l3.0305-1.8033ZM65.9899,142.506l6.511-3.9763-8.2692-4.9156-8.1736,4.8843,8.0222,4.7183c.555-.1058,1.3877-.3919,1.9096-.7107ZM88.7575,139.8831c.6499-.3765,1.3358-.9203,2.0336-1.5341l-8.188-4.6839-8.1396,4.8121,7.0978,4.3064c.6773.411,1.3322.4968,2.0707.0689l5.1255-2.9694ZM101.6908,143.0116l7.4588-4.512-8.2521-4.8469-8.202,4.7962,7.0764,4.2985c.6793.4126,1.1184.7484,1.9189.2641ZM119.2638,143.4013l8.3154-4.9109-7.9954-4.6057c-.5781-.1554-.9296.0959-1.4368.3933l-6.2519,3.6665c-.2181.1279-.7962.3912-.6541.5363.1297.1324.42.3852.5669.4728l7.456,4.4477ZM139.1187,142.578l6.7012-4.0907-6.8571-4.0128c-.5558-.3252-1.6081-.9537-2.0997-.5951-.5557.4054-.9579.7386-1.4266,1.0102l-6.1462,3.5608,6.9534,4.1949c1.0877.6562,1.6131.703,2.8749-.0672ZM155.9297,143.3903l8.2741-4.8722-8.3233-4.8234-3.5048,2.0375-4.7462,2.759,8.3002,4.8992ZM211.9486,142.7834l7.126-4.2262-8.2914-4.9321-8.1884,4.8677,7.6946,4.5776c.3779.2248,1.3235-.0106,1.6593-.287ZM229.8177,143.0127l7.5378-4.5354-8.259-4.7683-7.4538,4.3112c-.1396.0807-.4663.4306-.4176.5315.0488.1011.2683.3614.3841.4281l6.3857,3.6782c.6831.3935,1.1073.7853,1.8228.3548ZM246.1453,142.5883c1.1279.7213,1.6283.7037,2.6781.0708l6.9002-4.1591-8.161-4.8301-2.8456,1.6089-5.5522,3.168c2.5557,1.8605,4.3419,2.4541,6.9805,4.1414ZM273.4437,138.9015c.1597-.0936.3105-.7858.1684-.8319-.1468-.0476-.5047-.1224-.6436-.2054l-3.4626-2.0697-3.8924-2.097-8.1402,4.8503,8.3161,4.8382,7.6544-4.4845ZM285.3654,142.7186l6.9774-4.229-8.2938-4.8121-4.8006,2.8106-3.4524,1.9685,7.0575,4.1917c.6626.9427,1.6354.6016,2.5119.0704ZM302.5051,143.3673l8.0858-4.9313-8.2828-4.7364-8.1316,4.8445,8.3287,4.8232ZM322.097,142.5629l3.2437-1.8423c1.2215-.6938,2.3159-1.3393,3.5674-2.3043l-7.0755-4.1005c-.3323-.1926-.9522-.4424-1.2866-.5158-.3213-.0705-.8657.4569-1.1862.6444l-6.9012,4.0362,7.1327,4.2218c.3408.2017.9239.4681,1.295.5754.3119.0902.7986-.4811,1.2107-.7151ZM346.2027,137.7602l-2.6278-1.3969-4.5563-2.7038-8.2256,4.826,8.2916,4.8761,7.949-4.6241c-.1955-.4423-.4856-.7937-.8309-.9772ZM357.4353,143.3375l4.0964-2.3393c1.3505-.7712,2.6182-1.5883,4.0711-2.5607l-4.4252-2.5288c-1.3295-.7597-2.6112-1.5863-4.1316-2.193-2.3372,1.525-4.97,3.0496-7.2867,4.3025-.1217.0658-.4692.4489-.3841.5278.0853.0791.3186.2796.422.3427l3.4018,2.0766,4.2363,2.3722ZM10.5865,142.7355l7.1617-4.2926-7.0744-4.0523c-.8185-.4688-1.6791-.7079-2.439-.0693l-7.103,4.1454,7.1394,4.2972c.7169.4315,1.4957.6277,2.3153-.0284ZM173.7995,143.1427l7.9172-4.6052-8.1287-4.6938-2.6892,1.7112-4.9196,3.0074,7.8203,4.5803ZM192.9787,143.0766l4.059-2.2896,2.4331-1.4469.9-.4673c.163-.0846.1394-.6945-.0137-.7932-.3962-.2553-1.3022-.6168-1.7239-.8571l-5.8041-3.3089c-1.3005.8218-2.2961,1.4775-3.4965,2.154l-4.2216,2.379,2.4812,1.5302,2.8407,1.6556,2.5458,1.4442ZM93.2404,147.9179l5.7767-3.4364.6433-.2814c.1476-.0646-.0194-.7442-.2286-.8638l-7.6326-4.3604-4.8744,2.7852c-1.077.6154-2.1044,1.2766-3.2397,2.1135l7.0394,4.2439c1.0202.615,1.5367.3819,2.5159-.2007ZM239.6719,147.9634l6.9075-4.1376-6.7658-4.0196c-.4123-.2449-1.2551-.935-1.6258-.7345-2.7911,1.5093-5.3303,3.0058-8.1235,4.7782l6.9471,4.0934c1.0656.6279,1.5207.7029,2.6605.0201ZM20.0964,147.8896l6.7431-4.0957-7.1029-4.1587c-.8506-.8237-1.7583-.3639-2.6177.1445l-6.6837,3.9535c2.2296,1.6442,4.3664,2.7988,6.6041,3.9824.8973,1.0196,1.9064.873,3.0572.174ZM45.1784,143.8317l-6.9172-3.995c-.6934-.9909-1.7012-.6667-2.5658-.1529l-7.0766,4.2053,8.3107,4.7752,8.2488-4.8326ZM55.5864,148.42l4.2077-2.3566c1.2296-.6886,2.1317-1.273,3.632-2.2825l-8.2322-4.8347-7.2125,4.2341c-.2412.1416-.6745.5625-.5682.7796.0851.1737.4165.4729.6085.5822l5.843,3.327c.4472.2547,1.2987.7877,1.7216.5509ZM81.7238,143.752l-6.7612-3.9923c-1.1388-.6724-1.6411-.7302-2.788-.0469l-6.8779,4.0972,7.0859,4.2326c.3766.225,1.0189.6587,1.481.4068,2.7054-1.4743,5.084-2.8387,7.8603-4.6974ZM118.3948,143.8392l-8.3088-4.8569-7.8528,4.5963c.1198.445.3361.7473.6577.9288l7.3959,4.1713,8.108-4.8394ZM129.8041,147.8672l3.1504-1.6855,3.7063-2.4235-8.2824-4.7716-7.125,4.1886c-.2388.1404-.8743.3167-.779.5285.0762.1694.3826.5817.5537.6795l7.0773,4.0447c.7193.4111,1.1362-.2596,1.6988-.5606ZM147.8016,148.1276l7.2942-4.3215-7.1045-4.0198c-.6773-.7746-1.8152-.8293-2.5368-.0532l-6.9593,4.1211,7.0166,4.0938c.8736.5097,1.2314.8067,2.2898.1796ZM172.2155,144.0801c.1702-.0993.5465-.5118.4596-.5914-.085-.0778-.3575-.3505-.4599-.4105l-6.1646-3.6088c-.847-.4958-1.4949-.2397-2.1851.1668l-7.0597,4.1584,6.7854,4.0651c.3634.2177,1.1253.5957,1.5347.3569l7.0896-4.1366ZM210.0052,143.7606l-7.2003-4.1885c-.6644-.5088-1.6791-.5313-2.3147.0659l-6.6609,3.8906,8.4756,4.8975,7.7004-4.6655ZM221.3303,147.987l6.8217-4.1616-6.5893-4.0083c-1.2177-.7407-1.8095-.7578-3.0135-.0395l-6.7567,4.0305c1.4364,1.0301,7.9809,4.7389,8.4084,4.7422.3028.0023.8002-.3624,1.1294-.5632ZM258.0028,148.0066l6.8615-4.2217-6.7533-3.9426c-.4176-.2438-1.0916-.7379-1.5034-.7131-.3603.0217-1.0001.3841-1.3722.6033l-6.7944,4.002c1.2209.919,1.9024,1.3115,2.9081,1.8897l4.1004,2.3574c1.0672.6135,1.5693.6304,2.5532.025ZM276.3295,147.8734c2.3184-1.2597,4.4173-2.4659,6.834-4.1301l-8.2262-4.7653-8.2769,4.8132,4.8625,2.9396,2.3918,1.275c.3362.1792,1.0378.6604,1.3558.5212.2726-.1193.7247-.4264,1.0589-.6535ZM294.4727,147.9888c2.3804-1.3874,4.4907-2.5,6.9941-4.1857l-6.7554-4.0439c-1.1082-.6634-1.7467-.8425-2.8923.0079-2.2923,1.7014-4.175,2.0236-6.6772,4.1362l7.0877,4.2137c.8795.5229,1.3447.3956,2.2431-.1281ZM312.6894,148.0482l7.0419-4.1719c-2.5027-1.7102-5.9323-3.8151-8.3905-4.8026-2.3722,1.4724-5.2018,3.1-7.42,4.2627-.1589.0833-.3852.6276-.2929.6821l6.634,3.9148c1.0923.6446,1.447.6958,2.4275.1149ZM337.3516,144.4099c.2163-.1241.598-.476.549-.6776s-.429-.3308-.7112-.4961l-5.8518-3.4263c-.8796-1.0956-1.8911-.611-2.8049-.0655l-6.8005,4.06c2.467,1.6835,4.559,2.7799,6.8882,4.0929.3808.2147,1.2194.8224,1.5946.6071l7.1365-4.0947ZM348.6588,148.4696l7.7472-4.5672c-1.657-1.1214-2.7736-1.8315-4.2185-2.6712l-2.6216-1.5237c-1.9688-1.1443-2.2339-.2057-5.8862,1.9265l-3.7676,2.1994,7.2654,4.2259c.3374.1962,1.0831.6451,1.4813.4104ZM166.4524,149.3778l7.8486,4.6003,5.9169-3.4357c.4468-.4561,1.0168-.569,1.7518-.5912l.171-2.191c.1943-2.4885.1828-4.8631-.0407-7.4847l-3.1934,1.8743c-1.07.628-2.1277,1.0172-3.1471,1.9985l5.2366,3.147c.1106.0665.4217.4884.3298.5704l-.3629.3236c-.091.0812-.3592-.2557-.467-.3194l-5.7477-3.3943-8.2959,4.9022ZM192.5939,164.5749l2.6026-1.439c1.9179-1.0604,3.5988-2.0724,5.7155-3.4102l-7.0612-4.155c-1.1624-.684-1.6825-.5475-2.81.1428l-5.0417,3.0863c-.1487.091-.7869.1655-.753.0235.034-.1426.1865-.6653.3194-.7413l3.3467-1.9129c.9922-.5671,1.7812-1.0909,2.6411-1.887l-5.9233-3.4574c-.1134-.0662-.3714-.4654-.3379-.5946s.2478-.4135.3625-.3448l.5421.3247,6.3202,3.7686,6.8612-3.9258c.178-.1019.6643-.1903.8217-.2068.1047-.011.1336.3075.1979.5794l-6.8396,4.024,8.1132,4.8294,6.8435-3.8843c.3077-.1747.8865-.1201,1.2557.1098l-6.941,4.0386c2.2349,2.1678,5.1291,2.831,7.9325,4.9679,1.6907-.557,4.7002-2.4452,6.2307-3.4582.616-.4077,1.2818-.9761,2.0253-.2496l-7.0589,4.288,8.1588,4.8049,3.1902-1.7884,4.7852-2.7586c-2.7135-1.6437-5.31-3.1436-8.0167-4.5729-.6744-.3561-1.2173-.5814-1.7988-1.0064-1.5665-1.1448-6.1473-3.7705-7.9843-4.5426-.4565-.1919-.8587-.6014-1.2429-.8416-3.3708-2.1081-5.7845-3.342-9.045-5.2437l-7.9131-4.6154-6.7163,3.9374c-.3314-1.0864.5024-1.1818,1.0808-1.5262l4.7899-2.8523-6.6713-3.7689.0494,6.9277c.0285,3.9973-.2368,7.5491.0709,11.1934.1558,1.8452-.4465,7.2407-.0428,10.3413l.2109,1.6199c.0486.3731-.257,1.1752-.2705,1.5504-.0885,2.4493-.1639,4.8734.0646,7.2618.1151,1.2034.142,2.1951.0243,3.4273-.2334,2.4442-.1207,5.1504-.0688,7.6265.2869.2451.7957-.2246,1.0878-.3857,2.101-1.159,3.936-2.1657,6.0523-3.6488l-3.5086-2.1781c-1.1192-.6948-2.4495-.886-3.2106-2.3701.7264-.0253,1.2968.3557,1.9337.7254l4.2955,2.4928c.4659.2704,1.1615.856,1.6336.8184.1272-.0101,7.1529-4.0075,8.0949-4.8612l-7.0402-4.0789c-1.0962-.6351-1.6841-.4719-2.7283.1576l-5.1606,3.1107c-.1583.0954-.5214.2041-.6763.2329-.1549.0288-.2034-.502-.131-.6418.2793-.5391,5.4899-2.9458,6.5115-4.1309l-2.7436-1.5912-3.4283-1.9466c-.1836-.1042-.3971-.5662-.4696-.7208-.0478-.1019.6146-.1515.7039-.099l3.525,2.0727,2.4773,1.4519c.744.4361,1.297.2968,2.008-.1168,2.3714-1.3797,4.488-2.5135,7.0333-4.2299l-6.7559-4.0927c-1.1785-.714-1.9-.6445-3.0473.1395-.8323.5688-1.8703,1.1271-2.78,1.6785-1.0181.6171-1.7749,1.4206-3.1209,1.6162-.315-1.347,5.1173-3.1516,6.4767-4.776l-5.9929-3.4064c-.2003-.1138-.4602-.6679-.2997-.7575s.3908-.2564.5011-.1794l.5302.37,6.2098,3.6549ZM29.3498,153.1766l6.6229-4.0936-8.2068-4.8171-3.7487,2.1727c-1.5071.8735-2.7201,1.4924-4.4227,2.7358l6.3673,3.6753c1.0149,1.0853,2.113,1.1149,3.388.3268ZM54.2865,149.0345l-8.2702-4.7473-8.1699,4.7966,8.3928,4.9003,8.0473-4.9497ZM69.397,151.1446c1.1379-.6349,2.0196-1.2797,3.1891-2.1067l-7.0168-4.0913c-.3761-.2193-.9751-.5039-1.3472-.5648-.3482-.057-.8849.5227-1.2451.73l-5.9342,3.4147c-.1937.1115-.6067.4702-.5339.6559s.3561.4422.577.5706l7.2522,4.214,5.0588-2.8225ZM82.8306,153.9881l8.1471-4.8645-6.9562-4.1346c-.4003-.2379-1.2204-.4709-1.6699-.5493l-7.8507,4.6323c1.1364.7731,1.9856,1.3378,2.9902,1.9044l5.3395,3.0116ZM108.4534,149.7104c.1611-.1486.4272-.5381.3705-.7308-.0425-.1445-.2924-.3318-.4818-.4699l-7.3149-4.2618-8.3149,4.8428,8.3348,4.8879,7.4064-4.2682ZM123.6867,151.4835c1.2913-.7685,2.4818-1.2497,3.7384-2.48l-8.134-4.7348-8.2311,4.8266,8.3598,4.9275,4.2668-2.5394ZM145.2045,149.6314c.1944-.112.3512-.7898.2136-.8682l-.4259-.2427-2.9758-1.7038-2.9531-1.7537c-.4204-.2497-1.4345-.8033-1.8498-.5627l-7.7928,4.515c.966.8422,1.8907,1.2869,2.8089,1.8211l5.0303,2.9269c.5074.2952,1.3534-.3355,1.914-.6584l6.0306-3.4734ZM159.6742,151.3961l4.1342-2.5508-7.8279-4.5459-8.2338,4.8439,6.671,3.9617c.4475.2658,1.0701.5423,1.4473.5096l3.8093-2.2185ZM228.4308,154.4137l-8.3578-4.7698-4.3241,2.4035c-1.1572.6432-2.1173,1.6443-3.6587,1.6563,2.0058-2.1343,4.6205-2.6351,6.9775-4.6444l-8.1637-4.7603-7.9349,4.5466,8.1446,4.7069c.5155.2979,1.14.4415,1.6079.8317,1.0554.8801,2.3097,1.4523,3.5069,2.145l4.3515,2.5178,7.8508-4.6333ZM236.9195,149.5602c.246-.143-.1046-1.0078-.3531-1.1403l-3.6987-1.972c-3.6953-1.9702-2.8467-2.6349-4.9196-1.4315l-6.9273,4.0216c2.455,1.8681,4.7635,2.7499,7.0248,4.2684.7442.4998,1.3291.6413,2.1471.1656l6.7267-3.9119ZM247.7276,153.9849l7.957-4.8355c-1.8242-1.3127-3.2611-2.0112-4.9016-2.9592l-3.2436-1.8744-4.6101,2.6307-2.695,1.5435c-.2757.1579-.7991.4404-.7065.6662.0741.1806.3978.5032.5712.5982l3.7368,2.0476,3.8918,2.183ZM267.9243,152.7967c2.1405-1.1947,3.8498-2.2085,6.0847-3.7148l-8.1467-4.8299-8.2313,4.8747,8.1728,4.8536,2.1206-1.1836ZM287.5126,152.056c1.6784-.9778,3.065-1.7601,4.8544-2.9863l-8.2588-4.7974-6.9957,4.0851c-.2922.1706-1.0947.665-.9305.9448l7.6443,4.564c1.2592-.3539,2.5847-1.1682,3.6864-1.81ZM310.2973,149.388c.1893-.1113-.3011-.7901-.488-.8953l-7.3782-4.1501-7.8256,4.432c-.1142.3957.3721.8918.7692,1.1187l7.1309,4.0758,7.7919-4.5811ZM324.9331,151.6133c1.4355-.8296,2.5878-1.5238,4.0256-2.5645l-6.7223-3.9101c-.4596-.2673-1.4618-.9499-1.9601-.655l-7.7659,4.5972,7.0133,4.2113c1.0336.6206,1.4917.5852,2.5392-.0202l2.8703-1.6588ZM346.5946,149.6726c.222-.1283.6455-.2724.5797-.4287-.0495-.1176-.3113-.5331-.4864-.631l-7.6873-4.2972-7.2346,4.1994c-.2566.149-.6093.2213-.6728.3963-.0473.1304.2247.572.3627.6513l7.6878,4.4172,7.451-4.3073ZM92.111,159.2603l7.9079-4.8032-7.4504-4.5115c-.694-.4202-1.4085-.0249-2.0276.3517l-6.7621,4.1137,3.1509,1.9638c1.6434,1.0242,3.4258,1.968,5.1812,2.8855ZM293.3401,159.2583l7.5693-4.3492c.1659-.0953.418-.622.4417-.7769.0236-.1547-.48-.2227-.6429-.3159l-7.3866-4.2251-4.2434,2.4493c-1.3469.7774-2.5555,1.4553-3.9897,2.4468l8.2517,4.7711ZM311.7753,159.2583l5.8179-3.4274c.8131-.3568,1.4468-.8171,2.1536-1.6038l-8.1064-4.6202-7.9148,4.5432c-.007.104.3702.7584.635.9084l7.4147,4.1998ZM45.1217,154.3185l-6.9391-4.0189c-.88-.7599-1.998-.538-2.7876.2052l-6.7143,3.9573,5.1336,3.0103,2.9678,1.7944c2.8988-1.4567,5.6432-2.9391,8.3397-4.9483ZM55.3161,159.2556l7.4435-4.2177c.1919-.1087.5-.7379.301-.855l-7.7541-4.5605-7.4896,4.2903c-.1888.1082-.6601.299-.5763.4432.063.1084.3276.463.4479.5319l3.0367,1.7385,4.591,2.6293ZM74.7173,158.6522l7.0801-4.2354-6.8166-4.0695c-1.004-.5994-1.6798-.6523-2.6848-.0621l-6.9482,4.08,6.9297,4.1946c.9472.5733,1.4563.6809,2.4399.0925ZM111.7703,158.435l6.6875-4.0522-6.6882-3.92c-.9785-.5735-1.8454-.8984-2.8675-.2037-3.0724,2.0881-4.26,2.2333-6.8191,4.2933l7.9669,4.6662c.5645-.2359,1.2141-.4768,1.7204-.7836ZM136.7105,154.4603l-6.8394-4.0869c-.6595-.3941-1.4486-.7715-2.1827-.3452-2.5177,1.4621-4.799,2.7744-7.3912,4.4665l8.4604,4.8778c2.7187-2.0936,4.8506-2.6687,7.9529-4.9122ZM146.4979,159.0533l8.1253-4.8765-6.6785-3.9098c-1.1412-.6681-1.6322-.4229-2.6977.1999l-5.7288,3.349c-.2308.1349-.7155.6074-.5809.8144.1077.1656.4081.3684.668.5157l6.8927,3.9073ZM245.8786,154.9459c.2116-.1232.5902-.6378.4295-.7316l-.5796-.3385-5.752-3.3561c-1.2659-.7386-1.8689-.9126-3.244-.0663l-6.5245,4.0157,8.2272,4.8113,7.4433-4.3345ZM263.8026,155.233c.4269-.2447.7884-.728.8726-1.0879l-6.7718-3.8687c-.9261-.5291-1.6558-.5612-2.5723.0025l-6.8038,4.1848,8.2328,4.8067,7.0426-4.0374ZM275.1347,159.2571l8.1893-4.7828-6.9033-4.0596c-.4857-.2856-1.1597-.5276-1.7183-.6636l-6.884,4.005c-.3067.1365-.9534.3128-.828.5372.145.2593.4727.622.6728.7353l7.4714,4.2285ZM329.9881,159.2374l8.2276-4.7713-6.231-3.7023c-.7063-.4197-1.7582-1.3054-2.5935-.8285l-4.857,2.7729-2.8589,1.7451,8.313,4.784ZM166.7377,158.4776l6.6686-4.0467-6.5272-3.8915c-.9125-.544-1.6221-.5866-2.5743-.009l-6.8846,4.1758,6.367,3.8099c1.1939.7144,1.6869.7283,2.9505-.0385ZM166.7862,160.1864l6.0692,3.5436c.6888.4022,1.3461.9821,2.1039.5367l6.2154-3.6525c.281-.1651,1.1702-.3543,1.0279-.6936l-.4788-1.1416c.1678-.244.5526-.8244.5505-1.2172l-.0355-6.663c-.001-.1905-.3937-.634-.4964-.5344-.1013.0983-.385.4176-.5452.5114l-5.8626,3.4329c.977,1.3473,5.4811,2.8954,6.3133,4.3322-.7178.128-1.137-.2065-1.7661-.5636l-5.5782-3.1663-7.3573,4.228c-.1909.1097-.721.2496-.6447.4021.0574.1148.3302.5552.4845.6453ZM54.3688,159.7467c-1.6189-1.0902-2.6937-1.6817-4.0707-2.4016l-2.6911-1.6551c-1.1063-.6804-1.6458-.772-2.773-.0996l-2.9167,1.7399-4.0961,2.3789,7.0856,4.1305c.8331.4856,1.3099.7371,2.1912.2149l7.2707-4.3079ZM65.0195,164.3034l7.6975-4.6203-7.3836-4.2953c-.8834-.5139-1.4102-.2748-2.2609.229l-6.8384,4.0499,7.1672,4.369c.4066.2479,1.1529.5469,1.6182.2676ZM84.3714,163.7432l6.6773-4.0565-7.3041-4.2608c-.789-.4946-1.7459-.414-2.3588.2881l-6.9016,4.0008,6.9996,4.1225c.9014,1.0047,1.8865.5139,2.8875-.0942ZM102.2769,163.9304l7.0608-4.244-7.7143-4.4702c-.5617-.3255-1.4492-.0731-1.8287.4286l-6.9192,3.9674c2.3218,1.6419,4.5055,2.7712,6.7097,4.1296,1.0471.6453,1.4356.9436,2.6917.1886ZM119.4767,164.5858l8.1541-4.8419-7.7861-4.5872c-.4604-.2713-1.3589-.0116-1.6972.3746l-3.5874,2.1572-3.3908,1.9865,8.3074,4.9107ZM145.4205,159.5523c-1.2772-1.0708-1.9716-1.4131-3.0449-1.922l-3.7825-2.2326c-.839-.6157-1.4487-.21-2.188.2182l-7.0523,4.0847,7.9877,4.63,8.0801-4.7782ZM231.0948,163.6084l6.4688-3.8688-7.0686-4.1759c-1.0227-.6042-1.6418-.4849-2.5608.0572l-6.5044,3.8364,7.8322,4.6519c.7011.4164,1.1802-.1105,1.8328-.5008ZM247.7168,164.5785l8.1947-4.8431-7.015-4.1208c-.8794-.5166-1.6881-.8566-2.5433.0035l-3.2797,1.8553-3.7724,2.2038c1.8314,1.2431,3.1233,1.9375,4.7589,2.8535l3.6569,2.0479ZM274.0974,159.7626c-1.5424-1.09-2.4944-1.5118-3.7245-2.2481l-3.3941-2.0315c-.8724-.5222-1.4295-.4778-2.2565.0183l-7.0317,4.2187,6.9903,4.242c1.0373.6294,1.4587.5161,2.4777-.0877l6.9389-4.1117ZM285.384,164.032l7.0913-4.2877-7.0633-4.2164c-1.1331-.6764-1.7174-.4205-2.7748.2046l-6.7104,3.9669,7.2187,4.2971c.4609.6131,1.5022.4807,2.2385.0354ZM310.7429,159.7571l-8.3115-4.8646-8.2515,4.8075,8.3479,4.9258,8.2151-4.8686ZM328.9869,159.7365c-2.586-1.7857-4.6472-2.8509-7-4.1189-.7732-.8108-1.5135-.5147-2.3505-.0304l-6.1047,3.5331c-.2703.1564-.5918.3062-.6689.4833s.3034.5098.5067.6278l7.4872,4.3445,8.1302-4.8394ZM164.2384,159.6511l-7.7722-4.5423-8.2916,4.9011,7.8954,4.5949,8.1684-4.9538ZM73.8962,169.8596l7.9614-4.8793-8.1339-4.7146-3.3624,1.8473-4.9044,2.8406,4.4114,2.7687c1.2827.7565,2.6173,1.4988,4.0279,2.1373ZM97.6438,166.5947c.8787-.5118,1.6819-.9864,2.4119-1.658l-5.9593-3.5638c-.5287-.3162-1.7502-1.1977-2.3123-.9498-2.2751,1.0034-5.6096,3.102-7.9907,4.684l8.1707,4.7958,5.6796-3.3082ZM136.3996,164.7266l-6.3083-3.6277c-.8961-1.0834-1.9092-.7685-2.9139-.1619l-6.7544,4.078,7.6813,4.6463,8.2953-4.9347ZM165.2024,169.9034l7.1469-4.1414c.2634-.1526.6426-.5184.7383-.7471s-.51-.5528-.7697-.7049l-5.7116-3.3423c-.984-.5758-1.5521-.754-2.6282-.1093l-6.7394,4.0377c.5099.8139,1.1723,1.0497,1.8891,1.4616l4.4714,2.5696,1.6033.9761ZM209.9984,165.0945l-6.8916-4.2268c-.8924-.5473-1.3938-.6836-2.318-.1308l-7.2242,4.321,8.3036,4.842,8.1303-4.8054ZM240.665,168.6977l6.1918-3.665-8.414-4.8098-5.8886,3.4306-1.9763,1.1146,7.195,4.257c1.3122.7764,1.6291.4202,2.8921-.3274ZM262.5546,166.5387c.798-.4745,1.4958-.9419,2.3319-1.6145l-7.9676-4.6895-2.0184,1.0078-6.4231,3.7733,8.4294,4.8813,5.6478-3.3583ZM283.2621,165.0347l-3.0862-1.9103c-1.4162-.8766-2.8484-1.6107-4.2606-2.5421-.7373-.4863-1.288-.1136-1.9385.2632l-7.1974,4.1695,8.4376,4.923c2.7903-1.9495,5.2914-2.851,8.0451-4.9033ZM313.6929,168.7505l6.2479-3.7045-8.1259-4.8704-8.3903,4.812,4.7698,2.8184,3.1182,1.8458c.6039.3575,1.7274-.5142,2.3804-.9013ZM61.1555,166.4988c.8149-.4843,1.5654-.9351,2.2352-1.5594l-4.3321-2.5858-2.4037-1.4533c-.7281-.4402-1.6871-.5587-2.4511-.1103l-6.0867,3.5719c-.2661.1561-.8048.4482-.7117.6714s.5165.5056.7931.6674l6.7588,3.9533c.5222.2486,1.6123-.4299,2.1604-.7556l4.0377-2.3996ZM110.4079,169.9032l8.0574-4.812-6.721-4.1088c-1.2264-.7497-1.9265-.4829-3.0785.1884l-6.5959,3.8435,8.3381,4.8889ZM153.545,166.0676c.5877-.3431,1.317-.6833,1.2054-1.2998l-7.4566-4.3078-8.1708,4.7748,6.8199,4.127c.5159.3122,1.014.5518,1.5829.2197l6.0192-3.5139ZM293.4775,169.898l8.1818-4.8962-7.5904-4.415c-.5649-.3286-1.5833-.0605-2.0036.3609l-6.8575,3.9815c1.0723.9235,2.0858,1.4715,3.2021,2.0934l5.0676,2.8755ZM182.2022,169.1281l.0779-7.233c.0021-.1951-.177-.9167-.3318-.8273l-.7181.4147-5.101,3.0035c-.2383.1403-.4863.3505-.5277.5325-.031.1365.2949.4694.4558.5622l6.1449,3.5473ZM156.132,175.158l8.164-4.8159-8.3904-4.9194-7.3781,4.4297c-.1469.0274-.4867.6831-.2241.8331l7.8285,4.4725ZM249.5074,174.1816l6.3477-3.8041c-2.3857-1.6823-4.7162-2.9065-7.1064-4.2333-.7544-.4187-1.1086-.7132-1.94-.2246l-5.5979,3.2897-1.5523.8191,7.5783,4.4283c.9727.5684,1.3634.2687,2.2706-.275ZM64.5924,175.1914l8.1605-4.8861-6.9354-4.0258c-.6443-.374-1.4054-.71-2.0552-.4042l-3.1623,1.8448c-1.4321.8355-2.6958,1.6383-4.2609,2.6639l8.2534,4.8074ZM82.8757,175.2161l8.228-4.8527c-1.0358-.7048-1.7529-1.1957-2.6771-1.7005l-5.4019-2.9508c-.3648-.1992-1.1967.2732-1.538.4757l-3.2716,1.94c-1.22.7234-2.3016,1.3479-3.5585,2.2041l8.2193,4.8843ZM109.4027,170.3264l-6.897-4.0716c-.8541-.5042-1.7553-.9095-2.6537-.0918l-6.9219,4.1198,7.3473,4.4904c.4358.2664,1.2519.2506,1.7076-.0213l7.4177-4.4254ZM119.1954,174.8804l8.1427-4.763-6.5733-3.897c-.3814-.2261-1.2419-.6462-1.6355-.5329-.3445.0992-.8662.4402-1.2802.6883l-6.647,3.9829,5.7301,3.3434c.6195.3614,1.506,1.1377,2.2633,1.1783ZM175.5719,174.5647l4.4976-2.665c.4718-.2796,1.3958-.7419,1.8223-.9544.2476-.1234.3749-.9304.1517-1.0584l-.9367-.5371-6.089-3.5165c-.7189-.4152-1.6133.0509-2.1932.4165l-1.9448,1.2258-4.0762,2.4531c-.1249.0752-.5061.2322-.4478.3328.0581.1004.2878.42.4032.4888l2.3595,1.4046,3.9449,2.2944c.945.5496,1.4256.7569,2.5084.1153ZM212.4514,174.4122l6.8233-4.0829-6.4831-3.8346c-.5292-.313-1.4261-.8039-2.0503-.8633l-7.8843,4.6227c1.0299.7761,1.8119,1.2736,2.7825,1.8348l4.9432,2.8579c.4114.2379,1.4326-.2734,1.8689-.5345ZM228.0678,174.4527c.5601.3236,1.1263.9367,1.8207.5179l7.2883-4.3961-7.815-4.563c-.8148-.4757-1.2191-.0404-1.8436.3964-1.3899.9722-2.8518,1.8574-4.325,2.6738-.742.4112-1.3406.5879-2.0295,1.3822l6.9042,3.9889ZM274.0441,170.5473l-.7042-.8536-7.5188-4.1868-8.1822,4.8273,8.3,4.8863,8.1052-4.6732ZM284.3081,175.1496l8.2393-4.777-7.0028-4.1287c-.6104-.4085-1.5244-.6726-2.109-.44-2.3451,1.665-4.9703,3.1501-7.3051,4.2799.0383.0826.3598.6458.5366.7458l7.6411,4.3201ZM303.6723,174.6446l7.0092-4.226c-.8249-.7361-1.6263-1.1311-2.4752-1.6217l-5.6941-3.2908-6.3862,3.7086c-.634.3682-1.4981.8252-1.3681,1.4491l6.502,3.7484c.9404.5421,1.4081.8381,2.4125.2325ZM138.9843,174.5363c2.3889-1.383,4.7312-2.6775,7.0699-4.2707l-7.8635-4.4981-8.2408,4.8045,6.6573,3.9588c.9379.5577,1.4171.5613,2.3771.0055ZM81.989,175.6494l-7.5975-4.598c-.5811-.1652-1.3422-.0571-1.7622.3275l-7.2179,4.2422,8.2865,4.8831,8.2911-4.8547ZM100.2025,175.671l-4.366-2.7035-3.8862-2.1702-8.2408,4.7896,3.3349,2.0021,4.8946,2.9389,8.2635-4.8568ZM110.541,179.944l7.687-4.5415-7.8554-4.6621-8.2991,4.8619,6.6577,3.9813c.602.36,1.1323.7324,1.8099.3605ZM146.989,180.5236l8.3023-4.9008-7.0537-4.0982c-.7939-.8592-2.0638-.7477-2.804.1565l-6.7251,3.9144,8.2805,4.928ZM165.3046,180.5088l8.2351-4.9412-6.489-3.618c-.5618-.3132-1.3539-1.0718-2.041-1.0429l-7.8068,4.525,1.1349,1.0215,6.9669,4.0556ZM210.1232,175.5973l-8.2433-4.8105-8.2622,4.7934,8.2282,4.9438,8.2773-4.9267ZM221.9273,179.5072l6.502-3.9365-8.2967-4.7849-8.088,4.7429c1.2022,1.0032,2.4196,1.6402,3.6678,2.3575l4.3329,2.49c.5682-.0765,1.3474-.4847,1.8818-.8691ZM258.8505,179.3698c2.0415-1.2605,4.0863-2.2153,6.1147-3.7911l-6.6437-3.8817c-1.03-.985-2.0806-.6783-3.1567.0157-2.0518,1.3232-4.0337,2.3971-6.3463,3.5884l7.2124,4.2699c1.2616.7469,1.5842.5616,2.8196-.2012ZM275.5193,180.3448l7.9869-4.7828-7.8872-4.5382c-.4481-.2578-1.3661.0605-1.6422.46l-7.0445,4.0692c1.5186,1.0033,2.6139,1.7146,3.9858,2.4985l2.3182,1.3247c.7209.4119,1.4009.8451,2.283.9686ZM301.7391,175.5915l-3.5977-2.0812-3.5135-2.0325c-1.7769-1.0279-1.5356-.4655-3.5966.7209l-5.6634,3.2599c.7637.7667,1.7823,1.3561,2.7901,1.9539l5.0674,3.0056c2.6644-1.128,5.7626-3.0156,8.5137-4.8265ZM133.6199,177.6506l3.2005-2.075c-1.4172-.9165-2.5646-1.4936-3.8971-2.2755l-3.8279-2.2464-8.1793,4.7557,4.8554,3.0286,2.8196,1.6382,5.0288-2.8255ZM238.7934,180.4179l7.5797-4.5303-8.1666-4.7236c-.4954-.2865-1.1593.4928-1.5437.7132l-6.401,3.6706,4.6301,2.8984c1.1869.743,2.533,1.4424,3.9014,1.9717ZM182.2149,179.8242l-.037-8.1756-6.8068,3.9218,5.3361,3.2663,1.5077.9876ZM82.9094,185.8216l8.243-4.9022-8.2217-4.8525-7.9964,4.5912c-.0387.1026.3552.736.6886.9297l7.2866,4.2338ZM100.7867,185.604l8.1695-4.8454c-1.5224-1.0866-2.8013-1.7616-4.2811-2.6203l-3.6025-2.0906c-1.7066,1.1135-3.004,1.9242-4.6139,2.8367l-3.4184,1.9375c.839.6143,1.5949,1.1746,2.3697,1.629l5.3767,3.1531ZM137.9479,185.7637l8.154-4.8709-8.3364-4.8219-8.0538,4.6734c.3633.4932.8414.8528,1.3908,1.1699l3.7498,2.1648,3.0955,1.6847ZM157.2309,185.237l7.1751-4.2839-8.2375-4.874-8.1259,4.7292c1.5241,1.2402,2.831,2.0214,4.3713,2.8493,3.5463,1.906,3.1969,2.5467,4.817,1.5794ZM179.7937,182.6815c.6491-.3883,1.5059-.8492,2.0578-1.1241.3202-.1595.3148-1.1494.0166-1.2952-.7248-.3542-1.645-.8452-2.331-1.2399l-5.1241-2.9485-7.7968,4.5639c-.2169.1269.1745.7608.3968.8773,2.3636,1.2386,5.1844,3.1457,7.6387,4.2423l5.1419-3.0757ZM209.9669,185.1606c.8325.4943,1.2429.6188,2.1234.0983l7.259-4.2913-7.6369-4.5175c-.9893-.5852-1.5192.1329-2.3699.637l-6.4927,3.8473,7.1172,4.2261ZM230.4864,185.126l6.5524-3.798c.1284-.0744.4303-.5939.3313-.6417-.1015-.049-.3699-.1767-.4988-.2523l-7.4417-4.36-8.2298,4.6994c1.1695.8878,2.1208,1.482,3.2212,2.1501l3.6354,2.0961c.3084.1778.9209.8625,1.2412.7304.2958-.122.7259-.3559,1.1887-.6241ZM283.4229,186.3165c-2.8343-2.1444-3.7793-2.1894-6.6285-3.9955-.4509-.2858-1.0306-.7811-1.4881-.7887-.4359-.0072-1.0004.3789-1.568.7101l-5.4547,3.1833c-.096.056-.6795.0944-.7689.099-.0886.0046-.0696-.2179-.0278-.2964.0434-.0816.2961-.4135.399-.475l5.8776-3.5139c.562-.336-.4679-.922-.7596-1.0908l-7.021-4.0641-7.6971,4.5337c1.1305.9737,1.8346,1.261,2.8204,1.8114,1.69.9435,3.336,2.04,5.1083,2.8587.6282.2902.9951.5156,1.494.8152l7.2271,4.3411c.7414.4453,1.4515.084,2.0863-.2961l6.4011-3.832ZM248.7035,186.2674l6.9712,4.15c1.2538.7464,1.594.5389,2.8067-.1683l6.3594-3.7087c-2.8483-1.7057-5.4777-3.2749-8.3024-4.7301-.5787-.2981-1.0263-.5584-1.562-.8978-2.5776-1.6332-5.3198-3.1923-8.0056-4.6062-.9682.8113-1.7015,1.1872-2.6161,1.7265l-4.8959,2.8869,4.6835,2.8202,3.5255,1.9907,7.7768-4.2798c.9873,1.0589-6.0054,3.724-6.7412,4.8167ZM288.6461,183.3692c1.3603-.7643,2.5434-1.5902,3.8407-2.5252l-6.6644-3.9096c-1.1262-.6607-1.6953-.757-2.9276-.0362l-6.1286,3.5848c-.1221.0714-.3629.3338-.4282.4243-.0653.0904.2823.3886.3774.4444l7.5979,4.452,4.3327-2.4345ZM126.5736,181.7126c.4447-.263.8822-.6772.8928-1.0041l-4.7083-2.77c-.7586-.4463-2.1961-1.7517-3.1901-1.2471-2.7204,1.381-5.0175,2.7679-7.7994,4.4441,1.6858,1.2509,3.2753,2.1292,5.024,3.0877l2.872,1.5743,6.909-4.085ZM91.8422,190.8183l8.1077-4.8214-6.7215-3.9504c-.899-.5284-1.9624-.7969-2.6574.2845l-1.4663.8089c-1.8025.9944-3.3008,1.844-5.1914,3.0743,1.4416,1.0283,2.4665,1.6552,3.8098,2.3803l4.1191,2.2238ZM128.9077,190.9863c2.8762-1.6154,5.1667-2.9461,8.012-4.7635l-6.8178-4.0756c-1.1205-.6698-1.744-.6868-2.7726.0063-2.1789,1.468-4.4284,2.3638-6.7705,4.1447l6.5851,3.96c.3519.2116,1.303.987,1.7639.7281ZM147.0426,191.1017l8.2547-4.8667-7.0314-4.119c-.7709-.4516-1.5856-.9698-2.3657-.0928l-7.1066,4.1984c.7984.5282,1.3496.8675,2.0148,1.2544l6.2342,3.6257ZM173.5774,186.195l-7.0494-4.0612c-.723-.931-1.5897-.5126-2.3998-.0493l-6.2684,3.585c-.1335.0763-.359.3186-.4339.4388-.0746.12.2347.546.3584.6174l7.5777,4.3767,8.2154-4.9074ZM204.6573,189.5709c1.8914-1.0454,3.4861-1.9835,5.5214-3.3935l-6.8047-4.0091c-1.1337-.668-1.6519-.7399-2.7959-.047l-6.6319,4.017c.7569.8735,1.4157,1.2086,2.2273,1.6716l5.7431,3.2758,2.7407-1.5148ZM220.7691,190.8428l4.9621-2.8731c.9603-.556,1.8941-1.0834,2.6203-1.8643l-6.6022-3.8998c-1.2117-.7158-1.8478-.842-3.1123.0847-2.4161,1.7705-4.151,2.0481-6.5415,4.023l4.3074,2.5691,2.3347,1.3746c.4494.2646,1.5413.8696,2.0315.5857ZM238.7878,191.1088l8.0605-4.8854-7.208-4.1968c-.7223-.4205-1.5333-.7758-2.1851.0393l-6.9626,4.0445c1.1257,1.1202,2.3209,1.7549,3.609,2.4542l4.6861,2.5441ZM110.3968,191.1306l8.2248-4.8591c-3.0968-2.1845-4.809-2.6285-7.8246-4.624l-6.7544,3.982c-.5333.3144-1.1115.5438-1.2443,1.0433l7.5985,4.4577ZM180.3876,189.1825l1.8117,1.0046.0459-7.5851c-.3887-.3656-1.0397.1973-1.4607.4449l-5.4113,3.1828c1.8541,1.1865,3.2141,1.9545,5.0144,2.9528ZM127.7205,191.6268l-2.5121-1.7726c-1.9015-.9223-3.6317-1.8926-5.6054-3.1179l-8.3276,4.7488,8.4051,4.9419,8.04-4.8003ZM138.0241,196.4112l8.1661-4.9038-2.8033-1.6415-5.6145-3.1324-8.1943,4.7915,8.446,4.8862ZM161.8977,193.1328c.8683-.5117,1.5396-1.0011,2.4288-1.7061l-8.1615-4.732-8.2357,4.7595c1.0214.7808,1.9309,1.3135,2.9695,1.8487l5.4185,3.1186,5.5803-3.2888ZM179.453,193.5448l2.4269-1.3285c.5486-.3003.2451-1.5033-.3535-1.639-.8614-.1951-1.4469-.609-2.1398-1.0147l-3.9265-2.2991c-.7155-.8803-1.4311-.29-2.1046.099l-7.0457,4.0699c2.3291,1.7148,4.4292,2.8286,6.7706,4.1202.4745.2617,1.3158.9291,1.8094.6424l4.5633-2.6503ZM191.856,207.2912l-6.3524-3.6906c-.1055-.0613-.2471-.5435-.2946-.6407-.0492-.1008.5884-.1335.7241-.0542l5.0921,2.9727c.578.3374,1.5856,1.219,2.1481.9085l3.6185-1.9974c1.4913-.8232,2.6434-1.6254,4.2657-2.7093l-6.504-3.8251c-.4463-.2625-1.4893-1.1197-1.9635-.8369l-5.1128,3.0492c-.7535.4494-1.2894.8203-2.2519.8996.2867-.6409.616-.916,1.1514-1.2316l5.5869-3.2926-3.8036-2.2896c-1.0487-.6313-2.478-.8277-3.031-2.2366,1.7981.4215,3.1943,1.4354,4.6691,2.2996l3.0472,1.7857,7.4504-4.3635c.146-.0855.3886-.3718.4495-.464.0608-.092-.275-.4213-.4256-.5088l-7.5196-4.3686-6.7204,4.0025-1.2368.3914-.1686,1.9721c-.2212,2.5867-.1151,5.3156-.113,7.8901l.5608.4394c.0856.0671-.1922.4718-.2089.5807l-.2642,1.7233c-.4537,2.9599.3259,7.9357.0508,10.4841-.0582.5393-.5081,9.5857.3643,8.3686,1.0298-1.4366,5.0081-2.7638,6.9695-4.5787l-6.0441-3.4201c-.4443-.2514-.8173-.8548-.5751-1.3747l7.36,4.3715c.9194-.3602,1.8981-.826,2.6862-1.3168l5.648-3.5172-6.3389-3.7668c-.5269-.3131-1.514-1.0467-2.198-.8367l-6.5647,3.787c-.1683.0971-.8944.1204-.8308-.0201.6289-1.3893,5.0858-2.707,6.6797-4.5857ZM211.2743,196.395l7.8733-4.6384c-.3236-.6631-.7445-.8394-1.3181-1.1532-1.9526-1.0682-3.8554-2.2139-5.7212-3.3812-.9996-.6254-1.4038-.3203-2.3095.2116l-6.7601,3.9702c.6795.6013,1.2388,1.0484,1.9032,1.4228l6.3323,3.5682ZM237.1161,191.9471c.1118-.0662.3319-.4365.2537-.5167-.0522-.0536-.309-.3235-.4036-.379l-5.7616-3.3775c-.6569-.3851-1.3454-.8368-1.9601-.9174l-8.0517,4.7661,7.0574,4.2278c.5944.3561,1.0175.6742,1.7405.4158l7.1255-4.2191ZM247.8835,196.3864l8.0787-4.7434c-.4983-.4481-.9065-.691-1.4752-1.0213l-6.8376-3.972-8.0428,4.814c1.0519.766,1.9172,1.3894,2.8997,1.9353l5.3772,2.9874ZM101.2691,196.46l8.2633-4.9602-7.8933-4.4985-8.2059,4.7836,7.8359,4.675ZM273.9301,191.7653l-8.2813-4.8014-7.8405,4.511,8.2923,4.9381,7.8295-4.6477ZM118.7197,196.7904l-4.237-2.4696-2.6167-1.4809c-.8909-.7108-1.7297-.7446-2.6459-.2002l-7.0191,4.171,8.2909,4.938,8.2277-4.9583ZM136.9144,196.9338c-.5744-.552-1.0841-.8877-1.7147-1.2424l-4.9416-2.7794c-.9708-.8949-1.7917-.7858-2.7837-.1994l-6.9677,4.1193,8.2493,4.9363,8.1583-4.8345ZM155.3778,196.7836l-6.8611-3.94c-.7781-.8131-1.9819-.8373-2.8246-.0813l-6.9741,4.0435,8.3125,4.9153,8.3472-4.9376ZM165.5223,201.7378l8.1206-4.9034-6.8937-4.0709c-.8906-.5259-1.5295-.7249-2.4725-.1671l-7.0803,4.1879,3.7172,2.3283c1.4613.9153,2.9467,1.8818,4.6086,2.6252ZM205.5626,199.6671c1.6724-.9602,3.0866-1.681,4.7173-2.8986l-7.5066-4.3888c-.7402-.4328-1.5111.0125-2.1558.3885l-3.962,2.3103c-.9895.577-1.6914,1.017-2.7575,1.8005,2.8105,1.8441,5.4305,3.3717,8.1848,4.7862l3.4799-1.998ZM228.5905,196.8166l-6.596-3.8992c-1.3274-.7847-1.8472-.8758-3.1694-.0856l-6.7089,4.0098c1.3314.8732,2.3409,1.4468,3.5319,2.1531l4.5118,2.6756c2.7642-1.2982,5.4751-2.9408,8.4306-4.8538ZM246.8199,196.6804c-2.6768-1.4776-4.8392-2.6909-7.2218-4.1691-.753-.4672-1.4856-.2679-2.1699.142l-7.024,4.2073,7.2305,4.3185c.7355.4393,1.3273.4245,2.0551-.0376,2.9071-1.8457,4.7875-2.4456,7.1302-4.4612ZM257.0315,201.7486l8.2367-4.9016-7.0136-4.0812c-.8392-.4883-1.8191-.9338-2.5779-.0052l-6.946,4.057,3.5622,2.1908,4.7386,2.7403ZM181.3825,200.3557c.1403.0801.5324.5313.5915.4163.5216-1.0143.3421-6.2738.1273-7.8802l-6.6572,3.9474,2.8679,1.7646,3.0705,1.7519ZM124.3566,204.3031l3.4939-2.1367-8.1779-4.9043-8.2375,4.793c2.9409,2.2217,5.2397,2.8655,8.0713,4.9601,1.542-.8401,3.2678-1.7443,4.8501-2.712ZM146.0178,202.2553c-1.0322-.8456-1.5973-1.1972-2.4018-1.6715l-5.1082-3.0112c-.6688-.3943-1.4109.1412-2.0257.5134l-6.7486,4.0864,4.925,2.9316c1.0378.6178,2.0116,1.0605,3.1646,1.953l8.1948-4.8017ZM156.3384,206.9966l8.2061-4.8062-7.1099-4.2448c-.8315-.4964-1.5367-.8844-2.3595.0613l-7.0895,4.2398,8.3527,4.7498ZM181.0077,203.289c.4147-.2429,1.1645-.3861,1.1868-.746.0327-.5286-.1896-1.2679-.5754-1.3617-.6891-.1674-1.3372-.5081-1.8551-.8229l-4.2034-2.5555c-.8544-.5194-1.3206-.3745-2.1205.1017l-6.2342,3.7115c-.2061.1227-.496.486-.5728.6171-.0771.1316.4014.3978.5357.4761l4.5736,2.6649,2.0027,1.2142c.4158.2521,1.0439.3427,1.4851.0843l5.7775-3.3838ZM219.368,202.2022l-2.9223-1.9393-5.0102-2.8593c-.7626.1717-1.6704.7069-2.4086,1.1426l-5.2462,3.0962c-.1892.1117-.6505.6727-.4673.7792l.828.4816,7.1112,4.1368,8.1154-4.8377ZM229.5613,207.0005l8.1363-4.9104-6.9696-4.1376c-.756-.4488-1.4421-.8186-2.275-.1363-1.8025,1.1731-3.5776,2.3414-5.5175,3.3044-.614.3048-1.0279.544-1.4002,1.2177l8.026,4.6622ZM249.1274,206.2818l6.8664-4.1383-8.1913-4.8495-8.1831,4.8046,6.9297,4.2027c.8283.5023,1.5843.5795,2.5783-.0196ZM131.1118,211.026l3.6886-2.2012c.7913-.4722,1.4299-.7983,2.1072-1.4825l-8.0652-4.7531-8.2371,4.8498,8.0368,4.84c.8243-.2607,1.6003-.7341,2.4697-1.2529ZM148.7413,211.3957l6.5964-3.8955-4.3022-2.6505c-1.3025-.8025-2.5912-1.4911-4.0389-2.2483l-8.0838,4.8303,3.2058,1.9379,4.7514,2.8183c.5055.0918,1.415-.5227,1.8714-.7922ZM163.9232,211.3689c.4527.2582,1.0652.8631,1.4525.8526.4085-.0111,1.0754-.4243,1.4837-.672l6.7303-4.0825-8.0876-4.8532-8.1505,4.8408c1.4019.9538,2.5232,1.6057,3.8526,2.3638l2.719,1.5505ZM202.1977,212.361l8.1198-4.9661-8.1287-4.7912c-1.4082.6974-2.6587,1.3818-3.8878,2.1686l-4.3111,2.5068,1.1406,1.0198,7.0672,4.062ZM221.8959,211.464c2.157-1.3506,4.5046-2.3957,6.6624-4.124l-8.1939-4.7232-8.1606,4.8139,6.3488,3.9124c1.4216.8761,1.9606.9866,3.3433.1209ZM246.9296,207.4197l-6.818-4.046c-.8165-.588-1.8944-.741-2.7004-.0438l-6.9296,4.1341,8.2944,4.8738,8.1535-4.9182ZM175.8263,207.6873l6.3569,3.6686.0194-8.0348c-1.1408.7504-1.865,1.2461-2.8464,1.813l-3.101,1.7914c-.186.1075-.6219.6503-.4289.7618ZM142.7612,214.8894l3.5296-2.1079-8.3095-4.9419-8.1276,4.9195c2.4596,1.6237,4.6418,2.8221,7.0062,4.1859.9723.5608,1.7784.6594,2.7-.226l3.2013-1.8296ZM157.5712,216.9394l7.047-4.1881-8.2821-4.9005-8.2444,4.9038,7.1228,4.2723c.7485.449,1.5183.5239,2.3567-.0875ZM181.0234,213.8618c.8563-.0441,1.1922-.6108,1.23-1.231.053-.8698-.7235-.7174-1.2981-1.0451l-3.4847-1.9873c-1.0081-.5749-2.0019-1.3009-3.0993-1.6954l-7.9654,4.8516,3.8232,2.2966,2.8877,1.7344c1.1319.6798,1.6623.9189,2.8709.1752l5.0358-3.0989ZM212.7631,216.7549l6.7759-3.9594-7.1019-4.3251c-.7608-.6471-1.5935-.4366-2.3729.0365l-7.0611,4.2854,6.9507,4.1033c.3852.2274,1.039.6725,1.4061.6599s.954-.5381,1.4033-.8007ZM230.5274,217.1045l7.2056-4.2651c-1.1483-.8396-1.8551-1.3364-2.8118-1.8832l-4.1436-2.3683c-.717-.4098-1.3922-.6688-2.1289-.2229l-4.0385,2.444c-1.0555.6388-2.1174,1.0474-3.2244,1.9549l7.1388,4.2788c.5531.3315,1.2788.4904,2.0029.0618ZM155.3628,218.0161l-6.4742-3.7852c-.5362-.3518-1.222-.7369-1.8579-1.0093l-8.0426,4.8497,8.2576,4.8774,8.1171-4.9327ZM166.6247,222.3318l2.7237-1.6026,4.2842-2.7027-8.1588-4.8702-3.3163,2.0129c-1.6586,1.0067-3.1788,1.7884-4.819,2.9605l7.1304,4.2068c.7509.443,1.2067.5539,2.1559-.0046ZM202.2397,222.932l7.3044-4.3214c.126-.0746.3692-.3927.425-.528s-.2559-.4824-.3846-.5573l-6.7034-3.9015c-.8176-.4758-1.2512-.1185-1.9498.2848l-5.1155,2.9526c-.6578.3797-1.1509.7406-1.7282,1.2848,2.2477,1.4478,4.2042,2.5598,6.4186,3.8084l1.7336.9775ZM221.497,222.3234l7.183-4.2779-7.0397-4.2107c-.9163-.5481-1.2553-.6743-2.1903-.113l-7.2281,4.3394,3.169,1.9734,3.8037,2.1389c.9291.5225,1.3049.7439,2.3024.1498ZM180.9994,221.3352c.3206.1956.7236.4932.9582.4941.1876.0007.3441-.5759.3407-.7953l-.107-6.9075-6.6112,3.904,2.4031,1.4645,3.0162,1.8403ZM181.8292,224.204c.3591-.1698.4813-1.1442.3324-1.5054-.1709-.4145-.9306-.4896-1.3767-.7324l-3.0919-1.6829c-1.0071-.6384-2.0218-1.2442-3.1363-1.7846l-8.1147,4.8571,6.8952,4.1535c.6416.3865,1.4611.6657,2.1031.4453l4.2147-2.6307c.5877-.3668,1.3708-.7402,2.1742-1.1199ZM210.0351,227.512c.5175.3089,1.1696.8217,1.8537.4203l2.6162-1.5352,5.0527-2.9645c-3.1798-2.2687-5.228-2.9021-8.2892-4.9586l-3.242,1.9597c-1.1282.682-2.2343,1.2119-3.3144,1.895l-1.6933,1.0708,2.4482,1.3857,4.5681,2.7269ZM164.4999,223.2885l-1.9138-1.1379-4.1646-2.358c-.6824-.4617-1.4886-.9247-2.3053-1.1847l-8.0004,4.7917,8.3459,4.7889,6.1194-3.5403c.6815-.3943,1.1263-.7411,1.9189-1.3597ZM206.0162,231.3561c1.474-.8043,2.7622-1.6827,4.3692-2.7323-1.7207-1.0805-3.0707-1.9492-4.6482-2.8234l-3.6538-2.0248-6.9732,4.1194c-.3268.193-.7229.5957-.9786.898l6.9022,4.0361c1.4685.8587.6486.8918,4.9824-1.473ZM167.2148,232.5435c2.3183-1.2892,4.2913-2.3346,6.5303-3.9342l-8.2393-4.8217-8.0953,4.7886c2.384,1.7434,4.5366,2.7589,6.8279,4.1537.4127.2512,1.1746.7289,1.593.6246.3523-.0878.9207-.487,1.3833-.811ZM181.1956,232.0143l.7733.4693c.1507.0915.3168-.5962.3159-.7786l-.0329-6.2583c-.001-.1975-.3878-.726-.4995-.6191-.0822.0786-.3456.3525-.4566.419l-2.7304,1.6344-2.8372,1.764,1.696,1.0564,3.7714,2.3129ZM176.4579,237.8761c1.521-.9612,3.0047-1.8283,4.5037-2.6228.7377-.391,1.2779-.442,1.3267-1.278.062-1.0624-.6388-.8897-1.3368-1.2873l-6.2011-3.5314-8.286,4.8296,7.2976,4.2953c.9417.5543,1.7545.1894,2.6959-.4055Z" fill="#c24526"/>
  </g>
</svg>