<?xml version="1.0" encoding="UTF-8"?>
<svg id="Layer_2" data-name="Layer 2" xmlns="http://www.w3.org/2000/svg" viewBox="0 0 127.5099 127.5099">
  <g id="Camada_1" data-name="Camada 1">
    <g>
      <circle cx="57.2862" cy="1.9239" r="1.9239" fill="#868787"/>
      <circle cx="57.2862" cy="8.794" r="1.9239" fill="#868787"/>
      <circle cx="57.2862" cy="15.6642" r="1.9239" fill="#868787"/>
      <circle cx="57.2862" cy="22.5343" r="1.9239" fill="#868787"/>
      <circle cx="57.2862" cy="29.4044" r="1.9239" fill="#868787"/>
      <circle cx="57.2862" cy="36.2745" r="1.9239" fill="#868787"/>
      <circle cx="57.2862" cy="43.1446" r="1.9239" fill="#868787"/>
      <circle cx="57.2862" cy="50.0147" r="1.9239" fill="#868787"/>
      <circle cx="57.2862" cy="56.8848" r="1.9239" fill="#868787"/>
      <circle cx="57.2862" cy="63.7549" r="1.9239" fill="#868787"/>
      <circle cx="57.2862" cy="70.6251" r="1.9239" fill="#868787"/>
      <circle cx="57.2862" cy="77.4952" r="1.9239" fill="#868787"/>
      <circle cx="57.2862" cy="84.3653" r="1.9239" fill="#868787"/>
      <circle cx="57.2862" cy="91.2354" r="1.9239" fill="#868787"/>
      <circle cx="57.2862" cy="98.1055" r="1.9239" fill="#868787"/>
      <circle cx="57.2862" cy="104.9756" r="1.9239" fill="#868787"/>
      <circle cx="57.2862" cy="118.7158" r="1.9239" fill="#868787"/>
      <circle cx="57.2862" cy="125.586" r="1.9239" fill="#868787"/>
      <circle cx="63.7549" cy="22.5343" r="1.9239" fill="#868787"/>
      <circle cx="63.7549" cy="56.8848" r="1.9239" fill="#868787"/>
      <circle cx="63.7549" cy="63.7549" r="1.9239" fill="#868787"/>
      <circle cx="63.7549" cy="70.6251" r="1.9239" fill="#868787"/>
      <circle cx="63.7549" cy="77.4952" r="1.9239" fill="#868787"/>
      <circle cx="63.7549" cy="98.1055" r="1.9239" fill="#868787"/>
      <circle cx="63.7549" cy="104.9756" r="1.9239" fill="#868787"/>
      <circle cx="63.7549" cy="111.8457" r="1.9239" fill="#868787"/>
      <circle cx="63.7549" cy="118.7158" r="1.9239" fill="#868787"/>
      <circle cx="70.2237" cy="1.9239" r="1.9239" fill="#868787"/>
      <circle cx="70.2237" cy="8.794" r="1.9239" fill="#868787"/>
      <circle cx="70.2237" cy="15.6642" r="1.9239" fill="#868787"/>
      <circle cx="70.2237" cy="22.5343" r="1.9239" fill="#868787"/>
      <circle cx="70.2237" cy="29.4044" r="1.9239" fill="#868787"/>
      <circle cx="70.2237" cy="36.2745" r="1.9239" fill="#868787"/>
      <circle cx="70.2237" cy="43.1446" r="1.9239" fill="#868787"/>
      <circle cx="70.2237" cy="50.0147" r="1.9239" fill="#868787"/>
      <circle cx="70.2237" cy="56.8848" r="1.9239" fill="#868787"/>
      <circle cx="70.2237" cy="63.7549" r="1.9239" fill="#868787"/>
      <circle cx="70.2237" cy="70.6251" r="1.9239" fill="#868787"/>
      <circle cx="70.2237" cy="77.4952" r="1.9239" fill="#868787"/>
      <circle cx="70.2237" cy="84.3653" r="1.9239" fill="#868787"/>
      <circle cx="70.2237" cy="91.2354" r="1.9239" fill="#868787"/>
      <circle cx="70.2237" cy="98.1055" r="1.9239" fill="#868787"/>
      <circle cx="70.2237" cy="104.9756" r="1.9239" fill="#868787"/>
      <circle cx="70.2237" cy="111.8457" r="1.9239" fill="#868787"/>
      <circle cx="70.2237" cy="118.7158" r="1.9239" fill="#868787"/>
      <circle cx="70.2237" cy="125.586" r="1.9239" fill="#868787"/>
      <circle cx="111.8457" cy="57.2862" r="1.9239" fill="#868787"/>
      <circle cx="70.6251" cy="57.2862" r="1.9239" fill="#868787"/>
      <circle cx="63.7549" cy="57.2862" r="1.9239" fill="#868787"/>
      <circle cx="56.8848" cy="57.2862" r="1.9239" fill="#868787"/>
      <circle cx="50.0147" cy="57.2862" r="1.9239" fill="#868787"/>
      <circle cx="43.1446" cy="57.2862" r="1.9239" fill="#868787"/>
      <circle cx="36.2745" cy="57.2862" r="1.9239" fill="#868787"/>
      <circle cx="22.5343" cy="57.2862" r="1.9239" fill="#868787"/>
      <circle cx="125.586" cy="63.7549" r="1.9239" fill="#868787"/>
      <circle cx="118.7158" cy="63.7549" r="1.9239" fill="#868787"/>
      <circle cx="104.9756" cy="63.7549" r="1.9239" fill="#868787"/>
      <circle cx="77.4952" cy="63.7549" r="1.9239" fill="#868787"/>
      <circle cx="70.6251" cy="63.7549" r="1.9239" fill="#868787"/>
      <circle cx="63.7549" cy="63.7549" r="1.9239" fill="#868787"/>
      <circle cx="56.8848" cy="63.7549" r="1.9239" fill="#868787"/>
      <circle cx="50.0147" cy="63.7549" r="1.9239" fill="#868787"/>
      <circle cx="15.6642" cy="63.7549" r="1.9239" fill="#868787"/>
      <circle cx="8.794" cy="63.7549" r="1.9239" fill="#868787"/>
      <circle cx="1.9239" cy="63.7549" r="1.9239" fill="#868787"/>
      <circle cx="125.586" cy="70.2237" r="1.9239" fill="#868787"/>
      <circle cx="118.7158" cy="70.2237" r="1.9239" fill="#868787"/>
      <circle cx="111.8457" cy="70.2237" r="1.9239" fill="#868787"/>
      <circle cx="98.1055" cy="70.2237" r="1.9239" fill="#868787"/>
      <circle cx="84.3653" cy="70.2237" r="1.9239" fill="#868787"/>
      <circle cx="70.6251" cy="70.2237" r="1.9239" fill="#868787"/>
      <circle cx="63.7549" cy="70.2237" r="1.9239" fill="#868787"/>
      <circle cx="56.8848" cy="70.2237" r="1.9239" fill="#868787"/>
      <circle cx="50.0147" cy="70.2237" r="1.9239" fill="#868787"/>
      <circle cx="43.1446" cy="70.2237" r="1.9239" fill="#868787"/>
      <circle cx="36.2745" cy="70.2237" r="1.9239" fill="#868787"/>
      <circle cx="22.5343" cy="70.2237" r="1.9239" fill="#868787"/>
      <circle cx="8.794" cy="70.2237" r="1.9239" fill="#868787"/>
      <circle cx="1.9239" cy="70.2237" r="1.9239" fill="#868787"/>
    </g>
  </g>
</svg>