<?xml version="1.0" encoding="UTF-8"?>
<svg id="Layer_2" data-name="Layer 2" xmlns="http://www.w3.org/2000/svg" viewBox="0 0 436.7143 79.3639">
  <g id="Camada_1" data-name="Camada 1">
    <g>
      <g>
        <path d="M131.7438,34.4062c0,.4217-.2156.7835-.3814.8411-.2225.0773-.6559-.3387-.6559-.7195l.005-33.9395c0-.1687.3014-.5345.4324-.5538.175-.0258.5955.339.5955.5216l.0043,33.85Z" fill="#e9526f"/>
        <path d="M175.2944,34.407c0,.4323-.1983.7626-.3443.8576-.145.0944-.6826-.3187-.6826-.5302l.0023-33.9948c0-.2743.3071-.6274.422-.6946.1539-.0899.6031.3346.6031.5129l-.0005,33.8491Z" fill="#e9526f"/>
        <path d="M218.8832,34.392c0,.3844-.2632.8152-.4264.8985-.204.1041-.6163-.4249-.6163-.74l.0003-33.7764c0-.221.2551-.6295.4185-.7125.2042-.1037.6224.4219.6224.7271l.0014,33.6033Z" fill="#e9526f"/>
        <path d="M262.4469,34.3636c0,.437-.259.8565-.4288.9058-.2123.0616-.6067-.3841-.6067-.6928l.002-33.7898c0-.2221.2318-.6104.3634-.7327.1328-.1234.6673.3166.6673.542l.0027,33.7676Z" fill="#e9526f"/>
        <path d="M306.02,34.3928c0,.4149-.2844.8155-.4442.9034-.1594.0877-.5855-.3497-.5855-.5684l-.0015-34.0093c0-.2687.248-.5684.3413-.6595.1255-.1227.6881.3101.6881.5079l.0019,33.8259Z" fill="#e9526f"/>
        <path d="M88.1594,34.7251c-.0001.2521-.4796.7112-.5661.6265-.0884-.0865-.45-.4038-.4501-.8781l-.0059-33.8206c.1971-.3625.3758-.6985.4852-.6137.114.0884.2449.2399.5537.5126l-.0168,34.1732Z" fill="#e9526f"/>
        <path d="M349.5795,34.3545c0,.4764-.2695.907-.4392.9582-.1693.0511-.5898-.3782-.5899-.6703l-.0033-33.8968c0-.4769.4183-.7847.5518-.7239.1238.0564.4759.3662.4759.5658l.0046,33.767Z" fill="#e9526f"/>
        <path d="M436.7118,34.5369c0,.2001-.2645.7704-.3906.7283-.1683-.0561-.34-.1868-.6397-.4534l.0024-34.0304c0-.2305.2865-.6713.4521-.7511s.5748.3909.5748.5912l.001,33.9153Z" fill="#e9526f"/>
        <path d="M1.0348,34.5228c0,.3619-.3606.8569-.488.8178-.1254-.0385-.5387-.3345-.5388-.7838l-.008-33.9307L.5033.0194c.0995-.1199.5259.3366.526.8242l.0054,33.6792Z" fill="#e9526f"/>
        <path d="M44.5997,34.3637c.0001.649-.4919,1.0259-.5626.935l-.4674-.6011-.0017-34.0277c0-.4108.4226-.6943.5613-.6439.1761.0639.4701.4306.4701.8401-.0004,10.7334-.0017,24.0913.0003,33.4975Z" fill="#e9526f"/>
        <path d="M197.119,34.64c0,.2484-.3643.6849-.5308.6674-.1665-.0175-.5563-.3665-.5563-.5997l-.0027-25.7433c0-.288.1904-.6253.3228-.7319.1664-.1341.7659.2907.7659.631l.001,25.7765Z" fill="#e9526f"/>
        <path d="M240.6847,34.6376c-.138.2943-.4206.7354-.5624.6498-.142-.0857-.2931-.2753-.5287-.5891l.014-25.9708c.0001-.1915.3824-.5535.546-.5408.2061.0161.5262.4531.5262.7237l.0049,25.7271Z" fill="#e9526f"/>
        <path d="M371.405,34.3639c0,.4628-.2648.8635-.4396.9318-.2188.0855-.6644-.4077-.6644-.75l.0023-25.5892c0-.2412.2913-.645.4252-.7693.1397-.1297.6739.3397.6739.6747l.0025,25.502Z" fill="#e9526f"/>
        <path d="M22.8567,34.4333c0,.3554-.266.8506-.4502.8866-.2303.045-.6617-.4588-.6617-.758l.0023-25.63c0-.2197.2896-.6467.4584-.735.2112-.1104.651.4535.651.7339l.0002,25.5025Z" fill="#e9526f"/>
        <path d="M66.4131,34.4209c0,.3334-.2746.8341-.4492.8982-.2182.0801-.6332-.4559-.6332-.7332l-.0025-25.661c0-.2107.2546-.6276.4202-.7186.207-.1138.6642.4392.6642.7171l.0005,25.4976Z" fill="#e9526f"/>
        <path d="M109.9757,34.4278c0,.3399-.2809.8506-.4604.8933-.2245.0534-.609-.4463-.609-.7317l-.0025-25.6821c0-.2228.2295-.6149.3959-.6999.208-.1064.6758.4256.6758.7043l.0002,25.5161Z" fill="#e9526f"/>
        <path d="M153.5393,34.4316c0,.3255-.3201.8276-.4873.907-.2091.0992-.5806-.4533-.5806-.7537l-.0036-25.6794c0-.2254.2205-.6035.3827-.6951.2035-.115.689.401.689.695l-.0002,25.5262Z" fill="#e9526f"/>
        <path d="M284.24,34.3837c0,.4849-.1983.838-.3692.9074-.2401.0975-.6944-.3787-.6944-.7482l.0009-25.6108c0-.2285.3066-.653.4477-.7589.1414-.1061.6173.3225.6172.6708l-.0023,25.5396Z" fill="#e9526f"/>
        <path d="M327.8009,34.4305c0,.3791-.2234.7834-.3463.9102-.1279.1321-.7154-.3512-.7155-.6746l-.0035-25.6953c0-.2598.296-.7112.4668-.7832.2138-.0901.6013.4215.6013.7218l-.0028,25.5211Z" fill="#e9526f"/>
        <path d="M414.966,34.4197c0,.3401-.2856.7892-.4491.8776-.2041.1102-.6594-.4002-.6595-.7391l-.0009-25.6114c0-.2447.2793-.6646.4488-.7518.2124-.1093.6604.4493.6604.7284l.0003,25.4964Z" fill="#e9526f"/>
        <path d="M393.1454,34.3904c0,.3959-.2865.8709-.4664.905-.1769.0335-.5597-.2591-.5598-.746l-.0037-33.6345c0-.381.2816-.851.4706-.8857.1902-.0349.5612.3586.5612.6795l-.0018,33.6817Z" fill="#e9526f"/>
        <path d="M310.235,19.9551c-.338,5.2931.3444,10.0403-.3689,15.3124-.6997-5.2885-.0901-10.3611-.3403-15.6016.2515.0502.5567.1689.7092.2893Z" fill="#e9526f"/>
        <path d="M161.8911,19.6704c.0898-.0003.4075,14.4486-.1732,15.557-.6032-.8056-.2727-15.5523-.1858-15.544.091.0087.2682-.0127.3589-.013Z" fill="#e9526f"/>
        <path d="M126.8469,35.1559c-.5963-1.043-.2177-15.4686-.2122-15.5008.7829-4.5296.6582,16.957.2122,15.5008Z" fill="#e9526f"/>
        <path d="M432.0235,19.665c.087.0037.3924,14.4035-.1674,15.5704-.5996-.7692-.2699-15.5681-.188-15.5709.0902-.0031.2652-.0033.3554.0006Z" fill="#e9526f"/>
        <path d="M274.8066,19.6362c.7694-3.735.6307,16.1065.2031,15.5813-.6416-.9249-.2277-15.462-.2031-15.5813Z" fill="#e9526f"/>
        <path d="M5.0417,19.683c.0979.0002.395,14.3774-.1622,15.5562-.6017-.7936-.2743-15.5572-.1872-15.557l.3495.0008Z" fill="#e9526f"/>
        <path d="M122.8915,20.0031c-.3904,5.2064.3995,10.0624-.4124,15.2307-.6246-5.1934-.1182-10.5063-.294-15.4858-.0054-.1523.7178.1041.7065.2551Z" fill="#e9526f"/>
        <path d="M401.3005,35.1627c-.4923-2.057-.3482-14.6086-.0187-15.5799.5909-1.742.5671,15.7899.0187,15.5799Z" fill="#e9526f"/>
        <path d="M157.3673,35.2228c-.5681-1.1101-.3303-15.5948-.1256-15.5605l.481.0805c-.2961,5.065.3594,10.2555-.3554,15.48Z" fill="#e9526f"/>
        <path d="M314.2398,19.3806c.4982,1.5039.3034,15.7345.0933,15.6251l-.4847-.2525c.3383-5.1125-.4174-10.1859.3914-15.3726Z" fill="#e9526f"/>
        <path d="M318.5405,35.2229c-.5256-1.1695-.2883-15.5619-.1282-15.5443.0872.0096.2154.0064.3159-.0108.097-.0166.4314,14.6712-.1876,15.5551Z" fill="#e9526f"/>
        <path d="M200.902,35.2308c-.5296-1.141-.2824-15.5496-.1203-15.5513l.3099-.0032c.0981-.001.4457,14.8704-.1895,15.5545Z" fill="#e9526f"/>
        <path d="M383.9629,19.4998c.5152,2.0055.3653,14.6218.0232,15.5371-.6099,1.6318-.563-15.7702-.0232-15.5371Z" fill="#e9526f"/>
        <path d="M388.3216,19.5565c.3421,1.0339.5122,13.5923-.0235,15.5895-.4823.1098-.5258-17.2497.0235-15.5895Z" fill="#e9526f"/>
        <path d="M231.4402,19.462c.5614,1.9116.3111,14.4106.1498,15.5423-.5873,4.1223-.6463-16.8092-.1498-15.5423Z" fill="#e9526f"/>
        <path d="M236.1587,20.008c-.3352,5.2045.3646,10.0283-.3773,15.2349-.6483-5.1146-.1251-10.5339-.304-15.4318-.0081-.2204.6919.0327.6814.1968Z" fill="#e9526f"/>
        <path d="M39.735,19.4236c.5371,2.6756.3631,13.537.1322,15.5699-.012.1057-.3217-.1405-.4655-.2555.2374-5.0728-.3544-10.2014.3333-15.3144Z" fill="#e9526f"/>
        <path d="M396.9883,19.4024c.5402,1.549.3368,15.7386.0954,15.6051l-.4531-.2507c.2865-5.1304-.371-10.1648.3577-15.3544Z" fill="#e9526f"/>
        <path d="M357.7491,35.2289c-.5345-1.165-.2956-15.5362-.1266-15.5484.0866-.0063.221-.0177.3139-.0125.0976.0055.4234,14.843-.1874,15.5609Z" fill="#e9526f"/>
        <path d="M79.3148,20.0062c-.3301,5.2067.3678,10.0354-.3763,15.2408-.6537-5.1085-.1243-10.5897-.309-15.4394-.0084-.2211.695.0455.6853.1986Z" fill="#e9526f"/>
        <path d="M83.2798,35.1833c-.5354-1.0753-.2982-15.4899-.1254-15.4945.0869-.0023.2092-.0185.3114-.0109.0908.0067.4187,14.7935-.186,15.5053Z" fill="#e9526f"/>
        <path d="M279.4695,19.6646c.2083-.0343.4382,14.4333-.1205,15.5813-.726-5.2048-.0587-10.4272-.3609-15.502l.4814-.0793Z" fill="#e9526f"/>
        <path d="M118.1536,19.421c.5474,2.306.3379,14.0368.1378,15.5806-.0138.1068-.328-.1502-.4719-.2661.2359-5.0635-.3493-10.2117.3341-15.3144Z" fill="#e9526f"/>
        <path d="M48.418,35.1944c-.5313-1.1392-.2776-15.482-.1337-15.4988l.2613-.0306c.202-.0236.4418,14.7738-.1276,15.5294Z" fill="#e9526f"/>
        <path d="M362.125,19.4039c.5154,1.5333.3403,15.7637.0852,15.6136l-.444-.2612c.2964-5.1263-.3724-10.153.3589-15.3523Z" fill="#e9526f"/>
        <path d="M35.2479,19.6134c.7302-1.6147.5541,14.9033.1466,15.5525-.594-.9316-.2716-15.2761-.1466-15.5525Z" fill="#e9526f"/>
        <path d="M9.2017,35.1227c-.4593-1.1378-.4561-16.0222.0181-15.5632.4278.4142.537,14.3643-.0181,15.5632Z" fill="#e9526f"/>
        <path d="M423.1559,19.3948c.4899,5.4436.5224,10.5962-.0241,15.8088-.4697-5.4375-.5081-10.5881.0241-15.8088Z" fill="#e9526f"/>
        <path d="M205.2814,19.3976c.5842,1.4824.392,15.7987.0812,15.6189l-.453-.262c.3136-5.1113-.3865-10.1785.3718-15.357Z" fill="#e9526f"/>
        <path d="M192.0565,19.622c.7267-3.3762.5874,15.9219.1856,15.5604-.6879-.9679-.2787-15.1279-.1856-15.5604Z" fill="#e9526f"/>
        <path d="M322.8819,35.1238c-.4487-1.2079-.4385-15.9557.0181-15.5669.4441.3781.5506,14.419-.0181,15.5669Z" fill="#e9526f"/>
        <path d="M166.0517,35.1909c-.558-1.1405-.2845-15.494-.1449-15.5021l.3126-.0181c.125-.0072.4322,14.8496-.1677,15.5202Z" fill="#e9526f"/>
        <path d="M427.3199,19.6296c.7534-3.3122.6143,15.9139.1767,15.5463-.623-.8895-.2306-15.3093-.1767-15.5463Z" fill="#e9526f"/>
        <path d="M113.6354,19.6264c.6562-4.4735.6689,16.5869.1789,15.5698-.5984-1.2411-.2994-14.7484-.1789-15.5698Z" fill="#e9526f"/>
        <path d="M270.6477,19.459c.4368.233.5784,17.2211-.121,15.5556-.191-.4548-.4529-13.9306.121-15.5556Z" fill="#e9526f"/>
        <path d="M353.4237,19.4254c.5312,2.6038.3551,13.6495.1239,15.5712-.0128.1067-.3179-.1417-.4672-.259.2524-5.0636-.3613-10.2022.3433-15.3122Z" fill="#e9526f"/>
        <path d="M74.4672,19.6168c.7092-1.6697.5324,14.9145.1475,15.5446-.6438-1.0294-.3452-15.0792-.1475-15.5446Z" fill="#e9526f"/>
        <path d="M244.457,35.1569c-.4836-2.0798-.3372-14.6428-.0188-15.5736.5536-1.6183.52,15.6305.0188,15.5736Z" fill="#e9526f"/>
        <path d="M227.3577,21.2361c-.384,4.8317.3473,9.3445-.3973,14.0664-.3908-5.3702-.162-10.4958-.1569-15.792.9032.2862.6461.977.5541,1.7257Z" fill="#e9526f"/>
        <path d="M266.5222,22.2762c-.2902,4.5072.3781,8.7461-.3644,12.9932l-.1712-15.6312.6857.3066-.1501,2.3315Z" fill="#e9526f"/>
        <path d="M222.6781,35.2281c-.4079-5.2321-.4061-10.3424-.0029-15.8075.4315,5.1751.4344,10.3476.0029,15.8075Z" fill="#e9526f"/>
        <path d="M248.9028,35.2281c-.4079-5.2321-.4061-10.3424-.0029-15.8075.4315,5.1751.4344,10.3476.0029,15.8075Z" fill="#e9526f"/>
        <path d="M253.2311,35.2281c-.4079-5.2321-.4061-10.3424-.0029-15.8075.4315,5.1751.4344,10.3476.0029,15.8075Z" fill="#e9526f"/>
        <path d="M257.5595,35.2281c-.4079-5.2321-.4061-10.3424-.0029-15.8075.4315,5.1751.4344,10.3476.0029,15.8075Z" fill="#e9526f"/>
        <path d="M288.1125,35.2281c-.4079-5.2321-.4061-10.3424-.0029-15.8075.4315,5.1751.4344,10.3476.0029,15.8075Z" fill="#e9526f"/>
        <path d="M292.4409,35.2281c-.4079-5.2321-.4061-10.3424-.0029-15.8075.4315,5.1751.4344,10.3476.0029,15.8075Z" fill="#e9526f"/>
        <path d="M301.0976,35.2281c-.4079-5.2321-.4061-10.3424-.0029-15.8075.4315,5.1751.4344,10.3476.0029,15.8075Z" fill="#e9526f"/>
        <path d="M331.6506,35.2281c-.4079-5.2321-.4061-10.3424-.0029-15.8075.4315,5.1751.4344,10.3476.0029,15.8075Z" fill="#e9526f"/>
        <path d="M335.9789,35.2281c-.4079-5.2321-.4061-10.3424-.0029-15.8075.4315,5.1751.4344,10.3476.0029,15.8075Z" fill="#e9526f"/>
        <path d="M340.3073,35.2281c-.4079-5.2321-.4061-10.3424-.0029-15.8075.4315,5.1751.4344,10.3476.0029,15.8075Z" fill="#e9526f"/>
        <path d="M344.6356,35.2281c-.4079-5.2321-.4061-10.3424-.0029-15.8075.4315,5.1751.4344,10.3476.0029,15.8075Z" fill="#e9526f"/>
        <path d="M366.532,35.2281c-.4079-5.2321-.4061-10.3424-.0029-15.8075.4315,5.1751.4344,10.3476.0029,15.8075Z" fill="#e9526f"/>
        <path d="M375.1886,35.2281c-.4079-5.2321-.4061-10.3424-.0029-15.8075.4315,5.1751.4344,10.3476.0029,15.8075Z" fill="#e9526f"/>
        <path d="M379.517,35.2281c-.4079-5.2321-.4061-10.3424-.0029-15.8075.4315,5.1751.4344,10.3476.0029,15.8075Z" fill="#e9526f"/>
        <path d="M405.7417,35.2281c-.4079-5.2321-.4061-10.3424-.0029-15.8075.4315,5.1751.4344,10.3476.0029,15.8075Z" fill="#e9526f"/>
        <path d="M410.07,35.2281c-.4079-5.2321-.4061-10.3424-.0029-15.8075.4315,5.1751.4344,10.3476.0029,15.8075Z" fill="#e9526f"/>
        <path d="M418.7267,35.2281c-.4079-5.2321-.4061-10.3424-.0029-15.8075.4315,5.1751.4344,10.3476.0029,15.8075Z" fill="#e9526f"/>
        <path d="M13.6445,35.2281c-.4079-5.2321-.4061-10.3424-.0029-15.8075.4315,5.1751.4344,10.3476.0029,15.8075Z" fill="#e9526f"/>
        <path d="M17.9728,35.2281c-.4079-5.2321-.4061-10.3424-.0029-15.8075.4315,5.1751.4344,10.3476.0029,15.8075Z" fill="#e9526f"/>
        <path d="M26.6295,35.2281c-.4079-5.2321-.4061-10.3424-.0029-15.8075.4315,5.1751.4344,10.3476.0029,15.8075Z" fill="#e9526f"/>
        <path d="M30.9578,35.2281c-.4079-5.2321-.4061-10.3424-.0029-15.8075.4315,5.1751.4344,10.3476.0029,15.8075Z" fill="#e9526f"/>
        <path d="M52.8542,35.2281c-.4079-5.2321-.4061-10.3424-.0029-15.8075.4315,5.1751.4344,10.3476.0029,15.8075Z" fill="#e9526f"/>
        <path d="M57.1825,35.2281c-.4079-5.2321-.4061-10.3424-.0029-15.8075.4315,5.1751.4344,10.3476.0029,15.8075Z" fill="#e9526f"/>
        <path d="M61.5109,35.2281c-.4079-5.2321-.4061-10.3424-.0029-15.8075.4315,5.1751.4344,10.3476.0029,15.8075Z" fill="#e9526f"/>
        <path d="M70.1676,35.2281c-.4079-5.2321-.4061-10.3424-.0029-15.8075.4315,5.1751.4344,10.3476.0029,15.8075Z" fill="#e9526f"/>
        <path d="M92.0639,35.2281c-.4079-5.2321-.4061-10.3424-.0029-15.8075.4315,5.1751.4344,10.3476.0029,15.8075Z" fill="#e9526f"/>
        <path d="M296.7692,35.2281c-.4079-5.2321-.4061-10.3424-.0029-15.8075.4315,5.1751.4344,10.3476.0029,15.8075Z" fill="#e9526f"/>
        <path d="M96.3923,35.2281c-.4079-5.2321-.4061-10.3424-.0029-15.8075.4315,5.1751.4344,10.3476.0029,15.8075Z" fill="#e9526f"/>
        <path d="M100.7206,35.2281c-.4079-5.2321-.4061-10.3424-.0029-15.8075.4315,5.1751.4344,10.3476.0029,15.8075Z" fill="#e9526f"/>
        <path d="M105.0489,35.2281c-.4079-5.2321-.4061-10.3424-.0029-15.8075.4315,5.1751.4344,10.3476.0029,15.8075Z" fill="#e9526f"/>
        <path d="M135.602,35.2281c-.4079-5.2321-.4061-10.3424-.0029-15.8075.4315,5.1751.4344,10.3476.0029,15.8075Z" fill="#e9526f"/>
        <path d="M139.9303,35.2281c-.4079-5.2321-.4061-10.3424-.0029-15.8075.4315,5.1751.4344,10.3476.0029,15.8075Z" fill="#e9526f"/>
        <path d="M144.2587,35.2281c-.4079-5.2321-.4061-10.3424-.0029-15.8075.4315,5.1751.4344,10.3476.0029,15.8075Z" fill="#e9526f"/>
        <path d="M148.587,35.2281c-.4079-5.2321-.4061-10.3424-.0029-15.8075.4315,5.1751.4344,10.3476.0029,15.8075Z" fill="#e9526f"/>
        <path d="M170.4833,35.2281c-.4079-5.2321-.4061-10.3424-.0029-15.8075.4315,5.1751.4344,10.3476.0029,15.8075Z" fill="#e9526f"/>
        <path d="M179.14,35.2281c-.4079-5.2321-.4061-10.3424-.0029-15.8075.4315,5.1751.4344,10.3476.0029,15.8075Z" fill="#e9526f"/>
        <path d="M183.4684,35.2281c-.4079-5.2321-.4061-10.3424-.0029-15.8075.4315,5.1751.4344,10.3476.0029,15.8075Z" fill="#e9526f"/>
        <path d="M187.7967,35.2281c-.4079-5.2321-.4061-10.3424-.0029-15.8075.4315,5.1751.4344,10.3476.0029,15.8075Z" fill="#e9526f"/>
        <path d="M209.6931,35.2281c-.4079-5.2321-.4061-10.3424-.0029-15.8075.4315,5.1751.4344,10.3476.0029,15.8075Z" fill="#e9526f"/>
        <path d="M214.0214,35.2281c-.4079-5.2321-.4061-10.3424-.0029-15.8075.4315,5.1751.4344,10.3476.0029,15.8075Z" fill="#e9526f"/>
      </g>
      <g>
        <path d="M262.4451,78.3615c0,.4824-.2394.8921-.4222.9328-.2287.0509-.6103-.3926-.6103-.7355l.0005-33.7907c0-.1856.2397-.5684.3602-.693.1199-.124.6703.3296.6703.5099l.0014,33.7766Z" fill="#e9526f"/>
        <path d="M218.8806,78.3899c0,.4016-.2375.8871-.4198.9243-.2279.0465-.6198-.4458-.6198-.7582v-33.7694c0-.2068.2628-.6236.4173-.7159.1932-.1154.6264.4343.6264.7226l-.0041,33.5966Z" fill="#e9526f"/>
        <path d="M175.2927,78.6369c0,.254-.2626.6319-.3835.7117-.1565.1033-.639-.3362-.639-.7425l-.0055-33.743c0-.273.2877-.6957.4393-.7867.1895-.1138.593.3977.593.695l-.0042,33.8655Z" fill="#e9526f"/>
        <path d="M131.7413,78.3935c0,.4215-.2008.8112-.3388.9253s-.6931-.3498-.6931-.5432l-.0014-33.9756c0-.2244.3012-.645.4514-.7394.1878-.118.5844.4168.5844.7153l-.0024,33.6176Z" fill="#e9526f"/>
        <path d="M306.02,78.3484c0,.4376-.2575.8898-.4263.9553-.169.0655-.6051-.3315-.6051-.5303l.0017-34.1607c0-.1963.4393-.684.5767-.5674.1365.1157.4503.5391.4503.91l.0026,33.3932Z" fill="#e9526f"/>
        <path d="M349.5773,78.5199c0,.4569-.3302.8212-.4665.8057-.1385-.0157-.5634-.2853-.5637-.7143l-.0204-34.0496.5903-.5499c.0981-.0914.4607.3856.4607.8494l-.0004,33.6587Z" fill="#e9526f"/>
        <path d="M88.1669,78.7235c0,.2375-.435.6807-.5562.6074-.121-.0731-.4697-.3875-.4698-.5485l-.0044-33.9668c0-.2535.2953-.6881.4442-.7894.145-.0986.5811.3832.5812.6497l.0051,34.0476Z" fill="#e9526f"/>
        <path d="M436.7143,78.4623c.0001.551-.3975.9199-.5709.8526-.1725-.067-.4619-.4569-.4618-.8314l.0042-33.7459c0-.3476.3557-.6819.4806-.7287.1269-.0475.5396.3363.5397.793l.0082,33.6604Z" fill="#e9526f"/>
        <path d="M44.5994,78.3469c0,.482-.2926.9777-.4781.9679-.1862-.0099-.5557-.3331-.5557-.5693l.0053-33.9463c0-.2322.3073-.6643.466-.7402.165-.0789.5629.3586.5629.7024l-.0004,33.5854Z" fill="#e9526f"/>
        <path d="M1.0342,78.6481c0,.2194-.4114.7663-.5138.6704L.0009,78.832l.0019-34.3359.5329-.42c.1042-.0821.3371.2665.4989.4711l-.0005,34.101Z" fill="#e9526f"/>
        <path d="M197.1204,70.4372c0,.3375-.3869.7466-.5554.7316-.2107-.0187-.5372-.4179-.5371-.7908l.0048-25.6429c0-.3141.3871-.732.5536-.7149.1629.0167.532.3956.532.6274l.0021,25.7897Z" fill="#e9526f"/>
        <path d="M240.6819,70.4142c0,.3238-.3733.7849-.5365.7479-.1629-.0369-.5415-.3711-.5416-.5515l-.0064-25.8967c0-.2107.3578-.6139.5135-.6941.1579-.0814.5674.3904.5675.7341l.0035,25.6603Z" fill="#e9526f"/>
        <path d="M327.8009,70.2784c0,.4025-.2073.8086-.3871.8652-.2405.0757-.6781-.3901-.6781-.7375l.0008-25.6234c0-.2132.303-.671.4673-.754.2054-.1039.5997.4639.5996.729l-.0025,25.5208Z" fill="#e9526f"/>
        <path d="M284.2421,70.2791c0,.4178-.1852.79-.3603.8516-.271.0954-.7055-.3443-.7054-.7454l.0013-25.5971c0-.2304.3256-.6851.484-.7801.1984-.1191.5799.4633.5799.7525l.0005,25.5185Z" fill="#e9526f"/>
        <path d="M109.9739,70.2783c0,.3521-.2869.8302-.467.8754-.2252.0565-.6044-.408-.6043-.7165l.005-25.6826c0-.2041.2492-.5975.4039-.6981.1933-.1258.666.4318.666.7056l-.0035,25.5163Z" fill="#e9526f"/>
        <path d="M66.4127,70.2064c0,.4618-.2632.8624-.427.9445-.1632.0817-.6562-.319-.6561-.5403l.0024-25.8023c0-.2454.2689-.6375.3926-.7758.1207-.1348.6834.3354.6835.6297l.0047,25.5443Z" fill="#e9526f"/>
        <path d="M153.5391,70.1693c0,.5185-.2712.9484-.4496.9956-.1799.0476-.6198-.2991-.6197-.6744l.0019-25.6737c0-.2644.231-.662.3384-.8143s.7246.3187.7247.7633l.0043,25.4034Z" fill="#e9526f"/>
        <path d="M22.8553,70.2687c0,.3567-.2657.7707-.4089.8897-.1487.1236-.6972-.3228-.6973-.6756l-.0051-25.6526c0-.2502.3018-.6771.4568-.782.1939-.1312.6572.425.6572.7061l-.0027,25.5144Z" fill="#e9526f"/>
        <path d="M371.4034,70.2671c0,.3665-.2523.8145-.4329.8754-.2264.0764-.6678-.4123-.6677-.7669l.0039-25.4964c0-.3245.2788-.7685.448-.8529.2113-.1055.6504.4871.6504.7414l-.0017,25.4993Z" fill="#e9526f"/>
        <path d="M414.9649,70.2715c0,.3611-.2713.8213-.4528.8782-.2272.0712-.6557-.4223-.6557-.7564l.0008-25.6108c0-.2435.2832-.6787.4564-.7472.2166-.0856.654.4895.6539.7397l-.0026,25.4964Z" fill="#e9526f"/>
        <path d="M393.1512,78.5505l-.2818.7166c-.0716.182-.7547-.1972-.7546-.6586l.0077-33.928c.0001-.479.3955-.6793.5253-.6461.1327.0339.4905.3209.4907.8389l.0126,33.6773Z" fill="#e9526f"/>
        <path d="M431.8322,59.8882c-.6374-4.9081-.118-10.3699-.3072-15.0027-.0081-.1976.2375-.5216.3132-.6139.4639-.5663.504,14.9242-.0059,15.6166Z" fill="#e9526f"/>
        <path d="M4.8517,59.898c-.4875-1.8324-.4148-15.152.0081-15.6267.4655-.5225.5093,14.8869-.0081,15.6267Z" fill="#e9526f"/>
        <path d="M126.8461,59.9327c-.4921-5.2752-.4919-10.5158-.0011-15.8399.5076,5.363.5127,10.42.0011,15.8399Z" fill="#e9526f"/>
        <path d="M161.6985,59.9056c-.4828-1.4681-.4441-15.8227.0085-15.6282.4514.194.5313,14.3279-.0085,15.6282Z" fill="#e9526f"/>
        <path d="M274.9886,59.9178c-.503-1.9528-.4307-15.0296.0141-15.6456.4562-.6318.4997,14.9433-.0141,15.6456Z" fill="#e9526f"/>
        <path d="M309.697,44.3137c.5708-4.6607.7125,16.6723.1659,15.5793-.5417-1.5164-.3323-14.2204-.1659-15.5793Z" fill="#e9526f"/>
        <path d="M35.2566,44.3012c.7085-1.8922.5458,15.1266.1413,15.5412-.6013-.9828-.2766-15.1798-.1413-15.5412Z" fill="#e9526f"/>
        <path d="M39.718,59.885c-.6269-4.8712-.1237-10.5083-.3055-14.9719-.0085-.2092.2533-.5443.3283-.6271.436-.4813.5052,14.7675-.0228,15.599Z" fill="#e9526f"/>
        <path d="M48.4222,59.9001c-.4709-1.2013-.4226-16.1219-.0082-15.6048l.388.484c-.3509,5.0353.3596,10.0441-.3798,15.1208Z" fill="#e9526f"/>
        <path d="M74.4161,44.3043c.7586-2.9543.5967,15.69.1869,15.587-.6862-.9126-.2394-15.3826-.1869-15.587Z" fill="#e9526f"/>
        <path d="M78.9239,59.8884c-.4718-1.8936-.4272-15.0384.028-15.6158.4395-.5575.5115,14.876-.028,15.6158Z" fill="#e9526f"/>
        <path d="M83.2941,59.8864c-.5213-1.7571-.427-15.1181-.0036-15.5998.4629-.5266.4896,14.8324.0036,15.5998Z" fill="#e9526f"/>
        <path d="M118.135,59.8779c-.4733-1.841-.4284-15.0404.0267-15.5959.4304-.5253.502,14.8547-.0267,15.5959Z" fill="#e9526f"/>
        <path d="M122.4714,59.9095c-.4525-1.8057-.4237-15.1324.0241-15.6306.4657-.5181.5371,14.8591-.0241,15.6306Z" fill="#e9526f"/>
        <path d="M157.3611,59.9205c-.5575-1.4258-.3312-15.7055-.1108-15.5856l.4788.2606c-.3132,5.0934.3631,10.204-.368,15.325Z" fill="#e9526f"/>
        <path d="M200.9251,59.9082c-.4957-1.1791-.4497-16.1484-.009-15.6425.4564.5239.5244,14.1905.009,15.6425Z" fill="#e9526f"/>
        <path d="M205.6527,44.7619c-.2959,4.891.4075,10.1383-.3827,15.1313-.5998-.6879-.2668-16.2383-.1568-15.5565-.0179-.1109.5255.317.5395.4251Z" fill="#e9526f"/>
        <path d="M231.4259,59.8526c-.423-.9111-.4765-16.3256.0486-15.5886.3467.4866.5162,14.2797-.0486,15.5886Z" fill="#e9526f"/>
        <path d="M235.7537,59.924c-.4424-1.9081-.414-15.0604.0364-15.6586.4434-.5888.5224,14.8907-.0364,15.6586Z" fill="#e9526f"/>
        <path d="M427.4855,59.8705c-.6586-4.7759-.1103-10.455-.3217-14.8882-.013-.2734.2735-.6088.3416-.6968.4345-.562.4987,14.8703-.0199,15.5851Z" fill="#e9526f"/>
        <path d="M279.3037,59.9138c-.5782-5.0126-.099-10.2436-.2925-15.0829-.0052-.1292.2401-.4581.3209-.5448.4763-.5115.5479,14.8445-.0284,15.6277Z" fill="#e9526f"/>
        <path d="M314.2205,59.8998c-.5128-1.0029-.4839-16.248-.002-15.5985l.3594.4844c-.3186,5.0104.3357,10.0256-.3575,15.1141Z" fill="#e9526f"/>
        <path d="M318.554,59.8917c-.488-1.1585-.438-16.0963-.0045-15.6075.4539.5118.5268,14.2112.0045,15.6075Z" fill="#e9526f"/>
        <path d="M357.7642,59.887c-.4991-1.2096-.4472-16.0429-.0057-15.6129.4515.4398.5195,14.259.0057,15.6129Z" fill="#e9526f"/>
        <path d="M388.2574,59.8428c-.4305-.9448-.4777-16.301.056-15.5862.3568.4778.5419,14.3551-.056,15.5862Z" fill="#e9526f"/>
        <path d="M396.9714,59.885c-.4857-1.1778-.4326-16.0862-.0079-15.6026.4674.5323.536,14.1822.0079,15.6026Z" fill="#e9526f"/>
        <path d="M401.3182,59.8644c-.6465-4.8992-.1092-10.3043-.3147-15.0093-.0065-.1486.2278-.4964.2928-.6021.5662-.9207.5512,15.296.0218,15.6115Z" fill="#e9526f"/>
        <path d="M113.8032,59.8369c-.463-.3228-.5139-17.1882.0548-15.5624.3025.8647.5249,14.041-.0548,15.5624Z" fill="#e9526f"/>
        <path d="M166.0322,59.9112c-.5536-1.6034-.2343-15.1287-.127-15.5309.0315-.1179.2943.0699.5273.2092-.3552,5.0565.4049,10.2419-.4003,15.3216Z" fill="#e9526f"/>
        <path d="M192.2271,59.8466c-.6127-1.6874-.3732-14.7855-.0796-15.5392.6067-1.5575.5128,15.3124.0796,15.5392Z" fill="#e9526f"/>
        <path d="M9.1954,59.9035c-.5593-1.5829-.2448-15.1475-.1323-15.5216.0344-.1144.2898.0693.5235.207-.3432,5.0608.3967,10.2364-.3912,15.3146Z" fill="#e9526f"/>
        <path d="M322.8734,59.9389c-.6012-5.3498-.1025-10.2447-.292-15.4845l.7059.0863c-.3801,5.1703.414,10.182-.4138,15.3982Z" fill="#e9526f"/>
        <path d="M353.4087,59.8948c-.492-1.6583-.4296-15.4147.0079-15.6063.4496-.1969.5089,14.5141-.0079,15.6063Z" fill="#e9526f"/>
        <path d="M362.102,59.9409c-.6582-5.3537-.0849-10.3029-.3173-15.4452l.6765-.1114c-.293,5.1804.368,10.328-.3592,15.5566Z" fill="#e9526f"/>
        <path d="M270.6377,59.8643c-.4235-.1195-.5249-17.5428.062-15.59.2869.9545.5377,13.9853-.062,15.59Z" fill="#e9526f"/>
        <path d="M383.9594,44.1847c.5261,2.0391.3691,14.6354.0159,15.5848-.5857,1.5746-.56-15.6889-.0159-15.5848Z" fill="#e9526f"/>
        <path d="M423.1412,59.9627c-.4949-5.3334-.5023-10.3805.0056-15.7847.5078,5.2307.5226,10.4531-.0056,15.7847Z" fill="#e9526f"/>
        <path d="M244.4779,59.8511c-.5294-2.0386-.3483-14.6156-.0326-15.5672.5372-1.6193.5038,15.6842.0326,15.5672Z" fill="#e9526f"/>
        <path d="M13.7999,59.8203c-.7547-.4538-.5587-1.0058-.5071-1.5907.4204-4.7612-.3537-9.3766.4143-14.1809.3623,5.4019.2152,10.5652.0927,15.7716Z" fill="#e9526f"/>
        <path d="M266.5716,58.1097c.0612.7416.3764,1.4596-.5629,1.7066l.1599-15.7727c.7549,4.7204.0046,9.2343.4031,14.0661Z" fill="#e9526f"/>
        <path d="M17.9728,59.8906c-.4079-5.2321-.4061-10.3424-.0029-15.8075.4315,5.1751.4344,10.3476.0029,15.8075Z" fill="#e9526f"/>
        <path d="M26.6295,59.8906c-.4079-5.2321-.4061-10.3424-.0029-15.8075.4315,5.1751.4344,10.3476.0029,15.8075Z" fill="#e9526f"/>
        <path d="M30.9578,59.8906c-.4079-5.2321-.4061-10.3424-.0029-15.8075.4315,5.1751.4344,10.3476.0029,15.8075Z" fill="#e9526f"/>
        <path d="M52.8542,59.8906c-.4079-5.2321-.4061-10.3424-.0029-15.8075.4315,5.1751.4344,10.3476.0029,15.8075Z" fill="#e9526f"/>
        <path d="M57.1825,59.8906c-.4079-5.2321-.4061-10.3424-.0029-15.8075.4315,5.1751.4344,10.3476.0029,15.8075Z" fill="#e9526f"/>
        <path d="M61.5109,59.8906c-.4079-5.2321-.4061-10.3424-.0029-15.8075.4315,5.1751.4344,10.3476.0029,15.8075Z" fill="#e9526f"/>
        <path d="M70.1676,59.8906c-.4079-5.2321-.4061-10.3424-.0029-15.8075.4315,5.1751.4344,10.3476.0029,15.8075Z" fill="#e9526f"/>
        <path d="M92.0639,59.8906c-.4079-5.2321-.4061-10.3424-.0029-15.8075.4315,5.1751.4344,10.3476.0029,15.8075Z" fill="#e9526f"/>
        <path d="M96.3923,59.8906c-.4079-5.2321-.4061-10.3424-.0029-15.8075.4315,5.1751.4344,10.3476.0029,15.8075Z" fill="#e9526f"/>
        <path d="M100.7206,59.8906c-.4079-5.2321-.4061-10.3424-.0029-15.8075.4315,5.1751.4344,10.3476.0029,15.8075Z" fill="#e9526f"/>
        <path d="M105.0489,59.8906c-.4079-5.2321-.4061-10.3424-.0029-15.8075.4315,5.1751.4344,10.3476.0029,15.8075Z" fill="#e9526f"/>
        <path d="M135.602,59.8906c-.4079-5.2321-.4061-10.3424-.0029-15.8075.4315,5.1751.4344,10.3476.0029,15.8075Z" fill="#e9526f"/>
        <path d="M139.9303,59.8906c-.4079-5.2321-.4061-10.3424-.0029-15.8075.4315,5.1751.4344,10.3476.0029,15.8075Z" fill="#e9526f"/>
        <path d="M144.2587,59.8906c-.4079-5.2321-.4061-10.3424-.0029-15.8075.4315,5.1751.4344,10.3476.0029,15.8075Z" fill="#e9526f"/>
        <path d="M148.587,59.8906c-.4079-5.2321-.4061-10.3424-.0029-15.8075.4315,5.1751.4344,10.3476.0029,15.8075Z" fill="#e9526f"/>
        <path d="M170.4833,59.8906c-.4079-5.2321-.4061-10.3424-.0029-15.8075.4315,5.1751.4344,10.3476.0029,15.8075Z" fill="#e9526f"/>
        <path d="M179.14,59.8906c-.4079-5.2321-.4061-10.3424-.0029-15.8075.4315,5.1751.4344,10.3476.0029,15.8075Z" fill="#e9526f"/>
        <path d="M183.4684,59.8906c-.4079-5.2321-.4061-10.3424-.0029-15.8075.4315,5.1751.4344,10.3476.0029,15.8075Z" fill="#e9526f"/>
        <path d="M187.7967,59.8906c-.4079-5.2321-.4061-10.3424-.0029-15.8075.4315,5.1751.4344,10.3476.0029,15.8075Z" fill="#e9526f"/>
        <path d="M209.6931,59.8906c-.4079-5.2321-.4061-10.3424-.0029-15.8075.4315,5.1751.4344,10.3476.0029,15.8075Z" fill="#e9526f"/>
        <path d="M214.0214,59.8906c-.4079-5.2321-.4061-10.3424-.0029-15.8075.4315,5.1751.4344,10.3476.0029,15.8075Z" fill="#e9526f"/>
        <path d="M222.6781,59.8906c-.4079-5.2321-.4061-10.3424-.0029-15.8075.4315,5.1751.4344,10.3476.0029,15.8075Z" fill="#e9526f"/>
        <path d="M227.0065,59.8906c-.4079-5.2321-.4061-10.3424-.0029-15.8075.4315,5.1751.4344,10.3476.0029,15.8075Z" fill="#e9526f"/>
        <path d="M248.9028,59.8906c-.4079-5.2321-.4061-10.3424-.0029-15.8075.4315,5.1751.4344,10.3476.0029,15.8075Z" fill="#e9526f"/>
        <path d="M253.2311,59.8906c-.4079-5.2321-.4061-10.3424-.0029-15.8075.4315,5.1751.4344,10.3476.0029,15.8075Z" fill="#e9526f"/>
        <path d="M257.5595,59.8906c-.4079-5.2321-.4061-10.3424-.0029-15.8075.4315,5.1751.4344,10.3476.0029,15.8075Z" fill="#e9526f"/>
        <path d="M288.1125,59.8906c-.4079-5.2321-.4061-10.3424-.0029-15.8075.4315,5.1751.4344,10.3476.0029,15.8075Z" fill="#e9526f"/>
        <path d="M292.4409,59.8906c-.4079-5.2321-.4061-10.3424-.0029-15.8075.4315,5.1751.4344,10.3476.0029,15.8075Z" fill="#e9526f"/>
        <path d="M301.0976,59.8906c-.4079-5.2321-.4061-10.3424-.0029-15.8075.4315,5.1751.4344,10.3476.0029,15.8075Z" fill="#e9526f"/>
        <path d="M331.6506,59.8906c-.4079-5.2321-.4061-10.3424-.0029-15.8075.4315,5.1751.4344,10.3476.0029,15.8075Z" fill="#e9526f"/>
        <path d="M335.9789,59.8906c-.4079-5.2321-.4061-10.3424-.0029-15.8075.4315,5.1751.4344,10.3476.0029,15.8075Z" fill="#e9526f"/>
        <path d="M340.3073,59.8906c-.4079-5.2321-.4061-10.3424-.0029-15.8075.4315,5.1751.4344,10.3476.0029,15.8075Z" fill="#e9526f"/>
        <path d="M344.6356,59.8906c-.4079-5.2321-.4061-10.3424-.0029-15.8075.4315,5.1751.4344,10.3476.0029,15.8075Z" fill="#e9526f"/>
        <path d="M366.532,59.8906c-.4079-5.2321-.4061-10.3424-.0029-15.8075.4315,5.1751.4344,10.3476.0029,15.8075Z" fill="#e9526f"/>
        <path d="M375.1886,59.8906c-.4079-5.2321-.4061-10.3424-.0029-15.8075.4315,5.1751.4344,10.3476.0029,15.8075Z" fill="#e9526f"/>
        <path d="M379.517,59.8906c-.4079-5.2321-.4061-10.3424-.0029-15.8075.4315,5.1751.4344,10.3476.0029,15.8075Z" fill="#e9526f"/>
        <path d="M405.7417,59.8906c-.4079-5.2321-.4061-10.3424-.0029-15.8075.4315,5.1751.4344,10.3476.0029,15.8075Z" fill="#e9526f"/>
        <path d="M410.07,59.8906c-.4079-5.2321-.4061-10.3424-.0029-15.8075.4315,5.1751.4344,10.3476.0029,15.8075Z" fill="#e9526f"/>
        <path d="M418.7267,59.8906c-.4079-5.2321-.4061-10.3424-.0029-15.8075.4315,5.1751.4344,10.3476.0029,15.8075Z" fill="#e9526f"/>
        <path d="M296.7692,59.8906c-.4079-5.2321-.4061-10.3424-.0029-15.8075.4315,5.1751.4344,10.3476.0029,15.8075Z" fill="#e9526f"/>
      </g>
    </g>
  </g>
</svg>