<?xml version="1.0" encoding="UTF-8"?>
<svg id="Layer_2" data-name="Layer 2" xmlns="http://www.w3.org/2000/svg" viewBox="0 0 140.0232 123.9364">
  <g id="Camada_1" data-name="Camada 1">
    <path d="M111.1628,13.2203L.5,65.7231c8.2847,17.553,19.7762,33.2925,33.7246,46.4617L121.0832,25.5c-4.2533-3.1809-7.6794-7.4016-9.9205-12.2797Z" fill="#868787" stroke="#868787" stroke-linecap="round" stroke-linejoin="round"/>
    <path d="M84.2118,75.7444c15.6351,11.5445,34.9377,18.3939,55.8114,18.4352v-26.9085c-13.4765-.0376-26.0239-4.0557-36.5594-10.9182l-19.252,19.3915Z" fill="#868787"/>
    <path d="M57.7542,28.6144C54.5806,19.6501,52.8208,10.0236,52.7561,0H16.0869c0,15.6332,2.9137,30.5808,8.1993,44.3528l33.4681-15.7385Z" fill="#e9526f"/>
    <path d="M63.017,97.0925c21.1485,16.7981,47.9002,26.8439,77.0062,26.8439v-22.0518c-22.99-.0421-44.2201-7.7177-61.2927-20.6192l-15.7135,15.8272Z" fill="#c24526"/>
    <path d="M109.0207,50.7557c9.0398,5.5476,19.648,8.7748,31.0025,8.8101v-27.4337c-3.7511,0-7.3497-.6481-10.6964-1.8295l-20.3061,20.4531Z" fill="#e9526f"/>
    <path d="M108.2676,4.8601c-.2421-1.5856-.376-3.2065-.376-4.8601h-47.4305c.0625,8.8526,1.583,17.3609,4.315,25.3124L108.2676,4.8601Z" fill="#c24526"/>
  </g>
</svg>