<?xml version="1.0" encoding="UTF-8"?>
<svg id="Layer_2" data-name="Layer 2" xmlns="http://www.w3.org/2000/svg" viewBox="0 0 161.3111 170.3812">
  <g id="TEXTS">
    <g>
      <path d="M88.1716,63.2191c.7768.274,1.5485.5865,2.2787.9682.6872.3589,1.2663.8448,1.8756,1.3313.269.2709.5006.5636.6993.8754l46.2764-46.5266-1.7401-1.6707C123.0447,6.7979,104.7434,0,84.8544,0h-.0039v62.5257c1.1253.1385,2.249.3154,3.3211.6935Z" fill="#a8462c"/>
      <path d="M76.7983,64.0313c.6512-.4789,1.4689-.7617,2.2036-1.0449.3662-.1412.7502-.2389,1.1369-.3042,1.3364-.2252,2.6904-.3922,4.0433-.2362.2716.0313.5436.0637.8155.0982V0h-.0039c-19.889,0-38.1902,6.7979-52.7072,18.1968l-1.7401,1.6707,44.962,45.2049c.3962-.3684.8303-.7029,1.2899-1.0411Z" fill="#a8462c"/>
      <path d="M69.2446,92.7361l-60.8238,28.8572c4.5535,9.6477,10.8696,18.2986,18.5361,25.5368l47.7402-47.6447c-2.3377-1.7483-4.2208-4.0682-5.4526-6.7493Z" fill="#858585" stroke="#858585" stroke-linecap="round" stroke-linejoin="round"/>
      <path d="M54.4315,127.1013c8.5935,6.3452,19.2029,10.1098,30.6757,10.1326v-14.7898c-7.4071-.0207-14.3035-2.2291-20.0942-6.001l-10.5815,10.6582Z" fill="#858585"/>
      <path d="M39.8896,101.1972c-1.7443-4.927-2.7116-10.2181-2.7471-15.7274h-20.1546c0,8.5925,1.6015,16.8081,4.5066,24.3777l18.3951-8.6504Z" fill="#ca526d"/>
      <path d="M42.7822,138.8349c11.6239,9.2328,26.3275,14.7542,42.325,14.7542v-12.1204c-12.636-.0231-24.3048-4.2419-33.6884-11.333l-8.6366,8.6991Z" fill="#a8462c"/>
      <path d="M68.0673,113.3667c4.9686,3.0492,10.7992,4.8229,17.04,4.8423v-15.0784c-2.0617,0-4.0396-.3562-5.8791-1.0056l-11.1609,11.2417Z" fill="#ca526d"/>
      <path d="M67.6534,88.1411c-.1331-.8715-.2067-1.7624-.2067-2.6713h-26.0693c.0343,4.8657.8701,9.5421,2.3717,13.9125l23.9043-11.2412Z" fill="#a8462c"/>
      <path d="M100.4874,92.7361l60.8238,28.8572c-4.5535,9.6477-10.8696,18.2986-18.5361,25.5368l-47.7402-47.6447c2.3377-1.7483,4.2208-4.0682,5.4526-6.7493Z" fill="#ca526d"/>
      <path d="M129.8424,101.1972c1.7443-4.927,2.7116-10.2181,2.7471-15.7274h20.1546c0,8.5925-1.6015,16.8081-4.5066,24.3777l-18.3951-8.6504Z" fill="#ca526d"/>
      <path d="M126.9498,138.8349c-11.6239,9.2328-26.3275,14.7542-42.325,14.7542v-12.1204c12.636-.0231,24.3048-4.2419,33.6884-11.333l8.6366,8.6991Z" fill="#ddc1a6"/>
      <path d="M101.6647,113.3667c-4.9686,3.0492-10.7992,4.8229-17.04,4.8423v-15.0784c2.0617,0,4.0396-.3562,5.8791-1.0056l11.1609,11.2417Z" fill="#858585"/>
      <path d="M102.0786,88.1411c.1331-.8715.2067-1.7624.2067-2.6713h26.0693c-.0343,4.8657-.8701,9.5421-2.3717,13.9125l-23.9043-11.2412Z" fill="#a8462c"/>
      <path d="M69.2446,78.2636L8.4209,49.4064c4.5535-9.6477,10.8696-18.2986,18.5361-25.5368l47.7402,47.6447c-2.3377,1.7483-4.2208,4.0682-5.4526,6.7493Z" fill="#a8462c"/>
      <path d="M39.8896,69.8025c-1.7443,4.927-2.7116,10.2181-2.7471,15.7274h-20.1546c0-8.5925,1.6015-16.8081,4.5066-24.3777l18.3951,8.6504Z" fill="#ca526d"/>
      <path d="M42.7822,32.1648c11.6239-9.2328,26.3275-14.7542,42.325-14.7542v12.1204c-12.636.0231-24.3048,4.2419-33.6884,11.333l-8.6366-8.6991Z" fill="#ddc1a6"/>
      <path d="M68.0673,57.633c4.9686-3.0492,10.7992-4.8229,17.04-4.8423v15.0784c-2.0617,0-4.0396.3562-5.8791,1.0056l-11.1609-11.2417Z" fill="#a8462c"/>
      <path d="M100.4874,78.2636l60.8238-28.8572c-4.5535-9.6477-10.8696-18.2986-18.5361-25.5368l-47.7402,47.6447c2.3377,1.7483,4.2208,4.0682,5.4526,6.7493Z" fill="#ca526d"/>
      <path d="M129.8424,69.8025c1.7443,4.927,2.7116,10.2181,2.7471,15.7274h20.1546c0-8.5925-1.6015-16.8081-4.5066-24.3777l-18.3951,8.6504Z" fill="#ca526d"/>
      <path d="M126.9498,32.1648c-11.6239-9.2328-26.3275-14.7542-42.325-14.7542v12.1204c12.636.0231,24.3048,4.2419,33.6884,11.333l8.6366-8.6991Z" fill="#a8462c"/>
      <path d="M101.6647,57.633c-4.9686-3.0492-10.7992-4.8229-17.04-4.8423v15.0784c2.0617,0,4.0396.3562,5.8791,1.0056l11.1609-11.2417Z" fill="#a8462c"/>
      <path d="M102.0786,82.8586c.1331.8715.2067,1.7624.2067,2.6713h26.0693c-.0343-4.8657-.8701-9.5421-2.3717-13.9125l-23.9043,11.2412Z" fill="#a8462c"/>
      <path d="M66.6577,46.6887c2.4477-1.1485,4.9788-2.0665,7.6194-2.6492,2.7533-.6077,5.5784-.9535,8.3887-1.1596.7766-.0567,1.5541-.0964,2.3319-.1292V0h-.0039c-19.889,0-38.1902,6.7979-52.7072,18.1968l-1.7401,1.6707,30.3582,30.5223c1.766-1.4514,3.685-2.7307,5.7531-3.7011Z" fill="#ca526d"/>
      <path d="M115.3005,43.8984c-8.5935-6.3452-19.2029-10.1098-30.6757-10.1326v14.7898c7.4071.0207,14.3035,2.2291,20.0942,6.001l10.5815-10.6582Z" fill="#ca526d"/>
      <path d="M87.6018,107.162c.7768-.274,1.5485-.5865,2.2787-.9682.6872-.3589,1.2663-.8448,1.8756-1.3313.269-.2709.5006-.5636.6993-.8754l46.2764,46.5266-1.7401,1.6707c-14.5169,11.3989-32.8182,18.1968-52.7072,18.1968h-.0039l.2715-62.4748c1.1253-.1385,1.9774-.3663,3.0496-.7443Z" fill="#858585"/>
      <path d="M84.8544,153.7884c-.1677,0-.3341-.0052-.5015-.0063l-.0722,16.5991h.0039c19.889,0,38.1903-6.7979,52.7072-18.1968l1.7401-1.6707-11.4331-11.4951c-11.6609,9.246-26.407,14.7697-42.4444,14.7697Z" fill="#a8462c"/>
      <path d="M44.3471,74.4246c.2754-.7283.5667-1.4503.8643-2.1697L6.1612,54.1071c-3.395,7.1671-5.784,19.6153-6.1612,27.6626l41.4372,3.151c.1149-.8029.2553-1.6029.4309-2.3987.6076-2.7533,1.483-5.4615,2.479-8.0975Z" fill="#858585"/>
      <path d="M54.4315,43.8984c8.5935-6.3452,19.2029-10.1098,30.6757-10.1326v14.7898c-7.4071.0207-14.3035,2.2291-20.0942,6.001l-10.5815-10.6582Z" fill="#a8462c"/>
      <path d="M67.6534,82.8586c-.1331.8715-.2067,1.7624-.2067,2.6713h-26.0693c.0343-4.8657.8701-9.5421,2.3717-13.9125l23.9043,11.2412Z" fill="#a8462c"/>
    </g>
  </g>
</svg>