<?xml version="1.0" encoding="UTF-8"?>
<svg id="Layer_2" data-name="Layer 2" xmlns="http://www.w3.org/2000/svg" viewBox="0 0 139.1125 155.6131">
  <g id="Camada_1" data-name="Camada 1">
    <path d="M6.0424,115.021c1.4133.4985,2.8174,1.0671,4.1459,1.7615,1.2502.653,2.304,1.537,3.4125,2.4222.4894.4928.9109,1.0253,1.2724,1.5927L99.0685,36.1469l-3.166-3.0396C69.4905,12.3681,36.1931,0,.0071,0h-.0071v113.7592c2.0473.2519,4.0918.5739,6.0424,1.2617Z" fill="#c24526"/>
    <path d="M28.4497,142.3929l110.6628-52.5029c-8.2847-17.553-19.7762-33.2925-33.7246-46.4617L18.5293,130.1131c4.2533,3.1809,7.6794,7.4016,9.9205,12.2797Z" fill="#e9526f"/>
    <path d="M81.8583,126.9987c3.1736,8.9642,4.9334,18.5908,4.9981,28.6144h36.6692c0-15.6332-2.9137-30.5808-8.1993-44.3528l-33.4681,15.7385Z" fill="#e9526f"/>
    <path d="M31.3449,150.753c.2421,1.5856.376,3.2065.376,4.8601h47.4305c-.0625-8.8526-1.583-17.3609-4.315-25.3124l-43.4915,20.4523Z" fill="#c24526"/>
    <path d="M55.4007,79.8687C39.7656,68.3242,21.1201,61.4748.2464,61.4335v26.9085c13.4765.0376,25.3668,4.0557,35.9023,10.9182l19.252-19.3915Z" fill="#e9526f"/>
  </g>
</svg>