<?xml version="1.0" encoding="UTF-8"?>
<svg id="Layer_2" data-name="Layer 2" xmlns="http://www.w3.org/2000/svg" viewBox="0 0 140.1492 154.4879">
  <g id="Camada_1" data-name="Camada 1">
    <path d="M29.4865,13.2203l110.6628,52.5029c-8.2847,17.553-19.7762,33.2925-33.7246,46.4617L19.566,25.5c4.2533-3.1809,7.6794-7.4016,9.9205-12.2797Z" fill="#e9526f"/>
    <path d="M82.895,28.6144c3.1736-8.9642,4.9334-18.5908,4.9981-28.6144h36.6692c0,15.6332-2.9137,30.5808-8.1993,44.3528l-33.4681-15.7385Z" fill="#e9526f"/>
    <path d="M77.6322,97.0925C56.4837,113.8907,29.732,123.9364.626,123.9364v-22.0518c22.99-.0421,44.2201-7.7177,61.2927-20.6192l15.7135,15.8272Z" fill="#e8c3a7"/>
    <path d="M31.6286,50.7557c-9.0398,5.5476-19.648,8.7748-31.0025,8.8101v-27.4337c3.7511,0,7.3497-.6481,10.6964-1.8295l20.3061,20.4531Z" fill="#868787"/>
    <path d="M32.3816,4.8601c.2421-1.5856.376-3.2065.376-4.8601h47.4305c-.0625,8.8526-1.583,17.3609-4.315,25.3124L32.3816,4.8601Z" fill="#c24526"/>
    <path d="M6.0424,39.4668c1.4133-.4985,2.8174-1.0671,4.1459-1.7615,1.2502-.653,2.304-1.537,3.4125-2.4222.4894-.4928.9109-1.0253,1.2724-1.5927l84.1954,84.6505-3.166,3.0396C69.4906,142.1196,36.1931,154.4877.0071,154.4877H0L.4941,40.821c2.0473-.2519,3.5977-.6664,5.5484-1.3542Z" fill="#868787"/>
    <path d="M1.0438,124.2989c-.3051,0-.6079-.0094-.9125-.0115l-.1313,30.2005h.0071c36.186,0,69.4835-12.3681,95.8955-33.1073l3.166-3.0396-20.8013-20.9142c-21.2159,16.8222-48.0448,26.8721-77.2235,26.8721Z" fill="#c24526"/>
  </g>
</svg>