<?xml version="1.0" encoding="UTF-8"?>
<svg id="Layer_2" data-name="Layer 2" xmlns="http://www.w3.org/2000/svg" viewBox="0 0 154.2804 155.8073">
  <g id="Camada_1" data-name="Camada 1">
    <path d="M125.3727,142.3929L14.71,89.89c8.2847-17.553,19.7762-33.2925,33.7246-46.4617l86.8586,86.6848c-4.2533,3.1809-7.6794,7.4016-9.9205,12.2797Z" fill="#c24526"/>
    <path d="M77.227,58.5206c21.1485-16.7981,47.9002-26.8439,77.0062-26.8439v22.0518c-22.99.0421-44.2201,7.7177-61.2927,20.6192l-15.7135-15.8272Z" fill="#e8c3a7"/>
    <path d="M123.2306,104.8575c9.0398-5.5476,19.648-8.7748,31.0025-8.8101v27.4337c-3.7511,0-7.3497.6481-10.6964,1.8295l-20.3061-20.4531Z" fill="#c24526"/>
    <path d="M120.6661,84.9454c4.4534-2.0896,9.0584-3.7597,13.8627-4.8199,5.0093-1.1056,10.1493-1.7349,15.2624-2.1097,1.4129-.1032,3.0741-.1753,4.4892-.2351l-.2465-77.7807h.2393c-36.186,0-69.7299,12.3681-96.142,33.1073l-3.166,3.0396,55.2338,55.5323c3.2131-2.6406,6.7045-4.9682,10.4671-6.7338Z" fill="#e9526f"/>
    <path d="M80.0742,135.4081c.501-1.3251,1.0311-2.6387,1.5725-3.9476L10.5988,98.4424C4.422,111.4823,0,136.3962,0,155.8073h76.5024c.2091-1.4608-1.2581-4.2187-.9385-5.6666,1.1055-5.0093,2.6982-9.9367,4.5103-14.7325Z" fill="#868787"/>
    <path d="M98.4218,79.8687c15.6351-11.5445,34.9377-18.3939,55.8114-18.4352v35.6194c-13.4765.0376-19.9289,1.4416-30.4644,8.3041l-25.347-25.4883Z" fill="#c24526"/>
    <path d="M122.4776,150.753c-.2421,1.5856-.376,3.2065-.376,4.8601h-47.4305c.0625-8.8526,1.583-17.3609,4.315-25.3124l43.4915,20.4523Z" fill="#c24526"/>
  </g>
</svg>